<mxfile host="app.diagrams.net" modified="2024-01-10T21:40:23.529Z" agent="Mozilla/5.0 (X11; Linux x86_64) AppleWebKit/537.36 (KHTML, like Gecko) Chrome/119.0.0.0 Safari/537.36" etag="dODMJagXle9TaShHagri" version="22.1.18" type="device">
  <diagram name="Page-1" id="kcnLXURLVkKTa__Cr0_p">
    <mxGraphModel dx="2876" dy="1123" grid="1" gridSize="10" guides="1" tooltips="1" connect="1" arrows="1" fold="1" page="1" pageScale="1" pageWidth="827" pageHeight="1169" background="#000000" math="0" shadow="0">
      <root>
        <mxCell id="0" />
        <mxCell id="1" parent="0" />
        <mxCell id="RByCtK4DOyFTz49GX1wE-74" value="" style="group;fillColor=#182E3E;labelBackgroundColor=none;fontColor=#FFFFFF;" parent="1" vertex="1" connectable="0">
          <mxGeometry x="-640" y="110" width="1330" height="980" as="geometry" />
        </mxCell>
        <mxCell id="HpVk8KTjHZftgWiyhdXz-2" value="" style="rounded=0;whiteSpace=wrap;html=1;labelBackgroundColor=none;fillColor=#182E3E;strokeColor=#FFFFFF;fontColor=#FFFFFF;" parent="RByCtK4DOyFTz49GX1wE-74" vertex="1">
          <mxGeometry width="1330" height="980" as="geometry" />
        </mxCell>
        <mxCell id="RByCtK4DOyFTz49GX1wE-48" value="" style="group;labelBackgroundColor=none;fontColor=#FFFFFF;" parent="RByCtK4DOyFTz49GX1wE-74" vertex="1" connectable="0">
          <mxGeometry x="387.5179856115108" y="22" width="621.9424460431655" height="190" as="geometry" />
        </mxCell>
        <mxCell id="RByCtK4DOyFTz49GX1wE-35" value="" style="rounded=1;whiteSpace=wrap;html=1;labelBackgroundColor=none;fillColor=#182E3E;strokeColor=#FFFFFF;fontColor=#FFFFFF;" parent="RByCtK4DOyFTz49GX1wE-48" vertex="1">
          <mxGeometry width="382.73381294964037" height="190" as="geometry" />
        </mxCell>
        <mxCell id="RByCtK4DOyFTz49GX1wE-39" value="&lt;font style=&quot;font-size: 22px;&quot;&gt;&lt;b&gt;SQL&lt;/b&gt;&lt;/font&gt;" style="shape=cylinder3;whiteSpace=wrap;html=1;boundedLbl=1;backgroundOutline=1;size=15;fillColor=#182E3E;strokeColor=#FFFFFF;labelBackgroundColor=none;fontColor=#FFFFFF;" parent="RByCtK4DOyFTz49GX1wE-48" vertex="1">
          <mxGeometry x="62.19424460431656" y="25" width="92.81294964028778" height="125" as="geometry" />
        </mxCell>
        <mxCell id="RByCtK4DOyFTz49GX1wE-40" value="&lt;font style=&quot;font-size: 22px;&quot;&gt;&lt;b&gt;VDB&lt;/b&gt;&lt;/font&gt;" style="shape=cylinder3;whiteSpace=wrap;html=1;boundedLbl=1;backgroundOutline=1;size=15;fillColor=#182E3E;strokeColor=#FFFFFF;labelBackgroundColor=none;fontColor=#FFFFFF;" parent="RByCtK4DOyFTz49GX1wE-48" vertex="1">
          <mxGeometry x="203.8057553956835" y="25" width="94.24820143884894" height="127.5" as="geometry" />
        </mxCell>
        <mxCell id="RByCtK4DOyFTz49GX1wE-42" value="" style="rounded=1;whiteSpace=wrap;html=1;fillColor=#182E3E;labelBackgroundColor=none;strokeColor=#FFFFFF;fontColor=#FFFFFF;" parent="RByCtK4DOyFTz49GX1wE-48" vertex="1">
          <mxGeometry x="401.87050359712237" width="220.0719424460432" height="190" as="geometry" />
        </mxCell>
        <mxCell id="RByCtK4DOyFTz49GX1wE-44" value="" style="shape=image;verticalLabelPosition=bottom;labelBackgroundColor=none;verticalAlign=top;aspect=fixed;imageAspect=0;image=data:image/png,iVBORw0KGgoAAAANSUhEUgAAAgAAAAIACAYAAAD0eNT6AAAAAXNSR0IArs4c6QAAIABJREFUeAHtvQl0W9d5Lqq4SZqmadKbpm5z06S3zU3SptNr2qZNXldvcnub5rWvvWlX/HKTtElsS5xJSbZsTSRNWx7leR4kz/I82xqt0dYsUhIJzgNwMBEAB8zELPF/a5OGRVIAieGcgz18XAsLIICzz97f/vF/3/733v9etgx/QAAIAIFly5aRb82lNNB0OfU0PkB9jXuop76fuut81FMbIUt1ijqrpqlrxTR1riDqXK7fo7uWqK+RaGAl0eDVRMPXEo2sJbKtJ9I2EmnNRFoLkR0PYKCLDWTI3hL44KGR1nKK7C27yN78DGkt15PWejnZW79LI22XwjEAASAABKRDgKxVn6GBphrqa9xOPXVu6qpO60rquQRC13IiRvb9TUTDa4is60DsEDW8CzsvaS3vkr31RrI3/xM51v0X6ZwBGgQEgID8CFBfww+ot3E7ddcGDCf7rACwVBP1McK/ZnYkD8LjnfBQv8Vt9DzZm8+So+UWsm38O6K2j8rvOdBCIAAEhESABpr+N/U2HJoN4esYts8SfK5nRvr9K4lG1oFMFicT4CM+PsGZqQNH679QR9XHhHQSqDQQAALyIEDDjV+mvobXyVKdNG2k37Vidh4fpA9SF5/US+1DH9lbN5O17avyeBO0BAgAASEQoN6Vl1FP/Yjui/RyjfKz77HRPlu4xxbqqev40Xb0/VwbmCZ7ywFiUQFqu0QI54FKAgEgICYC1N+0hrpr/KaN9hn5s8V8Q2uwiA/EN5f48Ppie+gne+uVmB4Q07ei1kCAWwSof1UVdddWhvgvdnRw/sAENpDfBuzkaKnCokFu3SkqBgTEQID6Vv4D9dR5TR3xd1UTDV0NB5/fwQMbYFOIDfSQo/UfxPA0qCUQAALcIEDaNb9NPQ3tps7xs3D/wKrZhDxw8IU4eHwHdrK0DWgtb5Oz+cvcOBdUBAgAAX4RoIFVLWSpzpg66mfz/CxZDxw6MIANGGEDcdJa27A+gF+/i5oBgYoiQL1NX6KeepupxM9S/Q6sxgI/kJ4RpIcyL7arDnK0fb2ijgY3BwJAgC8EqK9pOVlMSNGb3dLHni01GPVf7KBBWsDEaBtIkKN5JdGyj/DlhVAbIAAETEWArRSm/sYDxHLnzyVno1+zlL04dMdoR4/yISby24DW8hZZ137GVIeDmwEBIMAHAtS5+gvUU+cxlfiZsGDJfOCYgQFsgAcbGCZXy5/w4ZFQCyAABExBYGZ7n9kh/64q5OwH6fFAeqjDfDucIq35B6Y4HtwECACByiJA/StXkKXqvKkj/+4aItt6ON75jhd4AA9ebGCa7RKorGfC3YEAEDAUARpYudlU4mchf7bFT9vIi6NDPUC6sIG8NtB6FxYHGuqCUTgQqAwC1N90n+nk31MH8s/rbFtARMCGQxtofgwHC1XGR+OuQMAQBKi/8UnTyb+XkT9O7sOCRwgd8WygeRvRZb9kiDNCoUAACJiHQGVG/izsD/IXz/GDrNFnH9iAo/kpRALM89O4ExDQHQHM+YPQQGiwgdJtoPU+3Z0SCgQCQMB4BGhwZZ3pYX9LNeb8Ma/N4bw2REDJIkBrWWe8t8IdgAAQ0A0BGrnqu6Zv9WP7/LHVD+QHASSbDUyTo+U/dHNOKAgIAAHjEKC++t81Pa8/SyU8slY2x4f2gMxhA7M2kCCt5a+N81ooGQgAgbIRmMnt3103ZnroH+l9QRQQC7LbgIfsGz5ftpNCAUAACBiDwMzBPkYf5LOw/N5G2R0f2gdyhw3M2sABbA80xnejVCBQFgIzi/7MPtUPi/5ADBAHatmAo6W1LEeFi4EAENAXAeq+6otkqc6YGvrHvL9ajh9Ej/6etYEM2Vu+pa8HQ2lAAAiUjAD11NtMJX82DTCwCg4RpAgbUNMGrORb86slOyxcCASAgD4I0MCqFtPJ31JDZEemv5L3VqtJGhALcvX7nfp4MJQCBIBASQjQSM2l1GVy6J+N/kfWwZnL5czRn+jPYm3gPKYCSnLbuAgI6IMA9TS0mz76728q1lHg+yAX2ICUNtB8GucF6OPLUQoQKAqBmWx/C7fkGf7/CiJtA5y5lM4c6XIxpVOKDbReWZTjwpeBABAoHwHqqfOaPvofXA3yB/nDBmADc23AR8Ntny7fo6EEIAAECkKABppqTCf/mT3/pYwQcA1GlrABqW1Aa20ryHHhS0AACJSPAHXXBk0XAEj3O3fUg9cYBcMGLthAmFxtny3fs6EEIAAEFkWA+pvWmE7+bPR/4ceO18ACNgAbmG8DjtabF3Vc+BAIAIHyEaDuWr/pAgCj//nODs4feMAGFtpAhKxrP1O+h0MJQAAI5ESAhlb9u+nk31VFpCHpDyIgmMeHDSxpA2tyOi68CQSAQPkIUE/9iOkCoB8pf+H4l3T8C0eD+F/FCIGjxUkdVR8r39OhBCAABOYhQH3VX6HOFWS6ALBh3z8EAAQAbKBAG9CafzDPceEfIAAEykeA+hrfMJ38e+oxklNxJIc2w+5Lt4Ed5Xs7lAAEgMA8BKi7Jmm6ABi+Bo6wdEcI7ICdijZwjkY2fnGe88I/QAAIlI4A9a/+ienkzxb/wYEDA9gAbKBYG3C0XFu6t8OVQAAIzEOA+hqOmy4A+nDoDwRQgfO+xRIEvi+7qOiY58DwDxAAAqUjQJbqtOkCYORa2Z0U2gcihg0YZQPO5i+X7vFwJRAAAjMIVGbv/wo4RqMcI8qFbalgA1rzarhwIAAEykSA+hp2mD7678Xqf4T/Ef6HDZRhA46WPWW6PlwOBIAAddeZf/DP0NUYpakwSkMbYefG2UCSxts+BQ8uAAJ02WUft62s/Vd7Y+1mraF+t62ufsBa0+Cy1TRM2moawlpNo99W0+C11TbYtfqGk/aGume1hrrV1qamLwnQPGGrSNqqX69M8p/1cIzGOUZgC2zVsAFb8/eEdb6yV9y+qv5bWkPda7baeq91eeO09comKulR1ZjQ6urPao21a5mQkB03M9tHg6vqTQ//W7D9D6HfMkK/IHc1yL2QftZarjfTX+JeSyDgunL1Z+0NdVtt1Q3Bksh+EZGg1TSQY01NwLl+xZ2OlhV/tERV8HEBCFBvw27TBUBvAxxYIc4N34GdwAaWsoF9Bbg5fMVoBLRrrvltW13929YVjef1Jn5bbT05rqkm54aquY9p18bqd1zrq/7a6LbJXD711o2aLgAGVy/1o8bncPywAdhAITYQIWq7RGYfzXXbqK3to1pDw/O2ckL8eUb9tuoGclxTM5f0871+w7bxyt/lGihOK0dd1RnTBQD2/xfi2PAdECBsoBAbQD6AyrCLtbHux7bqxindR/zLm8i+ujYf2ed7P+ZYX7WOCZLKoCHeXalv1edNJ//O5US2jXBshTg2fAd2AhsowAZa/0087ytwjWnZso/YGupe1Jv4WXm2mkZyrC1o1J9HCKw4qa2r+W8Cw2ta1amvabnpAqALCYCwABALAGEDetpAc4tpTlP1G9k2rPwtW22Dxwjy1xrqybn+orn+PEQ/bz3Awu9MONdVYXvIEsZKvSsfMl0AdNcWoOj1dA4oC2QDG5DaBhwtTy7h6vCxHghY61d81VrdEDWC/O0r6xaSeLn/Z5wbVlyhR7tlLYN6G/eZLgCwAwACCGFt2IC+NnBIVh/NTbu02sa/sVY1pgwh/+Ln+wsVB9OOjVWruAGRs4pQd/2A6QKgfyWcn77OD3gCT9VtwMGZa5WrOu6r6r8qIPl/KBJcG6ob5eoRfVpD3XXjpguAwatUd1ZoPwgbNqCvDaSJln1EH6+IUuYhMLKm5lLDwv5Nuof9PyT9BTkDzjnWV/9wXsPwzzKy1E6ZLgCG1sD56ev8gCfwhA0Mt30aLt0ABFhufiPC/ra6hnxkbdT7Cffa6j8zACJhi6Su6rTpAmD4GjgrEBZsADagsw00/56wjpjXimuN9S8ZQv5VjeRcp8tq/2LFwuDEtVf8Gq94m10vslSdN10AjKzT+YePFd5Sr/AGUeL3UpANtH3DbP8p9f0cjXU/NIL8WZk50voWS+TlfP9xqTuuiMZR14ppCAAICAgI2IAENvCtIlwfvroYArRs2SW2qsaIEQJAazRt3j+fSJh2b6j67mLtV+WzyhwDjAiABM4Wo9KCRqUQFqbZutb8HVX8tuHt1BrqnjaC/G0rWOh/0QQ++Uhb3/fXV/V0VFV9zHAgOb+B6aN/lgbYuh7kAfKADcAG9LUBrfUfOXe3YlTPc3XV52wrmnQ/0Y8JCvuqio/+5wqJejF6xJhaEi27pCICwGaOAJjWWsl5/CY6s+N2OvnWHXgAA+VsoGP7HTTy3q2UsbbqS7ZcipfW/8cYT6lYqVpd3RuGjf7nH+c7l4wr8drZ23bZxxXr3g+bK6sASI+00o6n7qeVV75AP/vhq3gAA+VtoPo/XqJn7n6Ewj3XSywEIAA+dO6lvuioqvqktaopY4QAsK8s+nQ/40XB+urLS8VK9OtkFAD+zhuoZeWzyjt8CB8Iv1w20PiLF2jo0K2SigAIgLI5ydZQf58R5G9d3kgOfQ750VUUuDZWnSkbNEELkE0AJAbbaEPjNpA/RvywgUVsoOqnL5Pr+E0SigAIgLKpyFbbOG6EAJg55Y+v8P+HQsLVUvUnZQMnYAGyCYCn7nwUjn8Rx59rRIj31IwUNDdto2lNth0KEABl0ZC1oepPjCB/VqZjTc2HhLsgRW/F33dsrLqtLOAEvVgmARC03ECX/+gVCAAIANhAgTbAFgiatkXPlEWDEABlUZG9vv4ZQwTA8saKk/wSomOwLOAEvVgmAbD/hXvg+At0/Bj1qznqX9jvj966BQJAUN9tSLWNyvmvmZ/zv2jB4b52+e8YAirHhcokANgK54UODv+D6GAD+W2gddWzEAAc+2dTq0bLln3EtqLxnBERAC5X/y9Yj+DYUP0zUwHn4GYyCQA2moGzz+/sgQ2wWWgDa6qfgwDgwA9zUQV7U923jSB/Vqad4/n/OVMDD3HRESZWQiYB8MIDD0MAYAoANlCEDWxa8zQEgIn+lutb2RtrNxglACp06l9R0wCu9dX7ue4gAyonkwBof/sOOP8inP/C0SD+Vy9CwEQzFgEa4FhFLNLaUPeaIQKA5f5fEG7n9H+3iP1WTp1lEgDJoeuo7ucvQgRABMAGCrCBn1/2CmlHboYAKMeBynStVtdwxggBYKtuEEUATA83Nv6yTH26VFtkEgBsJPPutvvg/Atw/hjtqzfaX9jnD920VTLyZzkNsA1wKZ+f93NbXcOgIQKgVhgBQJ62qs/lBUjCD2QTAOzwnwc3bYUIgAiADSxiA+sbtlF88DoIAAl9eslNstY0uIwQAFpdvSgRAHKsq/39kgEU8ELZBACLApyzttJz9z5MP78Mo7yFoz78D5u4feMTNNXXJiH5IwJQFgVZaxqMSQFcL44AcG1Y/qdlgSjYxTIKgOyiJsexm2jLrY9R4+VYFwDiV5v4q376Et1z3RMzx2Jnfx9yPmMKoGQK0mobRg2JAAgkANzrV3y1ZAAFvFBmATDXwaWGr6Op/jY8gIFyNsAOyJr7W5D7NQRAyTSk1TZYDREAAq0BsG+o+nzJAAp4oSoCQG6nJ9uBLmgP7LVUG4AAKJmGbHUN3UYIAFuNOIsAx9vqPlUygAJeCAFQqqPBdSAp2AB/NgABUDIN2Rrq9hoiAMTJAxAuGTxBL4QAgBPnz4mjT9AnpdoABEDJVGRvrL/DCAHAyuQ08c/Cep0qGTxBL4QAKNXR4DqQFGyAPxuAACiZiuyNdf9ulABwXFu9kGy5+9+xoerZksET9EIIADhx/pw4+gR9UqoNQACUTEXDjY2fti5vJCNEgP2qWu4I/6KoxPoVa0oGT9ALIQBKdTS4DiQFG+DPBiAAyqIirabRb4QA0Br4zwVg31D1jbLAE/BiCAA4cf6cOPoEfVKqDUAAlEVDhi0ErOL+QCA/tbVdUhZ4Al4MAVCqo8F1ICnYAH82AAFQFg1ZG+t+akQEgJXJ+TqAF8oCTtCLIQDgxPlz4ugT9EmpNgABUDYV2aoaEkaIAHtTHbfrAOwbqv65bOAELAACoFRHg+tAUrAB/mwAAqBsGrLV1e0xQgBY+Z0GGO+oqvpY2cAJWAAEAJw4f04cfYI+KdUGIADKpqHRxpo/N0QAXNlE9jU13EUBHBuqNpcNmqAFQACU6mhwHUgKNsCfDUAA6EJFtrqGfiNEgMbfuQAJ57VX/FddQBOwEAgAOHH+nDj6BH1Sqg1AAOhCQ9qqhu8YIQBYmY5rOEoKtL7qfl0AE7QQCIBSHQ2uA0nBBvizAQgA3ahIq63vNUIEaJwcDuTYUBVRefTPDAUCAE6cPyeOPkGflGoDEAC6CQBH7erft61oOm+ECLBfxcVagNW6gSVoQRAApToaXAeSgg3wZwMQALpSka2+fosRAsC2opEc6yo6FdBFbW0f1RUsAQuDAIAT58+Jo0/QJ6XaAASA7jRkq613GiIC6hoqtSMg4V5b/We6AyVggRAApToaXAeSgg3wZwMQALrTkLWp6Uu2qsa0ESJAW2X+IUGu9dVX6g6SoAVCAMCJ8+fE0Sfok1JtAALAECrS6hp/bFveOK27CFjeSI5rzFsP4NhQtcUQgAQtFAKgVEeD60BSsAH+bAACwDAq0hrqVusuAK5sIutyc84JcG2sfgfz/vPNAwIATpw/J44+QZ+UagMQAPM9vM7/afX1dxshAmxVjUYfFnTItXr1r+gMh/DFQQCU6mhwHUgKNsCfDUAAGE5KWmP99WzUrrsQYDsDjEkS9BbIP7dZQADAifPnxNEn6JNSbQACILen1/ndkZV11bYVjfrnCFiu+3kBj9Bll/2Szs2XpjgIgFIdDa4DScEG+LMBCADTyMm6su6vrDUNYd0jAezQoJVl7w6IOzasWGkaGILeSHYBkBm5jnr33kbvv3IXbX/ifjwUx2DXM/fR0dfuIsexm4g/8oKgKL9PIABMpSKtre0Ttvr6w0aIAFttAznWlpQs6LRjffXXTQVC0JvJKgBi/W304gMPUdVPX6Kf/fBVPIDBRTZwdfXzdPjVu2haa4UYsMsiPiAAKkJFzsa672k1DZO6CwE2JbCyjpzrCxICITbqR8i/cBOQUQB42m+ka2qev8jhQwhACOWygftv2Eqp4esgAqQQARAAhXt/nb9Jy5ZdYm+ou91a3RjXWwjYqhvJvjrvtMCUc0PVHSNtNZfq3CTpi5NNAIR7rqerVoD8cxEd3ssvgB7ctBWRAAgA6f29KQ1kQsDaWH+9zYCIABMCM9kD11exNMIu54aqGzxtVZ8zpWES3kQ2AfDwzVsx8ke4vyQbOPnWHYgCCC8CEAHgiqbs9fXfsNXVbbdWN0b0iArYljedt9XVD7CkRNTWdglXjRWwMjIJgImzm+jnl+Uf5WEEDGwWs4HmpmchACAABPTiglTZvmrV55+6/Pbp96o2UFf11TRUtXLRXAIjK5qor2o1naq6lt5afgNt/cUdT4H09e1smQTAu9vuK2nktxgp4DO1RMP4mU0QAUKLAEQA9GUInUv72Q9fPbfQqS6/7GVa9aNt1PKTrbT2x09S44+eo5/nDGO+slbn6ihfnEwC4Om7HoEAyPm7UYvEF/qXYv637LkdAgACQHleMAyAXAKg8B8oBIDeHSOTAHjs1i0QABAAZdkA1gGIvh0QEQC9OULX8iAAdIWz7MJkEgAvPfRQWc6/cCGKEbWsWA0evBURAEQAyvarKCAPAhAAeYCp0NsyCYCzO2+HAEAEoGQbWP6Tlyk1hHwA5Wfjq2QUARGAClFJYbeFACgMJ7O+JZMASI+0UtMVL5RMALKOatGuwiI2bApJbPKrJPHycm8IALO4o6T7QACUBJthF8kkAJjzZqldQXiFER5wuoATSxnNtpFCAPBC5KXWAwLAMLLQo2AIAD1Q1K8M2QQAc+DYDXCB2EDyS2Nx+f/3Cp3ZgdX/cogfCAD92MGAkiAADAC1jCJlFADscJd3nniArvg/LyMagDUBi9rAquUvUP/+2zDyF3rh35xogdb8/TLcIS41GgEIAKMRLr586lpO1Gnyw7recKfLQrovPvgQbWzcRlU/hRhANGA2GtDwixfp5rVPEUschUV/c8hTBhHgaP374j0grjANAQgA06Au+EbUuaICAmCd4QJAjpCmZA5aBpJBG/j97To2/m3Bjg9fNB8BCADzMV/qjtS1Ytr8CAAEAAQKxA1sQGcbcLb81VL+Dp9XEAEIgAqCn+fW1FV1znQBMHItv6MIjPDQN7ABMW3A0fb1PG4Ob/OAAAQAD70wvw7UXRs3XQAMrxHTwYAY0G+wAX5tYKTt0vneDf9xhQAEAFfdMVMZ6q4NmC4ABq/m14nAwaNvYAMi2sA0UdtH+fOwqNGHCEAAfAgFNy+op95hugAYWC2ig0GdQYywAX5twM+NU0VFciMAAZAbl0q+S30NJ0wXAH1NcKT8OlL0DfpGRBs4U0k/insXgAAEQAEgmfwV6m180XQB0FMnooNBnUGMsAF+beB1k10nblcsAhAAxSJm/PdpYFWL6QLAUg1Hyq8jRd+gb0S0gTuN95a4Q1kIQACUBZ8hF1Pv1X9rugBgmQe1ZhGdDOoMcoQN8GkDyw1xkChUPwQgAPTDUq+SZs4DQDIgOHU+nTr6Bf1SmA3YNn5TL5+IcgxCAALAIGDLLJa6a8OmRwGGsBUQmeB0zgQHsiyMLOXD6Tz51vxqmW4QlxuNAASA0QiXVj711J81XQBgJ4Cqzhrtlo+AK92nfaV5PlxlKgIQAKbCXfDNqG/l3aYLAEttpZ0G7g8igg1IYQPNjxXs7PDFyiEAAVA57Be7Mw1f9eemCwAsBAT5SEE+mMao+FSW1vrzxfwbPuMEAQgATjoiRzXIUp02XQQM41CgijtPkDCEmPA20Px7OVwa3uINAQgA3nrkQn2op77HdAHQvxLOV3jnixEwRFxFbWDwghfDK64RgADgt3uob+Um0wUAEgJBAEEAwQbKsQGt9R5+vSpqNg8BCIB5cHD1D43UXEpdy8l0EWBbDwdYjgPEtbAflW1Aa/1HrhwpKpMfAQiA/Njw8An11I2aLgAGcTIgQsgVDSFDQIgrIALU2/ZxHnwn6lAAAhAABYBUwa9gOyCICGIENiCODWD7XwXpovhbQwAUj5mZV8xOA6yYNj0KYMU0gDhOFwSJvuLEBhzN/8tM/4h7lYkABECZAJpwOfU2DJouAAawGwCkwgmpiBsOV2sqw9HiJLrsl0xwibiFXghAAOiFpHHlUF/TctMFgKVKLecFkkF/wwbKtIHmFuO8IEo2BAEIAENg1b1QstQkTBcBQ2vKdAgYQSKKABtQxAYy5G77Hd0dHwo0FgEIAGPx1at06m16wnQB0IOzARRx3hB6GP2XaQPNz+vl61COiQhAAJgIdhm3ouHGT5Ol6rzpImBkbZmOASNAiAjYgPQ2YNv4zTLcGy6tFAIQAJVCvvj7Ul/jHtMFQG8DBABGh7AB2MBiNrC/eG+GK7hAAAKAi24oqBJk2/BbFYkCWNct9uPHZyAH2IDKNqC1/I+CHBi+xB8CEAD89cliNaLehp2IAiCkLH1IWWVCFantjpY9i/krfMY5AhAAnHfQgurRcONvkqX6nOkiAFEAjHJFIibU1Qx7nSbM/S/w0IL9CwEgWIctW7aM+hq3mC4AurEjAKNuRF5gA3NtoPkZ8bwnajwPAQiAeXAI8Q/LtkWW2inTRQDyApgxqsI9MHoXwQZiZL3uS0I4TFQyPwIQAPmx4fkT6lt5pekCwFJNpG0UwTmhjiBR2ICRNqA1r+fZP6JuBSIAAVAgUBx+jXoaOk0XAf1NcKxGOlaUDfvi3Qa0Fgt1VH2MQ5eIKhWLAARAsYjx8/3ZkwKrM6aLgBFsC8Rc8Ny5YLxWyB7Ok73lW/x4QdSkLAQgAMqCr+IX00BjE3UtJ1NFAJsKsDdjpMb7SA31g43qbgOtN1bc6aEC+iEAAaAflpUqiXrrT5kqADqXE/VhKkChUR+IVHciFTFq0tqO0H+lvLxB94UAMAhYE4ul3rpPkaUmZroIGL4GxABigA2oYQNhcrX9dxPdGm5lBgIQAGagbPw9qH/Vt0xPE9y1gggJgkCAahCgyv08TY7mHxrvxXAH0xGAADAdcsNuSAON15i/HqAGWwNBgCqTo/xtd7TcYpjTQsGVRQACoLL463136mt4x/SpAHZioCbinCbqjHUMsIElbGA7Szymt59CeZwgAAHASUfoWA3qbbCYLgL6V8o/EsJIH32slg2cofG2T+nomlAUbwhAAPDWI+XXh4Ybf5m6632mi4DBq0AQahEE+lve/raTs+2/lu+NUALXCEAAcN09JVeOBq74NeqpnTBfBFwNUpCXFNC3avTtGNmav1ay88GF4iAAASBOXxVbU7Jt+C3qqYmYKgJYUiJsDwRRqkGUMvbzBDla/qhYX4PvC4oABICgHVdgtWfSBXfX+k0XATg5UEZyQJvkFjY+srX9aYGuBV8TFYGgJ/G7Y2Oh/zU+Grny2cfPTL/5Sh/temuADu21zjwOH9To5GHHko8+i9fpdYWP43ExBqOu0HGfO3Rg3BvZ4R+LvhqcjD8bDSQei4bjD8ajyXvYIzmVuj0VT91q9CMT9d073bsqbqoIYNkCBzEdsMQKaxCq3IQqUv86yNr8FVE5DfWeg0AkEvmNMW/4Z2Oe8EMed3jvqCM04LIH/XZrIG0bniTrEB56YKAN+8ntCJFvNEwTvigFJqYoEoxRPJqkVDzF12MqTNODzeaeGcBEwMBqkZwg6gpCVtAGmrtoZOMX51AIXoqCwMRE8qtjnvANXnd4n8sRcNltgZQe5IYy5osku9VPHleIJn1RCgdiFI9wSPJLio4ETVvvNl8E9DXi8CAQq4LEKkSOgb1kXfsZUfhO+XpOeMP/7BuNPOF2BIdA9vNJWk/R4tKCNOZcKkQMAAAgAElEQVQJU3Byis8R/ZJknz8Ccc71AhFL48tG6GY9euqQMRAiACKAJxvQWu4lavuo8qTKMwBRb/Q3vaOha0edwU7HSCCjJ8mhrAsCwj4yO8L3T0QpMSXi6D4/4eeajshMthNZas0TAExoWKqIRtaCBHgiAdRFRXtMkNbyC555T+m6eTyhv/SNRl53acEg5uwvkLTegsWhBWjCF6FoOM7XfH0Zo/tcZJ/3vaiXpgc2mCsCmBBAwiAVSQdt5kFsaS0WbPPjUF5MuJNf9bkjj7odIZ/eRIfyLogIu80/E9qPBBUl/Rzi4pz7RaKuKnOFQE89kW0jSIEHUkAdVLDDadJaHiVP2yc5pD81qzQ+Tp8a80TucNmDkyDpCyStNxbaiJ/GRiMUDYH080UDMsEBmu67xlwRwEQH8gWoQD5oY2VF1gjZm/+nmizLYavHxkL/wPbO20cC5/UmO5R3QUiwhXyqzOnnI/Zi3z/neo7IUm2uEJiJBqwHSVSWJIC/fPinSWu5jVyrf4VDGlSrSkR0ybgvsg6j/QsEbYRYYWsmvO6wuvP6OUL8xYqAVNRH0yObiTrN3CmwgoidKKhhWgDJg4TYPse7YNpLzrY/VotlOWwtC/P7POG7nPbAlBGEhzJnBcVMmN8Tlm7LXtHkrYcA+KCMjN9C0/3rzY0GsJ0CyCDIO7mgfvxGC86Q1vx9DqlQrSoFg8FfZyv57bbAOZC0caN+RvwsOY8KW/cqJQYyE6doum+tyUKgenZ9gIbRICICsIElbYCt7rc3/zvRso+oxbSctdbjoU/63OFnHVYQv5HChxH/uDdCiZj8e/YrRfwL75vx99D08M3mTg2wiMDAKkwN8DviRDSgsn1zhByt/wLir7AQIKKPj41GnkSyHuNG+0xQ2Ib9NO4D8S8kZzP/T4fsdN52n7mJhFjmwv4mIts6EE5lCQf4Vx7/MDlaHiZ72zcqTHu4PUPA4wmudmj+uJEjXpQ9OZOLX8wc/MVl6TOTzMu7V4LOeXbR9GCruXkEumtnkwlpG0BGlScj9IE5fZAhe8su0lp/Tr41vwrm5QABny/8125HyApyNnbUz7bzIXEP5yJiKkznvG/R9GAbkaXGnPUCXcuJ2BZCllnQCjGw5DyxOUQFQaAfzhGyt7xB9pbl5F7/GxxQHqrAEGAL/Dzu8GEWjgb5G0f+LD8/O2K3vFEq58Sp46p9nnBiZw2c1x6d3UXQZZIgYPkL+ppmFw/aIAggCIRbPBgle8s+0lrbyN76Xept+zgYlzMEJjyxGoctmATxG0f8DFt29C5W9ssjXjLBoZkIAVs7MD2wkahnpfEJh7qqZyMEAytnRcHIOqQf1m90ipF+6VhOkb2lh7SWt0lrvZXsLT8hV8uf4GQ+zsh+bnX8/vjvsBP5QPzGEr9m9VPIH8OoX9LIwEVRiqif2O6CzNh7dM77NrFMhOedT84+tAfp/BKPmfUHRR9pvGJWfLC1BL31RH2NswsM2SLD/lVETDAs9hD9MCPHJjrne7WdXDe2kqN5LR4GYGBvridHSxXZW68ke+u/kW3j37FDeGik7dK5vILXAiDAjuPFtj5jiZ8JK99oGKN+VYhfp3aeG33TnPUGc0UGW+NQ+uivwtdeR5mgJSuwHYlE4jsCuGBUEQiYjwDb0+9xBg9h1G8s+WvDfgpOYq7/otGxTiQpc7kQAMXNc5/zH8mSf/Z5Oh1P38u2MZvvYXFHIMApAoGJ2D87bQFs7RsylvzdziDS94Los2RU9DMEQOEC4Nz4zsXwbU8mk1/j1B2jWkDAPATG3JGnMOo3lvgZviyFr8yjU7TN+EWMEACFCYDz3ucpFV8ya+ZUOpH+T/M8Le4EBDhCwO/3f9rjDHWD/I0lf7a9LxKIg/wx8i/bBiAAlhYA06NbKBUrfGFtMpF8FFMCHBETqmI8Ah5P6C+dtkAU5G8s+bOkPsjmZ/zIWJXoAwTA4gJg2nUXpaYCpQit9kQi8SXjPS/uAAQqjMC4J9xktwbOg/yNJX+2yj+Jw3tKcca4Jk+0BAJgEQHguIXSUV85tuPNxDPfrrB7xu2BgHEIjHkid9mGkNHPaPEz4YuU44hwbR4CVGWkn6+dEAB5BIDjBkqHrXr8bpKpROonxnlglAwEKoSAxxV63WjiU7182/AktviBvPUgopxlQADkEgDz9vrnxC2foMrz/nQqlmqrkJvGbYGAvghoGn1i1BnqU52cjW4/29+PQ3ww35+HVPQgJoIAuFgA5NjrrwvWqVjqcSL6mL7eGKUBARMRYCv9XfaQ12jyU718bcRPU+GEPo4HI2jgmMcGIADmC4Al9vqXb0eJ1HYi+oSJLhu3AgL6IBD1RS912YN+1cnZ6PbbrX6KRUD+Ro58UfZsZAUC4IIAOO99oZC9/mWLgHQ8fZCIfk0fr4xSgIAJCAQ8iS+5bIGI0eSnevl2G8gf5GzetAcEwKwAKHavf7k2mownD1OAPmOC68YtgEB5CIy7kl9xaoGY6uRsdPsdWoAS0SWzjZU9AinXeeF68wjaaKwhAFqojL3+5f4W2ylMny3PO+NqIGAgApOT8S847YEpo8lP9fIdNpC/0WSH8i8WLsoLAOet5e71L1cEnMR0gIEEhqJLRyASiXzOqQVDqpOz0e1nc/7I7ncxOYGwjcdEaQGg317/ckXAUSL61dI9Na4EAjojMD5On3Lbg+NGk5/q5bPV/jGs9i/XgeL6PKv8lxJR6goA3ff6l2WD6Vh6L3YH6ExiKK40BIaH6Zfd9pBPdXI2uv1sn/8UVvuX5TiXIjh8vngUQVUBcM5/lEe7e52Ifqk0r42rgIBOCLhdQYvR5Kd6+SzDH070W5ycQN7G46OiADg3votH8p+pUzKRfEQnN45igEDxCHjcwe2qk7MZ7Q9MTHHrhEC8xhMvLxirJgDM2utfTv8m48mm4j03rgACZSLg9YTuMIP8VL8HDvZRh2DLIQIzrlVJAJi917+M/jufiqf+rUx3jsuBQOEIjI9GLledmM1ov9cdxsi/xAVrZThUYJ4Hc1UEwLT7HkrFQiLZQSwdS3+jcA+ObwKBEhGYGI18zWENZMwgQJXv4dQClIwh0Q+InJ8IiBICoPJ7/UsVHg6K0OdKdOu4DAgsjQARfdxlD06qTMxmtJ2t+Ed+f36IDyJkti+kFwD87PUvSQSk4+l92BmwNI/hGyUi4HGF280gQNXvEQ7ESnIAICqIBiNtQG4BwNde/5L7MZa6qUT3jsuAQH4ExjwRLPobmiSjxcmEL1oy+ceiKZoIzj5Gx9Nk86akerjG0+SZSM08JgMp8gfxMAODQChNkWiKUu43iTqXm/uw1BDZL5zCZ9RrTvf6l+ILppOx5L/m9+T4BAgUiYDXG/4r28jktNHkp3r5bkdw0R+8fSxN7w+m6fUzaXriaIbuO5imze9m6KZdGbphR4batov7uH57hm7anaHb383QXftZ2zL04PsZeuRwhrYczdDWoxl6/BgelcSg68xb5pI/ExsmCACe9/qXGAkIxOPxLxbp5vF1IHAxAkT0UZc9GFCdnI1uP5v3n5vj3zOZpgN9GXrqWIbu3JuhG3aKS+65hMnNuzJ0x94M3X9oluQrSWy4d2HCSkYBIMJe/1JEQDqWfpeILrnYo+MdIFAEAh5naI/R5IfyJ2l8fIqOD6XpyWMZumW3XGTPBMCmnbOE/8Ch2RE9SLcw0uUJJ9kEgEB7/ReNDOYTCMl48uoiXD2+CgTmIzDpmfpPloYWBG0MBkMDftrRPkUPHEgJH8LPNcrftGs2evHQexnaivC98FMYMgkAAff6lyICkump9P8136vjPyBQAALshD+HLZAE+etP/oc7Q/TIQTlJn83ls3UJIH3xRvhLRRukEQDi7vUvRQR0EdHHCnD5+AoQuICAxx06CPLXj/yHByfpjZMx2rwnLfRivVwj/WyI/54DGdpyRD7iW4oYVflcCgEg+F7/fOH+Rd9PpNZf8Ox4BQSWQGDcE/6+bciP0L8O2/76BgK07Wicbtwl37w+I362A+G+QyB9FUSA+AJAkr3+eVI1LyICkqlU6g+XcPv4GAgsW8ZW/Tu1QBij//JG/0ODk/TSsRjduFPOET8TNGyrngrEhzbO9nPn2beF3gaY8R8tJYQuxTXJePIQEX0EHAcEFkXA4wo9D/IvnfyHhybp1RNsxC8n8bN8AyB+NYXPyTN7KyAAqnVJBHRuYpcURL7IKH/J9qUT6SsWdf74UG0EQr7E79mt/vMQAKUJgANnwnTbbjmJn4X779qHhDwqRwP2d5wxXwB0VZUtAGTd61+sGEjH02MUoM+ozXJofV4ERp3BTpB/8eTP5vm3vJeUcnEfI36Wl4Bl5FOZ/ND2DL15ym6+AGDZALXmkkWA7Hv9ixUBqXhqc14CwAfqIjDuDf8T9vwXT/5sH7+s4f7rd2ToXjbPjzS8ED/HMvT08QRR5wrzRYBtXUkCYNp9L6VioSVD4yWQqMhlppLJ5FfVZTq0PCcCbntwHKP/wgXAwECAHmOjfsFz8LMRfq4HS9X7KEb9IP4FCZyS3VebLwCGri5eAKi1179YQfJmThLAm2oi4HUHrwb5F07+R7tCdLOE6XqzQuDOfQj3I+Sf2wY8lnvNFwB9jcUJABX3+he5NTCTyPydmmyHVl+EgFMLhiAAChMAr5+IEQuNZ8lSpmfWrgfey+34QYjAhdnA+x3HzBcAlmIWAl5HmVBPsSNi5b6fjCffv4gI8IZ6CHg84WaQ/9LkPzwwSY+9l5KS+JmIYfv6EfIHyRci9DKWJvNFwPC1BUUBNNtRSsZSyhF6KesYEonEd9VjPLR4HgJOeyAKAbC4AOgfCNDde+Ul/1t344S+QogP35kVSMOdz5gvAHrqlxQAXT27Z9Zs7OpO01QUIqAAUXB0HhngH7UQ8HmCm0D+i5P/md4QMYKUKdQ/ty2b92JvP4i9uMjHsyfCdL6r1nwRMJJ/N4C1/yV6/Fj6w0Wbb3ZmKBxJIxKwxNqA5FTy+2qxHlr7IQIuLRCBAMgvANq7QzO57ucSpkyv72Dkv2CVN8iwODJUFa+OM7vMFwDdNURay0WRAN/gFnrqeOJD8s/2yUsdGfIHEQlYLBKQjqcPfkgIeKEOAuOjkctB/vnJ/2R3UGryx0p/EH2WKEt9nureaL4IGFw9TwAER+6lbSciF5F/tk0vdqRpEiJg0UhIOp7+a3WYDy2dQcDlCIxCAOQWACctQWkP8WERDJbSN+sg8QwsSrWBF0746ZylwVwR0LWcaGTtjAhI2G6lV06NL2nLz7enEQlYfCrgBdCiQgiMe6J/B/LPTf4dPSFpj+5l5H8HyH9JwiiVEFW8bvupIZruqjZZBFRRcuR6eqPdXXBfvtCepkAIawLyTAecSyaTv68QBardVI8rhJz/QxcLgLO9cof9b8ecf8GEoSKZl9rmvR0WOm8xb1EgExwHO04V3ZevnM5QGLsDck4HpOPpu9RmRUVaHw6HP6sN+6cRAZgvAAb6A3TbHnlP8rt1D0LdpRIcrlvadthBQRlLo+GRACY0dp/qLZr8s33IdgfEprAwMEckIEhEv6IIDarbTN9oZCvIfz75Dw9N0r375N3nf9MubPXLEgCelybzUjF69kSEfF13EbF5enaKn86PqGUjvXzCVzL5Z9u1ry9NycXnxHOOknOQplzfS6R+oi4zKtJylw1b/xYKoMclPsr3hh0ZegyH+pRNGlnywPPSAuJQx0lKWa7STQCwUX/n2Xd07cMOG9YDLBQ02BIouQgITMT+eSH5qf7/O+1T0p7ox04qfBC5/XUlDgiApQVAFqMjHYcp1r2+5COEWcrhvrMv0VPH47r34RPHMqT5IAIWiIDpZDL5FclpUN3mjbqCZ1Qn/LntZ9v92AhZpuQ+c9ty94HCnXXWaeMZmOltAy8en6Dezpcp3H3dB+sEVuSMDkx31VCi+1pydD1Ce9q7dSf9he3adjJDgRDWAywQAbeqy5ASt5yIPmq3Bc7NJUCVX7N5/80SL/q7hS36OwoyW+j08X/lbeLJY0l686SddrQP0u72HmJbCZ85HjWc8HP1/TtdGUrg8KC5axmcRPQRialQzaZ5PMFVKhP+wrbLPO/PjvV97EjlHX0uh4v30C+82UA71gPMFQCUjqf/Rk2WlLjVo85gz0ISVPX/A2ci0ob92RTA/YdAMryRDOrDr00+eTxDnklMBWSnApATQDIhQEQf10b851Ul/LntHhqcpJslPt0P+/35JRqIAH775rUzmArICoBUPDVKRJdIRoPqNsfrDl49lwRVfv3E+0lpR/8zW/4Q+q/IXDLInV9yL7RvTmvYFZAVAZlE5m/VZUzJWo7V/7OJf05YgsTmx+eulJfp9T0HxXfChTprfA99rbcNPHUCuwKyAiAVT2E3gCw6wG4NpFQe9WfbfpfE2f5u3AVC0JsQUJ56NrW3D1GAD0RApyz8p3Q7xj2Rv80SoMrPu09HpR35sygGEv6oR1YQKMb0uXMcCwJT8dR0PB7/gtLkKUPjfe7wCyoTP2v7yNAkscVxMoX757YFC/+MIQIQrJq4sgOD5oTClX2dTqSvkIEDlW6D2x7yqS4A3joZk5b8mRB46H01HTUIGv1ulA3YkCaYCZ9XlCZP0RvPsv9pI2of/Ts8OEm3SLzt7zYc84tV/8cgBPQWAm+cRRQgFU9NIiugwCrA741epvzo/9QURv8gCIgE2EDRNoAoQIpSqdQfCEyBalcd8/9y5/tnCY30HvmgPGAKG5i1ge3d2BGQTqSvVJtFBW692x7UVI4AHDoblnr0/wCO+oUAwsjeUBsYVT1FcCz1hMAUqHbV7VZ/RmUBcN9+ebP+bdqJkSpGqrABo23g0IDyUYAhtVlU0NZ7vf6vq0z+3X0BqbP+3b0fzt9o54/yYWMsO2A0qnRegGkK02cFpUF1q+3zhNarLAC2HYnLG/7Hcb+Ghn1B/CD+uTbQ7VJaAFAikfiOukwqaMu97uDbKgsAmbf+IfEPCGouQeG1sfbwluKJgZLxZJOgNKhutd2O4IiqAuC4JSTv6H97hu7FoT+IAGDxn6k24A+qGwVIJpJb1GVSQVvutAXiqgqAJ99PSC0AtuDIX1OdP0bYxo6wRcD3jNpHBZ8QlAbVrLam0SdsQ35SVQDIHP6/BZn/QP4Y/ZtuA4qfDzCFjIACaQmVTwDs6JE7/H/PAYzGRBgxoo7y2Wk4ou6WwFgs9nmBKFDtqno8wVWqjv5fOi73wT+PIvxv+ugPZC4fmZfSp/1udQVAJp75ttqsKlDrfaORx1UVAPfsS0k7/3/jznRR5LenvZsGOp+nMcudFLOsp7RlFZ2zNNL5rrqZxzlLPaUtK2c+G7dspoHO52hveyc9cSxV1H1Kcaa4xmxSTdG+jrM0eHYbjVlup1g3s4eVdM7ScMEeupg9rKKp7o003nUH9Xc+T8yGnjhWnN3J2rf7+9UVAKlE6icCUaDaVfU4g4dUFAAjQ5O0aUdaWgGwee/ipPH0sSnqOvsWRS3NNG2pIepcXtJjuquagt030cEzZ+mp4wmIAUHn3J89EaGes6/OEDrr03Lswd99K+07001PHksqaw/PtystADaqzaoCtV7VLYDHu+We/8+3/W/7qWGa7LqFynHyH5JDbwPRyFoie8vMI2m7mfp636aXT00o6/hFG9Huau+noGUTUVdVyaQ/Yw9dy4n65ttDwnYr9fTuoBdPTCppD4GQmtsBsRVQIAHgcgT9KkYAXjku99G/jx6eHwHYcWqQwt3XEXWuKM/Rs0gBI37r+g+JPysAss/ntetouO8VeuXUuJKOXwQRsKe9Zyb6Q4y4S4z+fHhdXyORbUN+e7C30WDfa/TSSbWEwMCoolGARGq3QBSodlUdNn9CRQHw8AF55/+v35Ghx4/OCoBnjk+Rq+sBoi4diL+7lmhkXV5HnxUA2efz9jbq6t6NqQGOpgW2HQ+Sr+tOfYRgkfaQ0W6gM937lLGHo8OKCoB4qkNtVhWo9XZb4JyKAmDzu/LO/9+8e5b893ecIbZ478ORWjkjvf5VBRN/VgBkn0PWu+nNdheiARUWAu+fPkbnu2rLtwcWNRhYTaTNTv1k+7nQ58DwffTaKa/09rC9W1kBYBeIAtWuqopJgNgCwBt2ZqRdAHj73gwNdz6jz6ifzQ2PXFsy+WdJ4Zx2PR3tPC690+c1/G/velSfUT+zB+uFdR/Z/i32OaNtovfPdkhtD8+dzFAqruQ6gKjarCpI68fGpn5LxdH/GakTAKXI23l7+aM8Fi2wVC86t1us02ff7+19G1vFTIwEPHk8QcHuG/SxBxbyX2SuvxR7YFNEj0u8dVDVhEBE9AlBaFDdao6NRr6togDYdzoq5ej/hh0J8neyhX46LOzqriHS8i/sKsXZZ6+x9r+k9BYxs6IEbKvnlGWDPvbQw8h/Y9mRoKwNzH0e7HtdWlHonlAyAkDxePwL6jKrIC33+SL/oqIAePV4XEIBkKKJs9fr4+wNJP+s4x/pf1lap28WwS92H5agieV40EcM1hJpxpB/1h76+96UcjpgUNGdAMlk8iuC0KC61RwfDf1IRQHwlIQnADpPs5XdOoz82RyvzmHerJNf+Nzdu0NKp78YMZv1WaD7Rp3sgU0DGUv+WbtgOwTMwses+5xW9WTAaOqP1WVWQVo+Phq5XEUB8NBBubYAHjv+qk7Ofvm8xD5Zx2zk83udci8EM4to5t5nZgGoHmKQ5YwoYttn+XbSOpNBcG5bRH99RNGtgOlY+huC0KC61Zz0RutVFAD3SnQGwFP7B8rP4pYli8HVhszxLkYMbDW4ClvCzCKy/R1n9dn9wWxi8CrT7SFlu4lePilPJskDip4JkIlnvqUuswrS8jFvZI2KAuAOSXIA3LAzRSnLKn1G/2yFd4n7uhcj+EI+mxh+iJ44jkOFyhUJTx+PzxzYo8tUUG+d6eSftRXv0FZpdgbsVDQXQCKR+I4gNKhuNT2ecLOKAuDWPXLkAOg89Yw+5M8SuyyS2jfrmI18PtZ1TLr533IJvdjrnV0P62MPLPRv0jqQfDb1XudpKezhrU41cwEkk8nvqcusgrR8zB1tUVEA3LJLfAFwz54xmu4s/dS2eaPE/qaKjfayBMBCv8+dCEnh9Islbj2+/8ZJhz6Jfljov4ysj9n+LPc5bruNWBprPbCpZBmvn1VUAEwl/1EQGlS3mqoKgJskEADa6Xv0Ge2x0b/BW7wKJYPOnj3CO/xKkc2k5Vad7GEFkdZccUHIbKbdckh4e3jlDASAugzLectVFQA37hT7HIDNuwL6HOc7M9pbyYWzZw4/rd1I205EhHf6ZouAV054pRr9ZwVjwnYLPXMiJrQ9vNQBAcA5DapbPQgAMacCetu36jPaYwKgwnP/WWeffT5leU9oh282+bP7ubvu18ceWDTIpD3/2f5e6vlo5wmh7eHFDjUPBEpiCoB/YQEBIKYASFua9HH43ZVb6Z3P8bOT4ipBoiLf87xeJz721nMTDcrah2/oMaHtAQKAfx5UtoYQAOIJgOcOWPQh/5l93ldz5/CZ43+j3S200zdTTBzuOKqfPQyv4dAeWunlU+PC2gMEgLL0yn/DIQDEEwDDHQ/q5/A5C/dmR32nu/cL6/DNJH92rzGLXimg+VkMmrWD7POJriPC2gMEAP88qGwNIQDEEwCxrmv0EQAs8Y+9hcuHZ+hxYR2+2QIgbVmpjz308DcdlLVPx8A2Ye0BAkBZeuW/4RAAYgmAG7fH9Fvt3Vf5vf9ZB7/w+Zx2PT11PC6s0zdLBDx/IkDEFu6x6ZxyHwP87AZZaA8p7SZhM0VCAPDPg8rWEAJALAGg6/z/EJ/z/1nn/2a7CwLgWGZRDA53HCmf+LPCYegaLqNBWXsQdR0ABICy9Mp/wyEAxBIAh4+9qZ/DH1nLtcM/ePbsouRn1iib5/sMdD6vnz1wth00S/zZ5z1n+oS0BwgA/nlQ2RpCAIglAIY6HtLP4Vc413vWsed7lvFseL3FhK9LpwWALArASTbIfPZwouswBEA8RSlBHsgDIICsgAAQSwC4z27WTwBU6OS/fA5+4fu9vW8L6fD1JvnFygt236CPPXSt4DoaxGxD1DTRiAAIQISqVhECQCwBMH52kzIOf6j/VQiAJdYARC3NOtlDNfcCoLf3HSHtAQJAVXYVoN0QAGIJgEBnq04Ov4p7h68NPC+kw19sxK73Z3HLOn3swcK/ABBVEEIACECEqlYRAkAsAeDvvE4fhy9AyNfa/xIEwBIRgJhlvU72wL8AGOh9Q0h7gABQlV0FaDcEgFgCwHvmZn0cPlv0xWkSoGy9BnpfF9Lh6z3KX6y8sEWdiFB3z04h7QECQAAiVLWKEABiCQDnmbv0EwCcnPmeJfyFz929O4R0+IsRtt6f+S036WgPfGaFzNqFqLtCIABUZVcB2g0BIJYA6Dr1tH4O37qO6yjAcctRCIAlpgCcXepsC33/bIeQ9gABIAARqlpFCACxBMDOwwf1EwDDfGd+2316QEiHr/cof7Hyzp7drp89cJ4Y6p0OTUh7gABQlV0FaDcEgFgC4ME9bv0c/sBqriMAL52cENLhL0bYen+2q71PP3sYvIpje2ilbSciQtoDBIAARKhqFSEAxBIAbdszdN5Sp4/T723g1uHHrJuFdPZ6E/zS5aVouqtaH3vg+HCo4Mi9wtoDBICq7CpAuyEAxBMAE53X6+Pw2VZATrMBDvchCdDS5D97UNBU90Z97IHjXAAiZ4WEABCACFWtIgSAeALg+PFX9XH4bCvgCJ8LAd/rFHPBV6Gkref3hjuf0c8ebHzaw74z3YgACHIGQPasApwFIICqgAAQTwBs3hUk6qzSx+n383cG/Dntenr2RFRYh68nuRdS1isnvESdK/SxBw7XhaS0m+ip43Fh7QERAAGIUNUqQgCIJwDYOgD9MgLylxIYGQBnQ/uFkH/2O+H4Lt8AACAASURBVLFueVMCi5oBMNs3EACqsqsA7YYAEFMAbH//fX1GfGwagLPtgLtODwo72ss6fbOfz5zZoZ89jFzL1eLQt9vtQtsDBIAARKhqFSEAxBQALAqQ7Fqtj9PvqeXG4Y8PPyK0szeb+C/cL00ZS6NO9lDPjT24B58U3h4gAFRlVwHaDQEgrgDYd2S3Pg5/ZjEgH6O+vWd6hXf4F0i5+FB+Odd2n31NR3vgYzHgjo4R4e0BAkAAIlS1ihAA4goAFgWY6rpWH6ffXVPxUZ93aCs9fiwtvMMvh8TLufaJYylKd+sUFequfFTIMbBNCluAAFCVXQVoNwSA2ALg6QP9+q0AH7y6YiLgvHYdvd4+KoXDL4fEy712f8cZoq7l+ojCocrZwzntBnpZkkyQEAACEKGqVYQAEFsAsCjAyOn79XH4LDGQdUNFRMDZ7r0g/yUO/ilUHIxZ7tDJHqqIbJWxh5OW96WxBwgAVdlVgHZDAIgvAG7YmaJ41xp9nP5M6LfZVBHAQv9PHk9J4/ALJWqjvvf08TilLav0sYeeetOzRboGn5ZqKggCQAAiVLWKEADiCwAWBWCHBJ3vqtHH6ZuYE57l/H/hZADkr9PoPysq3jk5rN8ZAQPmJYuKWu+gbSfCUtkDBICq7CpAuyEA5BAATAS8cLCTprt0yhBowslwae1GerPdJZWzzxIwD8/vnz6m3/oQE9YDJG230KunfNLZAwSAAESoahUhAOQRAEwEzCQI0ksEGOj0WbrfnaeHpXP2PBD/3Dp0nNmjjwhgCwuH1hg2NZS2bSLRE/7MxX3uawgAVdlVgHZDAMglAJgI2HH0uH7hXwMiASnbTSTD/u65Tp7n1ydOHyDSQxTOiAD9dwYkbTfTOx2atGIQAkAAIlS1ihAA8gmAze9m6N12C5231OqzJqB/lW4Lwdgc7+vtHmmdPa9C4GBHO01bdFojMrhat0hAeORueuXkmNT2AAGgKrsK0G4IADkFACOiF09MUMyyXh8RwFaD2zaW5fidA89Kt8CLV8LPVa/XTo5SwnKNPvbQ20CklbdbxD7wnBKnPkIACECEqlYRAkBeATBLAimydj6pUwi4qqSDg9hiv+NdR6Xa2pWLYEV4j2ULdHQ9oo89WKqJSjg4iIX8D3eeknrUP9cWIABUZVcB2q2qALhpZ5rYfLmMDzYFMNcBsdevn3RSxNKq0+iPRQPWFxANaCV2tC+2+V3cHwv7x+z/3z5lpSnLBn3soa+xoIRB0/ZWGux7jZ47EbrIPs1uv5n3e+l0hlLxlHKP5FTyHwWgQLWrqKoAuHmXnOTPBM1tOQRA1uHt6zhLke4WfdLFsnwB1ouFAHP0LNz/VrtTKUefxVik5wMdHRS1bNRJCDTlFALMHmz9L9Brp7xK2sOrZyAA1GZZjluvqgC4Zbe8AuDWPUuPOLefGiaP5V46b6kr3/mz9QHD11Bk5E46072PXj41rqSjF4n4F9Z1V3s/ebvuLn/hKNsp0DtrD6GRu6nDcoBeOjmptD28cRYCgGMKVLtqqgoARpIyhv9Zm24pQADMJQA2CrR3Pkpxy9qitg9Od1VTovtacnY9RGyV+ePHkM53Lq5ivk7Rex0nydn18MyCQdbHxI6LLuAx3VUzY0NsjcG+jjNKk/7cvn+7CwJAbZbluPWqCoA798q7BuCmXUtHAOY6qIWvXz45Roc7jpGl8w0aPPsc2TofJ61rKw2dfYYsZ1+nI6eP0Gsn3XDwOqfvXdgPvPz/ygkvHek4TN2dr83Yg9a5lWydzB6eJcvZN+j9jmP0ykk1w/uF9NGenrRy8/9szQPWAHBM/NmqqSoA7tuflDYCcMOO8gRAIU4N3wHGsIHCbODQICIAWb7BM2cIqCoAHjmYklYAXL8jQ1sVGZ2ChAojIeBUOZyOjSACwBntoTpZBFQVAM8cTkgrANg6gC1HK+fwQDbAHjZwwQa6HBAAWb7BM2cIqCoA3jgZk1oAPPz+BQcEZwwsYAOVswGrFwKAM9pDdbIIqCoADp4NSy0A7j9UOYcHsgH2sIELNuALqJcECIsAswzL+bOqAsDSH5BaANy9/4IDgjMGFrCBytnAVBQCgHMaVLd6qgoA69AkbVIsHTBIoHIkAOzVxF7VNMCIAAiiKVQWAHe+K28ugBvLzAUAwlKTsNDv+vb7nl415/8hACAAiI2yeX5seU/eXABsJwC2AurrzEGOwLNYGzhlgwAQhArVrKbKEYC3T01JvQ7gIewEQLZC5IOoqA3YfBAAajKrIK1WWQB09galFgD3HMCIrdgRG74Pm9HTBiKKLgDEFAAEANfh/+zUBMubL+uhQIsdC6ynk0NZIE3YwMU28JqixwAz8ocAgAAQQgA8uF/elMA4E+BipwyiAiZm2cDhIXXD/xAAEABCCIC3ZM8IeBgO3yyHj/vA1ubagMrz/xAAEABCCIBeJASq6CKpuQ4Tr0GgstjAUycypGoCIEwBCEL+rJoqLwLMrgO4XeJ8ADfvBqnIQipohzi2vKtb7fA/IgCCiAAIgEl68ZjcBwM9imkARDmwHdBUG+hzq5n+Nzv6hwCAABBiCoBFAbr6cC6ACKPLrUfSdMuTGl298TjV1uyh5T97h6746dtSP1gba2vepTUbT9CtT9pp69G0qUQmgl3wVscnj2dI5e1/WRGQnEr+oyA0qG41EQGYzVZ4h8TTAGyrI29Ostj63PP6BNVU7aaf/fBVpR+11Xvonjcmhe/PYvtfpO/v6UH4HxEAQTQFBMCsAHj9hNzTAI8InBXwjhc8dPn/eUNp4p8rfH7x4zfojpe8EAGcTmuMeCEAIAAgAISZAmDTAEODk8T2zcuaFOj2vWJGAR7aE6YrfvoWyH9B5OOK/3ibHno3AhHAmQh47lSaEjHM/0MAQAAIJQCYCHjskLyHA12/I0Nbj4onAq657hTIfwH5Z6MBa9tOQQBwJgBOWDH6xxoAQcifVRNTABdOLDzVLffZAPcKdjbAY+8l6Bc/Qug/S/gLn9m0CDvRUqT5cZnryhb/BcMQABAAEADCjf6zOQHulTg18I07xVpBzub+F5Ie/p+/CPIurAXgRgAdGgD5Z8kfUwCCiABEAC5EAJgIOHQ2LO06ALa+4f5D4kwD3LzFCgGQJ/yfFUK3PG7jhgBlHt0X0jZfAHP/EACCEH+2mhAA8wUAEwF3Srwl8Ea2JVCQtQC3PGmHAFhCANz2tAMCgIN1AHt7MfqfS/6IAGQZlvNnCICLBYD0UYCDYkQB7n1jAgJgCQFw31t+CAAOBIDPj9E/BADnZJ+rehAAFwsAFgW4e5+8xwSLkhiI7VpY8YsdEAF5RMCKy3cKubOjkHC6SN/Z14fR/0LyRwQgF9ty+B4EQG4BcMIi+Y4AQaIANzw4CAGQRwBsengIo/8Kj/7ZqX+TQYz+IQA4JPdCqgQBkFsAsCjAowfljQKwpEdbjvA/FbDlcIoaVx6ECFggAppWHSJ2NoJII2UZ63oS+/4pF/kjAlAI+3LwHQiA/AKguzdAm3akpd0VcKcg2QEf2T9FDY37IQI+EAGNTQeIYSIjoYrUpufb0zQVxegfAoADIi+1ChAA+QUAiwK8cSIurQBo25GhhwU5I2DL4SS13NlNl//4TWWFwBU/eYta7+qhrYdTIP8Kh/6ZUEHO/8XFD04DLJWVTbwOAmBxAYAFgXxNE7DMd5ufdVHbvX208bYuJR7X3dtPm7e56LH3kfWPlwjBXiz8yxv6z0YEIABMJPJSbwUBsLQAON0doht2yntQ0F37+SJ5Xpw86gG7yGUD205mKISUvxAApZIuT9dBACwtAFgU4E3JjwsWZSogl0PGeyBqM21gyINtf9lR/mLPiADwxPR56gIBUJgAYCLg/v3ynhZ4484MbREkQ6CZzh73griYawPvD2aWHPkuRooqfQYBkId0eXobAqBwAdDXH6Cbd8s7FbD5XTj7uc4er2EPc23gtTMZik0tvvBNJYJfqq0QADwxfZ66QAAULgBYFOA4Ww+wQ14RINqRwXMdNF6DsI2ygWdOZmgCh/0UFf2AAMhDujy9DQFQnABQYT3AQ4JsDTTK2aNcCIm5NvDEsQxZfZj3X2rEv/BzCACemD5PXSAAihcATAQ8dTghbX4AtuPh0cMggbkkgNfq2sNZO8h/IbkX8j8EQB7S5eltCIDSBAATAQ9LnCoYiwLVJTyInQt9/94AFv0VQva5vgMBwBPT56kLBEDpAmB4aJLu2ivveQG37M7gtDkOMs6BkC8QsplY7OlNUyKGRX+5yL2Q9yAA8pAuT29DAJQuAFgUYHDAT3e8K+95AbcyEQASROpdxWxgR3ea4ljxX9Siv4WiAAKAJ6bPUxcIgPIEABMBbHvg5j3yioDb9iASYObIE/eqzIg/i/t2C7b7LSTzUv6HAMhDujy97fGEmxmJ4VEeBv2DAbpT4kgApgMqS0pZcsKzsf2wvRsn/JVC9rmuSSaT3+OJ61CXHAiMeSNrQP7lkX8Wv4H+gNxrAhAJwFSAxFMBbM4fYX/91jxkEpn/kYNy8BZPCIyNRuuyBIbn8oUAWxgo8+6Am3Zl6DFsEYQQkEwIvDeYwYK/uH7kzyIC6Xj6b3jiOtQlBwLjo5HLQfzlE/9CDJ87Eqc2STMGbtqZoUcgAiACJBEB7Tbs888Vwi/3vXQs/Y0clIO3eELA741etpC88L8+goCdIHi9pCKAteuBQ8bOx2K+G/gaaQPPnkCGv3JJftHro6k/4onrUJccCAQmYv8MwteH8HPhyM4OkPkAoTv3gqSMJCmUbYx9vXImQ+PI7V/WNr9FyT+eomQy+d9zUA7e4gkBny/817mIC+/pJwrYNsEHDkicMGgP1gWAqI0haiNwZdn9cKqfvvP9ucRALBb7PE9ch7rkQCAcDn8WZK8f2efD0mUP0v7eDG2SeErgfkwJYF0Ax+sCWMh/cBTz/bnI2oj3iOjjOSgHb/GGQD7Swvv6CQOHLTATbnONZ+je/fIeJ7z53QxtOSrOaNCIESbK5K//3+1NUygM8jeC6HOWmUiFeOM51CcPAnar/xzIXj+yz4WlNuyfN9+2l0UDdsopBNhpgiwagBTC/BGhauLk+fY0DXtB/DlJWudtfwvuYc1DN3ibNwSctkA8F2nhPX1FQXLBwSLBUIqeOymnCGjbnplZ/PgwtgtiWqAC0wJPHs/QkWFk9VtAyvMGIQZ/dpI3nkN98iDgsgcnQfb6kn0uPBNTyZw/wBFPiu47KOlZAjsydPteLBJUbeRdyfbu60uTP2j8IjeDCTSnrxDmnonUzjx0g7d5Q2DUGRrMRVh4T19REA3FF/1R97tT9ICkQoDlDbiDCYEjCItXkhxlvjc7wc/rB/HzIBKSieQjvPEc6pMHgVF3aD/IXl+yz4VnyB9bVABkf7jdzhQ9cEjOiMCMENiXoUcxNYCpAR2mBlio/0B/mnwg/oJ8S9bHmPC8Ng/d4G3eEBjzRB7JRVh4T19RMDkWLepHah9L01PHJF0suCNDt72boYfey9Dj2DUAMVCkGNh2Kk3HR9IUCGGBnwlkXpTf+qA+P+KN51CfPAhMeqP1IHt9yT4XnmOjkVJ+SDQVTRHbNXC3pNsHN+2abRumBzA9stgUBRvt7+pJ07AnjYN7jF3BX5KfmitE0vH0N/PQDd7mDQGvN/xXuQgL7+krCkadwbJ/WL5Ait7uTNFd++TcPXDzrgzdcyBDjx5JY1Rc5Kh4MfIU9TNG+jt70tTrTlEkivn9uSTL82uK0m/yxnOoTx4EiOij1mF9yQ7i4WI8s8mA9PrhBkIpOtA/u8JexvMGbtyVoTv3ZejB9zK0FdMEyggilqf/8ODsQT0s+qXX7wXlmIRlIhUioo/koRu8zSMCTnsgCtK+mLT1xiTfVkA9nJNvMk0H+zP0zPEM3bM/QzfulGsh4U27MnTHvgzddzBDLL8ARIH4UwYvdqRpd0+aTljTZPWmKRwxiaQ4D6Hr4Q8qVUYynnyfR45DnRZBwO0K9etNdijvYkGx1FZAvX+048EUddlTM+cQvNyepieOsIV36RmBwNL23ronQyzsLuRjd4Zuf3d2yoAtJtxyJENPHsvQMycytO1Uhl5oz9CLpzP0Eh4VweCNsxl6qzNDu7rTdGAgTUeH03TWPjuH7/GnKIrRvZTRjWQ8+eAiVIOPeETA6468AsK+mLD1xiQwUdxOAL0FAcrDCBM2ABsw0gbSsXQNjxyHOi2CgMcTXKU32aG8iwXFmCcspeo30qGgbBAWbEAcG8jEM99ehGrwEY8IhJzJL4OwLyZsvTFxO0IQAJh/hQ3ABmS1gfNE9GkeOQ51WgIBuy2Q0pvwUN58UWEb9tPCQ4EwuhFndIO+Ql/BBhaxgUTKsgTN4GNeEcCZAPPJ2ijxYvZCQDisRRwWRqKyjkTRrgrYdjKRfJhXfkO9lkDANxp5wijSQ7kXxIV/fArOqQLOCUIIQgg2YLANJFL/sQTN4GNeERj3hL8Por5A1EZh4XFhHQAcscGOGAILIrsCNpBIJH6PV35DvZZAgIgusVv9540iPpQ7Ky40qx/OqQLOCaIDogM2YKgNeJagGHzMOwIuR8AFojY+ChALJyACIAJgA7ABmWzgWd75DfVbAgHfaORxCADjBQDWARg6EpHJqaItEAli2EAi9ZMl6AUf847A2FjgTyEAjBcAbh1OBkQ4EyICNgAb4MQGzkej0Ut55zfUrwAEHFogDhFgrAhg+QCMPBiIE6cgxsgFI0z0E2ygXBs4UQC14CsiIDDqCh2DADBWADB8w4FYuT86XA/HDRuADVTeBmKpNhG4DXUsAAGfL7ICAsB4AeAbjVT+hwvniT6ADcAGyrSBdCz9FwVQC74iAgIfbAfMQAQYKwLsI0gLjKkKzGHDBoS3gREReA11LAIBjyt8CgLAWAHA8I0E4xh9lDn6AIEITyD4DYj8G4ilbiyCWvBVERAYd0d+DgFgvADwjeJ4YBA4CBw2ILANTKX+RAROQx2LRMBhDaYhAowVARpOB8ToT+TRH+quuv0OFEkr+LooCIw6g0cgAIwVAAzfEHYDqO5E0X4ICTFtIJFqEYXPUM8iERj3RP8OAsB4ATDqxOFACAELHAIGeYtJ3uX327lEIvGlImkFXxcJAZc9OAkRYLwIiEeTqjoRtLt8RwwMgWElbOAdkbgMdS0BAZ8nfBcEgPECYMIXrcQPGPcEccAGYAOl2UAs9b9LoBRcIhIC4+P0KftIAEcEDxkrAuw4Irg0JwTnDdxgA5WwAS8RfUwkLkNdS0QAqYGNJf9shAWpgTEPjrUQsAEhbCCWuqFEOsFloiHg8wX+2DbkpyxR4dkYQeB2BCuh5HFPjCBhA7CBYmwgOTU19dui8RjqWwYCbmdwGMRvDPHPxTUaQmZAIUZAIIxiCAPflchekonko2VQCS4VEYHJsdgP5hIVXhsjBrxuZAaEAEAYHDbArQ1Mp1KpPxSRw1DnMhFwOYITIH5jiH8urvEItgSCALglAIzmJRrNl/A7e6tMGsHloiIw6Ys2zSUqvDZGDPg8iAKU4JhATGoTE/rfhP7PxDPfEpW/UG8dEHA5gn4QvzHEn8XVNjxJiAJgBAwRBBvgygYSqR06UAiKEBkBnBJoLPlnRcDYaAQjGhNGNFw5WLQXNs+xDaTj6W+KzF2ou04IuO3B8SxR4dkYQcCiALFIAg6RY4cI8YARukI28IZO9IFiREdgzBP+DxC/McQ/F1ffKNYCKORgIfYg9ni1gfOpqdSfis5bqL+OCIw6QtpcssJrYwRBNIy8ABABGGnDBipoA7HUEzpSB4qSAQGPJ/QX1mFjSA9i4gKuyA5YQceHESmvI1LUyzzbjMRisc/LwFlog84IeNyhAyDrC2RtFBYhfwwOzzyHB6yBNWzggg2s1Zk2UJwsCITD4c86RgIZo4gP5c6KC3ZSYDKG5EAIAyMaAhsw1QasRPQJWfgK7TAAgXFP9G4QtfFRgAlfFKOSC6MSYAEsYANG20As9QMDKANFyoaAyx7wQgQYKwJsw36KhbEtECNAU0eAIFmjSZbf8l+TjafQHoMQGB8N/rk24p+GCDBWBLgdIThkfh0m+gZ9I4cNxFLheDz+BYPoAsXKiMCYO/IyBICxAoDh65/AVACiAIgCwAaMs4F0LF0lI0ehTQYiQEQfdWj+CESAsSJAG/ZTPIoFgSAA4wgA2KqLbTKefI+IPmIgVaBoWRHweoPfxVSAsQKACSy3MyhHqBEhY/QjbIAnG4gmk8mvyMpPaJcJCIx5Ik8hCmC8CPCPT/HkOFAXEBlsQHAbSCfS/2kCReAWsiPgdgSdEAHGigC2K2AKaYJBOoKTDqYbuJlueEV2XkL7TEIg5Ev8nsOKBEFGiyCnFkCCIBAgRBBsoFwbcFGYPmsSPeA2KiAw7guvZEfaGk2Cqpc/Nhop98eP60EgsAF1bSCdiWf+bxU4CW00GQGvO/i26gRtRvsDE1gPgFAyN6FkiAmBxEQynmwwmRZwO5UQcDsDWA8wZGwkhK0HiIZwbDBEAEQAbKAoG3hOJS5CWyuAQNQXvdRhDSTNGAmrfA92YFB8CvkBQABFEQBG6wKN1nW17UTKQkSfrAAl4JaqITDmCX3PNjKJVMEGRwJYfoBkDASgq6NUlSDQbmnFUTKenEgmk19WjYfQ3goiMOmN1rNQtcqjdDPa7hsNS+u4QOwQd7CBsm0ggUV/FSRClW/tc0fvMYMEVb/H5BjOCwBRlE0UEJLyRUGmU4nUT1XmILS9wgh43ZH9qhO0Ge0PTmJnAEQARABsYI4NJFLrKuz+cXsgsGyZ2xXqN4MEVb4Hm26JBLEzAAQwhwDkG9EiSlFgnyYTyYfAPUCACwTYyYGjjpCmMkGb0XbbCEQABAAEAGwg9SwRXcKF80clgABDgIg+7nIEXGYQocr3YMcHR3FmAEaKBY4UQZbSCaY32IALrAMEuENgfJw+5baHxlUmaDPabh8J0FQ4ARIECcIGFLKBdCz9LhH9MneOHxUCAlkEIpHI51z2oN8MIlT5HprVTzGIABCgQgSodDQjltpDRL+S9bN4BgLcIjATCXAER1UmaDParo3gCGGlSQHkr4oAfIeIPsGtw0fFgMBCBNiaALczaDWDCFW+B1sTEMG5AaoQAdqpnuh5nog+ttC/4n8gwD0CMyLAERxSmaDNaDuLBGCLoHSLvUD26pH9vD5PJpKPYrU/9zSHCi6GADNgjzN4yAwiVPkeLE8AkgVBBGBKRAobmE7FUm1E9JHFfCs+AwLCIOAbjWyxDRt7jK7KAiDb9glfZN4oAoQgBSGgT9WJBqTSifR/CuPYUVEgUCgCXnfwam3Yj1MEDT5FkB0ghFMEQfwQf8LZQCCRSHynUH+K7wEB4RDwjUb+1T4SSGdHrHg2JirCjhKOTyUxclRn5Ii+Fruv+1Op1B8I59BRYSBQLAITE7HPux1BN8jfGPLP4mq3+imKHQIgRrGJUYX+e5sC9Jli/Si+DwSERYAtDvS6wzuzZIVnY8QAWxwYmMBJggiHCxcOV4H4z32w2A95/YVlMlS8LATGPdGNdmvgPASAMQIgi+vYaISSMUwJQAhACHBiA95EIvH3ZTlPXAwEZEDA6/V/3WUPjmXJCs/GiAGHFsBBQgiHqzCy5ruNsdSeWCz2eRl8N9oABHRBgE0J+NzhZ0H+xpB/Fle2FRNbBTEK5mQUzDdR6y8WE8l4ciX29+tCGShERgTGXNF/d9j8iSxh4dkYQTCzSyCKKQEQIcSQSTZwOpVKfV1Gn402AQFdEdA0+oRvNPK2FYmDyEgBZBvx0+RYVLVRGNqr/8gWmObHNP7BQr+P6+okURgQkB0Brzf4XZcDRwsbKQJY2W57kKZwtDBILD+JAZsSsEnGk+8nk8mvye6n0T4gYBgCM2sDXMFn7VY/dgoYmEGQbRec8EWxU6AER29SCBkkLEjfpOPpsXQifTnm+g2jBRSsGgJBT+J3va7wcUZURo+IVS6fJQ9C3gDMi0PUlGQD6XQ8fS+S+qjGTmivaQj4/VP/4HIEXCqTtBltd9mDFEEWQYy6BRl1V1qwpGPpvVjkZxoN4EaqI+AdDa112gJRM8hQ5Xt43WGKRRIgQhAhbCC3DRxNJBL/U3V/jPYDgYog4B0NXeu0B6ZUJmkz2u5xhSAEchMAiFFNXLpS8dRlFXF6uCkQAAIXEGALBcdGI7c5tUDMDDJU9R4siRBLKYyIQEnzwxAKcgiF9mQs+a9Y4HfB/+IVEOAGgbHRaJ3LEfCoStJmtXvUGcIaATkIDcJk6X6cZnP8yVjyX7hxdKgIEAAC+RHwjUb+1e0MDtqGsGvASFHgdgQp5I+BRJYmEWAkHkbxZCK5JZVK/WF+T4NPgAAQ4BYB/2j8i+yMAactEDeSCFUvW7P6adyL6YFKr0bH/XWYnomlelPx1FqK0G9w69hQMSAABIpDwO+dunzUFe7XRvzTqhO2ke3PRgVw/LAOZCTeqFnUSEcwmUg+mo6l/7I4r4JvAwEgIBQCRPTJcU+02e0IWSEGjDlsiAkMlrSJrRVgUwQQAxADHEYnYql46h22mp+IkKtfKC+OygKBMhHw+/1fHHX6X3fZg2k2atVGsF7AqMiANuwn32h4RgwkpnAKIYdkKOrIvah6M9tjmS4nxqLBcU9k6+Rk/AtluhFcDgSAgCgIjI+P/7ZT8+/RRgLJXGTnsAWIiQGXFiS27S3Xd/Be+bgwfCd8EYqG40U5cBAnIgnF2gCzMXbqJftdL/ztskXCLnvA63NH7/H7/Z8WxY+hnkAACBSBgNMZrnfYAqPWoYmLnMBCp5D9n0UEnFpwVhDYmSBAhCCLjZ7PDGe3c1YQRAJxTBdg3r9kUZicSlIkOEv4bPqJRZ4KtVVt2D/tcYb7fKPhHxfhWvBVIAAEeETA6Qx92WkLdtiG9TlJkEUEnB9ECBhhsVEspg3KjwYsdNBMaLEjilnSIf9EVYCSqQAABj1JREFUlCLBGCVimDYoduQr+/dZOJ8JRv/Y1Mz0EhPrC22p1P9ZdlHfaHhb1Be9lEffhjoBASCQBwGXa+J/2K1+e6k//mKvy0YKXI7ZaAEjL5cWIHayXjEjkGLvq9r3GZ5MeLG1BOzo4uDk1MxoLx5NImogYdSAjebjETaij83O2/siM33vdoRME95skfCoM9jp9Yb/Ko+7wdtAAAjwgIDbHfyFY8Q/wRsxssgB2yfP1hc47QFiJ+2xB5uTZGJh5pEVD3iexaUkHEIzuw7YAUbe0dAMWTCxMOYJ05g3MvNguQrwqDwGLLrDHqx/2DkT7MF+D84PhDNv023sN8x2DU2OxX7Ag69DHYAAEPgAATZn53YEx3gjftRH/+kBYApMK2UDLJo37omwaNP29FT6z+CAgQAQqCAC497wPzFVntMhDMJR5sRlCLgAF9hAMTZgt/lndhEsWIcynYqnXk4mk1+roAvErYGAegj4/fG/Yat1sU0PjrwYR47vwl6KsQE2JVHAORfnPxACX1bPE6PFQMBEBHy+6KWjjuARED8ceTGOHN+FvRRqAyzMz9YmTIUTxW5FTKfj6XuJ6NdMdIm4FRBQAwGfJ7jJMRLIFPpDxvfg9GEDsIFCbIANKC6krC470ZI7nUj/TA2vjFYCAYMRGPeEv+9yBLlb2V+IY8F3QECwAT5tYCbXhDNI/vEpMiI1dTqePpiKpv7YYPeI4oGAnAiMj9OnPO7wYYT7+XSgIDb0i2g2wML7bLshyx9hBOnnSLyUTsVS1xPRx+T00mgVEDAAgXF39IdOWyAumoNBfUGKsAF+bIANHli2Tpb3YTbFdNnh/WLXBcx+P5HqTsfSf2GAq0SRQEAeBDSNPuF1h3di1M+PEwWhoS9EsQGWKZKN8Cd90Q8In6v00ZlUPHUrjh2Wh6/QEh0R8Pki/69D82PUj336uuVzF4W4UM/iRBYL5bORPcv4yFJChwMxs0L6pUUA5qdpPpNKpf5AR9eJooCA2AiMecIP20b803CExTlC4AW8ZLMB+4ifHBo7kns2PbDPM0vygYnZcx9MmrvXg+gXKyOaSqR+KrbXRu2BQJkIBIPBX2cHbcjmxHhrDzusiDlQdi46HsCABxuIRRLEHvGpxMxJj0k1T3t8hog+WaYbxeVAQDwExjyh7yHkb/wIlo2kElGu5kIXGxnhs/nhYuAhOx6xVG8qmvoj8Tw4agwESkTAOxq8nh2zydtIWbb6sFPwkrEKrXyW3XGjfRAnetlALBVOxpL/VKI7xWVAQBwEfO7ws1jlb/zInyU4ybEvGe/p5bRRDmxJXxs4l4qn1orjyVFTIFAEAmyL36grZJFtlM1be9h8P1sVDfJH5AM2IJ4NJBPJLUgcVASx4Kv8IxAaS/6+yx4M8EaWstXHYQtQrPhDTCAW9B3JAU/gWZYNpGPpvRSi/8K/Z0cNgcASCIyNBf7UYfMnZCNb3trjtAWw2A/EUxbxIGLAUcQgluqNx+NfWMK94mMgwC8CY6ORb9utgTRvZClbfVz2IMWnsNIfBMYRgUGM6SHGbMlk8sv8enjUDAjkQWDcG/4nu9V/Tjay5a09bkdQpCxoejhFlAFyVckGPDhVMA/J4G0+EfD5wj+xWwPneSNL2erDzjBXNIGKSgSAtkLw+NPx9Df59PaoFRCYgwAjf+zxN36bHzv0BHv8EfLGtIcyNhBMx9J/PsfV4iUQ4AuBcU/4+9qIHyN/gw/0cTuDGPljVIjIgGI2kIwnJ5A1kC/OQ20+QMDnC/293RbAnL/R5O8IUhIL/kB+ipEfIh2zkY50PO1LJpNfA/EAAW4Q8HrD37Rb/RnZ5th5aw9b7S/JaWggcBA4bKB0G3AmEon/xg0BoCLqIjDpifyBfQRb/YwWCzP7/NU8MQ1EUTpRADt5sRukCH1OXeZByyuOwPg4fcqlBYNGk5/q5bP0vvEI9vkjDKzMgjcIlwKESzKePExEv1xxIkAF1EOAiC5xOYI21cnZ6Pbbhv0UDcXhEAtwiBAIEAgK2sBLRPQR9RgILa4oAh5n8D2jyQ/lT1JwEqf6KejUIfgg+Aq3gViqraJkgJurhYDHHb4H5Gz8Xv/JsWjhTgAOE1jBBlS1gel0Iv2farEQWpsLgf8fa3LasldbU3IAAAAASUVORK5CYII=;fillColor=#182E3E;strokeColor=#FFFFFF;fontColor=#FFFFFF;" parent="RByCtK4DOyFTz49GX1wE-48" vertex="1">
          <mxGeometry x="462.1510791366907" y="20" width="116.73381294964031" height="116.73381294964031" as="geometry" />
        </mxCell>
        <mxCell id="RByCtK4DOyFTz49GX1wE-45" value="&lt;font style=&quot;font-size: 20px;&quot;&gt;&lt;b&gt;Diffbot&lt;/b&gt;&lt;/font&gt;" style="text;html=1;strokeColor=none;fillColor=none;align=center;verticalAlign=middle;whiteSpace=wrap;rounded=0;labelBackgroundColor=none;fontColor=#FFFFFF;" parent="RByCtK4DOyFTz49GX1wE-48" vertex="1">
          <mxGeometry x="462.1510791366907" y="142" width="95.68345323741009" height="30" as="geometry" />
        </mxCell>
        <mxCell id="RByCtK4DOyFTz49GX1wE-98" style="edgeStyle=orthogonalEdgeStyle;rounded=0;orthogonalLoop=1;jettySize=auto;html=1;exitX=1;exitY=0.5;exitDx=0;exitDy=0;entryX=1.004;entryY=0.411;entryDx=0;entryDy=0;entryPerimeter=0;labelBackgroundColor=none;strokeColor=#23445D;fontColor=default;" parent="RByCtK4DOyFTz49GX1wE-48" source="RByCtK4DOyFTz49GX1wE-44" target="RByCtK4DOyFTz49GX1wE-44" edge="1">
          <mxGeometry relative="1" as="geometry" />
        </mxCell>
        <mxCell id="RByCtK4DOyFTz49GX1wE-51" value="" style="rounded=1;whiteSpace=wrap;html=1;labelBackgroundColor=none;fillColor=#182E3E;strokeColor=#FFFFFF;fontColor=#FFFFFF;" parent="RByCtK4DOyFTz49GX1wE-74" vertex="1">
          <mxGeometry x="287.0503597122302" y="240" width="851.5827338129496" height="650" as="geometry" />
        </mxCell>
        <mxCell id="RByCtK4DOyFTz49GX1wE-71" value="" style="shape=flexArrow;endArrow=classic;html=1;rounded=0;exitX=0.84;exitY=0.28;exitDx=0;exitDy=0;exitPerimeter=0;entryX=0;entryY=0.75;entryDx=0;entryDy=0;labelBackgroundColor=black;strokeColor=#FFFFFF;fontColor=default;" parent="RByCtK4DOyFTz49GX1wE-74" target="RByCtK4DOyFTz49GX1wE-60" edge="1">
          <mxGeometry width="50" height="50" relative="1" as="geometry">
            <mxPoint x="202.08345323741014" y="484.5999999999999" as="sourcePoint" />
            <mxPoint x="334.8920863309353" y="540" as="targetPoint" />
          </mxGeometry>
        </mxCell>
        <mxCell id="RByCtK4DOyFTz49GX1wE-72" value="" style="shape=flexArrow;endArrow=classic;html=1;rounded=0;entryX=0.722;entryY=0.9;entryDx=0;entryDy=0;entryPerimeter=0;exitX=0.06;exitY=0.138;exitDx=0;exitDy=0;exitPerimeter=0;labelBackgroundColor=none;strokeColor=#FFFFFF;fontColor=default;" parent="RByCtK4DOyFTz49GX1wE-74" edge="1">
          <mxGeometry width="50" height="50" relative="1" as="geometry">
            <mxPoint x="348.9112230215827" y="578.0800000000002" as="sourcePoint" />
            <mxPoint x="186.1919424460432" y="578" as="targetPoint" />
          </mxGeometry>
        </mxCell>
        <mxCell id="RByCtK4DOyFTz49GX1wE-88" value="&lt;font style=&quot;font-size: 18px;&quot;&gt;Question&lt;/font&gt;" style="text;html=1;strokeColor=none;fillColor=none;align=center;verticalAlign=middle;whiteSpace=wrap;rounded=0;labelBackgroundColor=none;fontColor=#FFFFFF;" parent="RByCtK4DOyFTz49GX1wE-74" vertex="1">
          <mxGeometry x="187" y="407" width="80" height="30" as="geometry" />
        </mxCell>
        <mxCell id="RByCtK4DOyFTz49GX1wE-89" value="&lt;font style=&quot;font-size: 18px;&quot;&gt;Answer&lt;/font&gt;" style="text;html=1;strokeColor=none;fillColor=none;align=center;verticalAlign=middle;whiteSpace=wrap;rounded=0;labelBackgroundColor=none;fontColor=#FFFFFF;" parent="RByCtK4DOyFTz49GX1wE-74" vertex="1">
          <mxGeometry x="187" y="640" width="80" height="30" as="geometry" />
        </mxCell>
        <mxCell id="RByCtK4DOyFTz49GX1wE-90" value="" style="html=1;shadow=0;dashed=0;align=center;verticalAlign=middle;shape=mxgraph.arrows2.jumpInArrow;dy=7.32;dx=24.81;arrowHead=55;rotation=89;labelBackgroundColor=none;fillColor=#182E3E;strokeColor=#FFFFFF;fontColor=#FFFFFF;" parent="RByCtK4DOyFTz49GX1wE-74" vertex="1">
          <mxGeometry x="914.02" y="345.36" width="95.54" height="104.74" as="geometry" />
        </mxCell>
        <mxCell id="RByCtK4DOyFTz49GX1wE-92" value="" style="html=1;shadow=0;dashed=0;align=center;verticalAlign=middle;shape=mxgraph.arrows2.jumpInArrow;dy=7.32;dx=24.81;arrowHead=55;rotation=-180;labelBackgroundColor=none;fillColor=#182E3E;strokeColor=#FFFFFF;fontColor=#FFFFFF;" parent="RByCtK4DOyFTz49GX1wE-74" vertex="1">
          <mxGeometry x="921" y="638" width="95.54" height="104.74" as="geometry" />
        </mxCell>
        <mxCell id="RByCtK4DOyFTz49GX1wE-100" value="&lt;font style=&quot;font-size: 20px;&quot;&gt;&lt;b&gt;API&lt;/b&gt;&lt;/font&gt;" style="rounded=1;whiteSpace=wrap;html=1;fillColor=#182E3E;strokeColor=#FFFFFF;labelBackgroundColor=none;fontColor=#FFFFFF;" parent="RByCtK4DOyFTz49GX1wE-74" vertex="1">
          <mxGeometry x="942" y="900" width="111.26" height="70" as="geometry" />
        </mxCell>
        <mxCell id="-pxBk7oicFlg1s3ahfGH-1" value="" style="shape=image;verticalLabelPosition=bottom;labelBackgroundColor=default;verticalAlign=top;aspect=fixed;imageAspect=0;image=data:image/png,iVBORw0KGgoAAAANSUhEUgAAAgAAAAIACAYAAAD0eNT6AAAAAXNSR0IArs4c6QAAIABJREFUeAHsvQl0FNedLm4nM5lMxplJJpPJbHnzJvNm3rzMzPtPXk5OkolxuiRU3V0SRl5koxK7dsy+SkgCAUbCduItXhIbG29gjA0IhNhBgG32VUgCIQmQhFYQi+MtXrj/82soaFq91F63uj+do1Pd1bfuvfXd3/19391vuw1/QAAIAAEgAASAABAAAkAACAABIAAEgAAQAAJAAAgAASAABIAAEAACQAAIAAEgAASAABAAAkAACAABIAAEgAAQAAJAAAgAASAABIAAEAACQAAIAAEgAASAABAAAkAACAABIAAEgAAQAAJAAAgAASAABIAAEAACQAAIAAEgAASAABAAAkAACAABIAAEgAAQAAJAAAgAASAABIAAEAACQAAIAAEgAASAABAAAkAACAABIAAEgAAQAAJAAAgAASAABIAAEAACQAAIAAEgAASAABAAAkAACAABIAAEgAAQAAJAAAgAASAABIAAEAACQAAIAAEgAASAABAAAkAACAABIAAEgAAQAAJAAAgAASAABIAAEAACQAAIAAEgAASAABAAAkAACAABIAAEgAAQAAJAAAgAASAABIAAEAACQAAIAAEgAASAABAAAkAACAABIAAEgAAQAAJAAAgAASAABIAAEAACQAAIAAEgAASAABAAAkAACAABIAAEgAAQAAJAAAgAASAABIAAEAACQAAIAAEgAASAABAAAkAACAABIAAEgAAQAAJAAAgAASAABIAAEAACQAAIAAEgAASAABAAAkAACAABIAAEgAAQAAJAAAgAASAABIAAEAACQAAIAAEgAASAABAAAkAACAABIAAEgAAQAAJAAAgAASAABIAAEAACQAAIAAEgAASAABAAAkAACAABIAAEgAAQAAJAAAgAASAABIAAEAACQAAIAAEgAASAABAAAkAACAABIAAEgAAQAAJAAAgAASAABIAAEAACQAAIAAEgAASAABAAAkAACAABIAAEgAAQAAJAAAgAASAABIAAEAACQAAIAAEgAASAABAAAkAACAABIAAEgAAQAAJAAAgAASAABIAAEAACQAAIAAEgAASAABAAAkAACAABIAAEgAAQAAJAAAgAASAABIAAEAACQAAIAAEgAASAABAAAkAACAABIAAEgAAQAAJAAAgAASAABIAAEAACQAAIAAEgAASAABAAAkAACAABIAAEgAAQAAJAAAgAASAABIAAEAACQAAIAAEgAASAABAAAkAACAABIAAEgAAQAAJAAAgAASAABIAAEAACQAAIAAEgAASAABAAAkAACAABIAAEgAAQAAJAAAgAASAABIAAEAACQAAIAAEgAASAABAAAkAACAABIAAEgAAQAAJAAAgAASAABIAAEAACQAAIAAEgAASAgIUI+P3+P8kUvP8uC757MwVxhix4F2YJ4tNykneJLIjvyIK4SfaIu2VBPJIpiEdHJHlPjBzsbRmd4m8bK/o7s73+vlyvdCnPL32Y75c+xr/1GBDWOX6pO9eXWp/j82/M9kojLDQRRA0EgAAQAAJuR2BkUtLfy0neEZke8QnZI66XBbFVFsQvZEFk0f5HDvaybK+f5UsSK0xNxT+HGBRIqV/k+qSjYwf77nS7nSL/QAAIAAEgYBCBjEH+78pJKRmyJ+V5WfA2RSP50N9GDfaxHK+fFUggfLeJHhICo0Xx3wyaDx4HAkAACAABNyGQ4ZH+JlNImSoL4iFZEK+GEnus76NTfGjpc9jC1ypCCqTUL8eK/glusl3kFQgAASAABDQikDdkyDeyBK+cJYgb1HTphxMB1M2f50cXv1ai5T38WK//ZY3mhOBAAAgAASDAOwIPJif/qyyIi2VB/CAcqau5NyLZy3J9IH7eidxI/nK8/ld5t2XkDwgAASAABFQgkHXX4P+UBXG5LIhfqiH5SGHGpPgwoS8OuvvViIMcn2+iCtNCECAABIAAEOARgaxk309kQazSM7YfKgJoVr8a4kCY+JgEWSClXs0WU/+DR7tGnoAAEAACQCACAsM8vv95nfijLtcLJflw37OSRIz1J0irP1S85fqkuggmhttAAAgAASDAEwIZGRlfy/SIJbIgfhyOzLXeo/F+rOWPjxZ9KLmr/T4mxf9LnmwceQECQAAIAIEQBDKTxRSta/ejCYLhyV6s6U/Qln+wOMj1SQ0hpoavQAAIAAEgwAMC8p2p374+wc9wd78iCKjbHy3/xG75KyKA9gcoLy//Cg+2jjwAASAABIDAdQSyPIN/JgspZxXiNuuKZX4gf0UA0HWs15+LSgcEgAAQAAKcIJDl8U6TBfEzs0hfiQez/UH+weRPn3N8/lpOzB7ZAAJAAAgkLgIZXu9fyh5xrULYZl5pW99Q54/vEAS5PqkpcWsc3hwIAAEgwAECWcn+H1rR5U8iYniSF+SPSX9hbSDPL53nwPyRBSAABIBAYiIwLEn8b1kQ+81s8QfHRSf5obWP1n44G8j3S58kZq3DWwMBIAAEHEYgyyOmmbW2P5j0lc+03j+c48c9CAKygXxJ+oPDVQDJAwEgAAQSDwHZkzJaFsTPFbK24opZ/yD6aGIPAiDx/A7eGAgAAYcRyBRSplpB+MFx0rG+0Zw/foM4gABw2BEgeSAABBILgestf9M29wkm/eDPeX4c7QuRE13kQAAklu/B2wIBIOAgArKQIlnd7U8igLb7BflFJz/ggzkADroCJA0EgEAiITBMEH8qC+JHwa10qz6PEbHuHwQfWwChByCRPBDeFQgAAUcQGC74/rcseM9bRfih8aL7Pzb5QSCgB8ARZ4BEgQAQSBwERns835IF8XQoSVv1HRv/gPzVihv0ACSOH8KbAgEg4AACsiBWWUX24eLFtr8QABAADlR0JAkEgAAQCEZAFsQp4UjayntY+w8BAAEQXAvxGQgAASBgMwLXjvQ1/1S/WOKhQAIBqiXARA+HIQCbnQKSAwJAIP4RCJzsJ4htscjait8TndTw/uoFIARA/PsivCEQAAI2I5CZJL5tBbnHihMTANWTH4QCVgHY7BaQHBAAAvGOQKbH64tF1Fb9jsN/IAC0CBv0AMS7N8L7AQEgYBsCfr//T2RBbLaK4GPFO2owNgDSQoCJHhYCwDbXgISAABCIdwQyBe+cWCRt5e9jUiAAEp3Utbw/BEC8eyS8HxAAArYgICcn/0AWxE+sJPhYcY8V/TgDIBXDAGpFAASALa4BiQABIBDvCMhJYnUsgrb6d5wBAPJXS/4UDgIg3r0S3g8IAAHLEchM9v3canJXEz92AYQAgACwvLojASAABIDATQSyhJR1agja6jAjB+MYYC0EmOhh0QNwsw7jExAAAkBAMwLD7hr8I6uJXW38WAaIHgAtogYCQHN1xwNAAAgAgZsIyIL4jlqCtjpcVpKISYCYBKjaBiAAbtZjfAICQAAIaEIgK9n/Q1kQr1pN7Fri19ICRNjE7jGAANBU3REYCAABIHATgUxBfEULOdsRNl+SVLcAIQAgAG5aMz4BASAABICAKgQyPJ47ZEH8yA5S15LGWC/2AoCwUSds0AOgqqojEBAAAkDgVgSyPOIoLcRsV1isBFBHfhAJ2Afg1hqNb0AACAABlQjIgnerXaSuNZ0CCSQIgo9tA+gBUFnZEQwIAAEgoCCQ5fH/gyyIX2olZrvCZ2MYAPMgVKyGgABQajSuQAAIAAGVCMge7yy7yFxPOjgVMHbrFz0EGAJQWd0RDAgAASBwEwE5SazTQ8x2PZMliKxARQsQJJjYQgE9ADfrND4BASAABGIiMCwl5e/sInIj6eBkwMQmdzXiDgIgZnVHACAABIDATQRkj5hlhJjtepZ2BcRkQIiAaEIAAuBmvcYnIAAEgEBMBDIF8SW7SNxoOmNSfJgMh6GQiDYAARCzuiMAEAACQOAmArIgnjFKzHY+j50B0QsQqRcAAuBmvcYnIAAEgEBUBEbcJf6TneRtRlqj0AsQsQUciRgT5T4EQNTqjh+BABAAAjcRkD1ithmkbHcceX6cD5AopK7lPSEAbtZtfAICQAAIREUgSxCftZu8zUiPJgRiKABDAaHiAAIganXHj0AACACBmwjwvP1vLKEwItmLvQEwIfCW4RAIgJt1G5+AABAAAlERkAWxIxbR8vw7dghEL0BwLwAEQNTqjh+BABAAAtcQGCGKf8YzuavNGzYIgghQRAAEALwbEAACQEAFAsPuGvwjtSTLezgcFgQRQCIAAkBFxUcQIAAEgIDsEYfxTuxa8jdGxCZBSks4Ua8QAPBrQAAIAAEVCMhJYqkWgnVDWJoTgO2CE7c3AAJARcVHECAABICALHh/7QZS15pHWh2AJYKJKQIgAODXgAAQAAIqEMgUxBe0kqtbwtM+ATk+/y1LxBK1WzyR3hsCQEXFRxAgAASAgJwkvukWQtebz5HJXoZdAxOnNwACAH4NCAABIKACgSwhZZ1eYnXbczQ3AMMC8S8EIABUVHwEAQJAAAjIgrjTbURuNL+jU3zoEYjj3QMhAODXgAAQAAIqEJCTvIeNEqpbnx+e5GVjUnws14dDheJpjgAEgIqKjyBAAAgAAVkQT7iVwM3MN00YpCOGaTMhEgQ0ZwBLCd05XAABAL8GBIAAEFCBgCyIJ80kUrfENTxJZJPvvZtV5D7IXpw5mq1cmMe2PjWevffcJLb3hcnswOIp7PDLU9mxV6ex+tensxNLZ7CmN2ey5uUzWeuKWezM27NY2ztFrH3ltf+2wLWYnXmniDUvn8Ua35jBjr0yje1/cTJ799mJbMvjD7Hqynz25pxs9uyk4WzeqPvZ5PQhWKFgwVAEBICKio8gQAAIAIF4EwBZgsjy01LZguwH2ZLiMWz9Y4Vs7+8ms4bXp7PWt2YFCLtzdTHrWl3Ezf+5VdeEAwmMo69OZ+89P4lVVeSzZyePYEUP3gORoFEkQADArwEBIAAEVCDgVgEwWvSxh7MfZMvm5rAdz0xk9a/PYG0ri1n3mtncELtZIoMEC/U6HHxpKlu7qJA9OT6LTb7nbgiDCMIAAkBFxUcQIAAEgADvAmDc3Wnsmckj2PrHxrFDL09lLW/NYry14M0iei3xkNAhwXN4yTS2amE+mzc6A4LguiCAAIBfAwJAAAioQIAnAZDtk9jTk0awLU+OZ41LZ7BznHXVayFoJ8KSMDq1fCbb+cyEQC/BuDR3TuIzuiIBAkBFxUcQIAAEgICTAmBR/jC27tFCVvfqdNa+iq9xeScI3PQ0q2azutems6VlOWxiAk04hACAXwMCQAAIqEDAbgFArXwi/Q4Qvq1zFbqrilnT8llsTWVB3E8shABQUfERBAgAASBgpwCY/kA6iJ+H1QdV11YdbHtqApsz4v64mzsAAQC/BgSAABBQgYBdAqB0xH2YvMcD+YfJA60weKs8h8XLnAEIABUVH0GAABAAAnYJAJq9b/oYdxgyQxr69zegSYQ7n53IijPdvfcABAD8GhAAAkBABQJ2CIDnp44E+btIrNB8gfo3ZrLfTBrhyuEBCAAVFR9BgAAQAAJ2CADaRhctc/0tcyexa1s1m71Rls3GRdh0x+iSPSuehwCAXwMCQAAIqEDADgGAGf/uJP9g4UHLNJfPzXFFjwAEgIqKjyBAAAgAAasFwMgUH1r/Lur+Dyb9cJ/p8KN35udyLQQgAODXgAAQAAIqELBaADw0dAgEQBwJAEUU0EmIL80cxaUQgABQUfERBAgAASAAAeD+7nmFlJ24Nr81i1XmPMiVEIAAgF8DAkAACKhAAAIAAsC4cChm7z83iU0cmsaFEIAAUFHxEQQIAAEgAAEAAWBcAFzDsGNVEXtusvNLByEA4NeAABAAAioQkAXxhCyIzKp/zAFIPIGx/4Upjh4+BAGgouIjCBAAAkBAFsRjVpE/xQsBkHgCgHoUaOnnsw71BuT7pU9Qs4EAEAACQCAGArJH3A0BoJ+kade87jWzWU91CetdV8b61s9h5zfMZRc2lrMLm+ez/i0L2MVtD7OL2xayS9tj/VdcC7NtYeCZ/q0LWP+W+YF4Lmyax85vLA/ETWn01cwJpNeztoRRHszqxjc7nv0vTmHjh9g7NyDPL30Qw+zxMxAAAkAACMiCuAUCILwAIHK9Qeib5rH+IEInMr+8o5Kb/0u1FddEw5b5AaFA+e5dV8p61s5mXQ4LhKY3Z7KJQ4fYNkEwzy/1o2YDASAABIBADARkQayCALgpAHprygKt9su1FdyQuxlCgwQC9ShQLwL1VNjda3Bq+UzbBECOX+qOYfb4GQgAASAABGRBXAoBUMT61s9ll7bHF+nHEg7Ui0G9GtRbQEMYZnf/h8ZXvajAFhGQ65POoGYDASAABIBADATkJO+LiSwAqIv84taH46q1H4v4o/1OWND8BeoJMb2XoKqYTb13qOUiIM8nnYxh9vgZCAABIAAEZEF8PFEFAI2Rx1tXfzRy1/MbTULsM1EMrF6Yb7kAyPH5D6FmAwEgAASAQAwEMoWUqYkoAKiFq4cQE/kZWtFAqw+M9AzYMRcg2+tfE8Ps8TMQAAJAAAhkecT7E00A9FSXgvwNrmDQKwY6Vxdb3gMw1uv/FWo2EAACQAAIxEAgK9n3k0QSANR65W0Jn9t7FUgM0MqC0El/kb4XpqZaKgKyRd+oGGaPn4EAEAACQCAzOfl7iSQAaNa72wmX1/zTZkc0RBCJ+JX7Mx9It1gApP4HajYQAAJAAAjERuB2WRA/tUoE8LQVMG3swyt5xlO+qIeFlhZ2Vd3cX0Ehf7oWDbvXUgFQXl7+ldhmjxBAAAgAASBwm5wknkoEAYDWv707F9K+CrQtcuhOhFYKgHxJ+gxVGggAASAABFQiICeJ1fEuAGjsP55a2W56F9qFkHYgVFYPWCkA8vxSj0qzRzAgAASAABCQPeLceBcAWPZnb+s/rEC5LgRmPnCPZUMAOT5/LWo0EAACQAAIqERAFlIkqwTA3FEZMSeFBY8PW/X5wuZ56AEwuPQvLKnriLM06z7LBMBY0TdXpdkjGBAAAkAACGQM8n/XKgHw3NQRXAgAOpLXLAJDPMZ6Ex7Jz7RMAIwWxX9DjQYCQAAIAAENCMhCylkrRMCK+blcCACs/TdG2maKnuemjrJEAORL0ucaTB5BgQAQAAJAgBDITBLftkIAHFw8hQsBYCaBIS5jYqL6sfGWCIBcv9SB2gwEgAAQAAIaEcgUxBlWCIBzq4shAHSMk8ezyGhZPccaAeCV1mk0ewQHAkAACACB4YL3/zNbAMwf+wAX5E8TC+OZUN34bmXD7zddBGT7fBmoyUAACAABIKADgUxBPGemCDj88lQIALT+w4qvml9PMFUAFEipX+gweTwCBIAAEAAChICc5H3RLAFQNuI+bsgfPQDGxuyt6GHo31bBZsvmLQfM80knUYuBABAAAkBAJwJZSSn3mCUAGpfOgABA6z9s618RFDuem2paL0C2179Ip9njMSAABIAAEBj7i7u/KQviH4yKgNUV+VyRP3oA+OsBUETACzPGmCIC8rzev0UNBgJAAAgAAQMIyIK4zYgAeGricO7IHwKAXwFwYetCVpEzzJAIyPNLFw2YPB4FAkAACAABQiAzSZygVwCUj6Ztf/lY9kekH/yvtDhx5U8MdNTMY6XD9c8HyPH530btBQJAAAgAAYMIDEtJ+TtZEL/UKgKI/Ds5JX/0APBH+qFCrK26XLcIyB7s/5FBs8fjQAAIAAEgQAhkesRdWgQA7+QPAcC/ACBBoEcE5Pmly6i1QAAIAAEgYBICWoYB3ED+EADuEAB6RAC6/02q9IgGCAABIEAIqB0GcAv5QwC4RwBoFQHo/ofPAgJAAAiYjECsYQA3kT8EgLsEgFoRgO5/kys9ogMCQAAIEALRhgHcRv4QAO4TAGpEALr/4auAABAAAhYgEGkYYFpGOtez/Ynsw/0ToeDffRjQxMAZD6SH3ScA3f8WVHxECQSAABAgBGRB3Be8GmCM18/OvhOeYMORLk/3QP7uI3+lzI4tLWbj7067RQTk+aUPUUuBABAAAkDAIgSyBPHRYAFQ9+r0sK1rnog+Ul4UMsHVnUJg81OTbhEAOT5pn0Vmj2iBABAAAkAgyyOmKQKA1y1+IxF+6H0QvzuJP7jcgrcMzvb656GGAgEgAASAgEUIjPZ4vqXsCnj67Vmubf2TGAgmEnx2pxg49OqsG70A2ZL0jxaZPaIFAkAACAABQkAWUs4+P22kq8kfAsCdhB9OqD2aL7N8SfoctfMmAnlDhnzjIUkaWiBJc8elpv62UJLWjktNPVCYmtpZmJp6OQH+LxampjYXStKOgtTUZYVpaVMLU1N/cBMhfAICQEAXArIgHjz26jQIAKwi4KIXZdOTk1i+X/pIlzHH0UMFovjXBampYwtTU9cUpqZ+XJiaeqN3BJ+vYVGQmlpXkJY2PiMj42txVPR4FSBgHwJZyd6NPB/yEzrWH+l7uNYk7rmvZ6B93TzqAThvXw3gK6Wcu+/+XqEkPV+Ymvo5iF616DldkJaWxVdJJnhuMj2evxqWJP53pidl+OgU/8IxKf6Xs33+tTk+/3u5vtT6XJ/UlOP1H6HvOT7/xlyvtCJHlBbn+KTyHFFKGe3xfD3BIbTl9V+cOWpXJFJ1zf0qzAGIJ7Ezf8yD52wxfo4SGZeRcce4tLTywtTUD0H8qok/tFfkTfCGzUadkZHx1WGC+NMsIWWmnORdInvE3cOTvJdGp/hYjs/PCiTdhUktgT/k+KVuWhI01uv/1eiUtH+x+fXiPrmtT42vcw3RR9gEiPIfTwSY6O/y2+ljOuK+4gW9YL4kpYxLTe0B8evniiDs9o2TpL8JghcfzUYg667B/yl7UibJHnGtLIhXlKVkI5K9AdIPKoxQhWb4e75f+jjH5zs4VvTNzUm++3tmv1uixXfwpalnIADc11UezyLhzXn53YlSD8elpU0qTE39wkqfmWhx09wA6lFJFBuy5T3l5OQfyEliuSyIrQrhK1ci/lyfZJjc9Rhqnk9qp2EDdP3oM4PGpTP7IAAgAHgSFOt+NSHu5wDQxLXC1NTFenwenlHVU7CmvLz8K/q8Ip4KIJDl9/95piclRxa87ypkH3odI/ocIf7QSlAgpX6Z4/MfGiP670fxqUfg1PJZFyEAIAB4EgCbn5rUr96C3Rcy78c//uOC1NStoT4M31URu3q+SUsrdp91cJDjkcnJ35E94gJZEC+HEr7yfXiSc63+WBUlz++/kOOVHuIASu6zcG7N7FYIAAgAngTA8eUlNdxXHG0ZvJ2GTWnnzawkb26OT6I1/OqJDGH1YvUBLafUVlQJHDozOfl71/eH/71C9OGuRP75kjNd/loqTp5fupTt9c9M4CKN+eq968oaIAAgAHgSAFdqK5+MabicB6BWfmaymCIL4nOyIHYqfpQmR2vxYQhrUCilpT3Duak4n70RovhnclLKIlkQP1YMNdLVLeQfXHHy/NIH2V5phPNI85cDCACQP0/kT3lxswCgRpTsSfmNLIiXQn3oyGQvyN/+3ozP8gYP/gv+PC8nOZIF71BZENtCjTXcdzeSf7AQyPVJdWNE8fucQM9FNiAAIAAgAIxXxQyP547rk6Qj9p66odc02F/Gy+eC1NRhxks4zmIYMXjw/8gUvGvCEX2ke3l+/rv9Yxnt9cmCT8dZcep+HQgACAAIAN3VJ/BgZpJ3jCyIvZH8Jt3nZbJ0LP8Yl7+npS01VsJx9vS1mf3ih9EMNvS3saI/rrqv8vxSHzYWuu02CAAIAAgAfQ6exvllT8rzob4y9HtWkmhoQ7S4JGV7hwISbmfJsBZNp0plCuIroQYa6/vIwfE5dpUvSV+M8Uo5YcFKkJsQABAAEADaKzttdS4L4o5YvpN+H+uNr8aTCwXJl7RjrfZSjqMnHkxO/lc5SaxTY7ChYeKh6z+a0eZ4pZVxVNSaXgUCAAIAAkBTlbntwST/P8uCeDrUT4b7Tq3/aL4Hvxmc5a+yJ6EgLe3vtZVyHIXOSkq5RxbED8IZaKx7owYnxrKVXL/Uke31/mUcFbuqV+ldV1qPZYAQATyJgCs7Kh9XZbwOBKLN0bKSxMZYflP5PVH8pwuEzI8dMBfnk8xK8hbIgvilYpBar4k0czXPL13JlqR/dL7U7MtBz7o5ByAAIAB4EgCXaysftq8GqE+JtpaVBbFGiw+lA9FcQI7xn0e//2fqSzpOQspCSpkWYw0Nm4jqNV+SPske7P9RnJhAzNfoW19WCwEAAcCXAFhUFNNwHQhwfZM0Fuono303choqhIOJwwMJJgBuzxLEp6MZpprfElW95kvS5zmilOKAj7E9yb6asrUQABAAPAmAK7WV422vCDESzEoS/Wp8ZnCYeJ087UphkkgCQE7yLgk2RD2fE33yCu0XMDbFL8bwC67/+XxN2esQABAAPAmASzsrRvFUsajrP1MQj2v1o2Ow7S8/QwuJIgCyPGKlVkMNF34UjJfOO/g8x+f7vzw5I7Pz0rd+ztMQABAAPAmAy9sr7zPbzo3Ed32jH01d/+RT423vFFe2/JVVAokgAOQk7/hwZK7nXjbWrgbUa75f+jjP6/1bIw6E52d718+dBwEAAcCTALiyfZGXlzqT8fOf/6ksiB16fGgOfCh6AOwy5EzBe5+R2f6hBh7va/+1qNk8v9RPmyjZVZZ2ptNXM2cSBAAEAE8C4IOdi/7bzjoQLS3ZkzIp1Deq/Z7rc//W6Vr8JNdh47kHIMsz+GeyIH6q1jDVhOO6MJVuHRuvuT6pJZqjcOtv5zeUDXO9AKgqYjwRGPJiTFBd3LWQm2E3WfC+q8ZfhguTHwdnp8QND8SrAJDvTP222tP8whlpuHsjcGxl2K6rbJ//FbcSfaR8965f8M+uFwCrIQDiSXT8flfFdyPZq533Mwb5v2ukVxW9qCYu4zPa2ItXAaD1RL9whB96D8tXwhtuQWoqyxb96XY6ITvS6q4qvup2ERBPBJjg73LRDpt/JuxOAAAgAElEQVRXk0aWII4N9Y1avmMIILwfdaRXIR4FgCyIU7QYpNqwibgBkFqjzJekT/M8Q/5KjQNxS5ietSUfQAAY67ZOcNI2cwhmDy/1xmjjChOpIQAss+WsZN9PZEH8TC2pawkHARDdcHN9qc2WFawDEfeuK22BAIAA4EHEXKmt5GaYTRbEPi1+MzTsaCylDjuUqraxZWa4hyTppw64VmuSvL4n9ZFQgzPrO/YAiC4AyDCzRd8Ua0rX/lh7a8o2QwBAAPAgAC7vqCy2vwYMTDHvxz/+Y1kQrxrxqcOT4vMYdTOJ2ba44mkIIMsjjjJimLGexRyA2AIg3y99REJsoOtw353emjmPQwBAAPAgAC7trLiXhxo07C7x+7H8pJrfMREwti+1RQTEiwCg9eiZgnhOjfHpDYNVAOqMdqzP/zsenJXRPPRtmJMBAQABwIMA6N++6N+N2rMZzw8TxJ/q9Z/Bz2E7YHW+1HIREC8CwOgJf8HGGelzop8DoNYYC6TUL7K93r80w+E4Gcel1eXfggCAAOBAAHzB1j/9J07WBSXtTI+YHsk/ar2fSEeqq/WddocbJ0n/pZSta68ZHulvZEH8vVYD1BMex1iqU645PmmLaw0qKOM9a0s+crMI4IC8zJwJn5BxXdlRWR9kko5+NHOYFXOq1PlSK0XBQ5L0j44alBmJZwriC3rIXM8zWMOqzmgLUlOvZoup/2FG+ToZR+/60kMQAOgFcFJIXdpZ+Rsn60Bw2rInZbQevxnpmUQ9Wt1KUtcS99i77/5mcPm67vMIj/gfsiB+EcnAzL6PsSt1AoCMMNcrNbrOoEIy3LdhTgUEAASAowJgR+U9IWbp2FezBQANq2JCoHqfqoXcVYT93DFDMivhLEHcYDbJR4tvOLYD1rSGdYxXGmpWWTsRT+/6UldvCewkcSFtU4TTl1d2P87NfBqzBQD5WloWiPkAjoiA8074VNPSzEpKEaORtVW/wVjVG2ueX+ozrcAdiqh7zexP3NoLABI2hYSdnHtw2CGzD5usFQKA/DT1BOTikCBNjSsVLfxY8TWFLWSX3LxdThLrrCL5aPFiJyv1AoCMNFv0T3eJTYXNZu+60qMQAK4nUidJXH/atZW/CmuUDt00cxJgOB871uuPRVr43egBQDef3+uQGRlPVk72CuEMyI57WYLIsBpAvQjI8UvdxkvcuRj6atw7DwA9AO4WLld2VkjOWf7AlDMF731W+1gaEsDkQPX+VXdPQFra+oEl7JI7WYJ3mdWGGC3+sSKUqhbDyx7s/5FLTGtANnu3LvxeV1Uxc2MvAASAqwXA5+ffe4SrWdqZQsovo/lFM38jITBG9GGS4M0Wu7m9H2lpSwc4OzfcGJmc/B1ZED8109i0xkVjVpgLoF6lun1fgN7q0l4IAFeTqf5u+B0OvffORVt588dZyf4favWVZoSnXlcSBCOTvYyGYJUe2JkPpLM35+awDY8Vsl3PTGQHFk9he383me34zQS28Vfj2KqFeWxpaTZ7Yfoo9vg4mc0fncFmZKSzcVaRqoviLZCkR3izL1X5yUryTjbDqIzGgbMB1AuAfEn63M1nBPTVzH0WAsAhInSKgB1O99LOilGqHKKNgUaI4l8b9ZtGny+8ewjb+uR4dubtIkO9cp2ri1nbyiJ26s2Z7MiSaWznMxNYVUU+WzxjFHt47ANs/JAh5ra4ORMH49LS7rfRdMxLShZSGowakVnP42xr9SIg2+ufZZ4V2BtTz6byv3bjMMCl2gr3tXwdJl5Ohk0+7Kstv8NeK4+dWkZGxleNngao1/fmSqlsxzMTmJ31kERC8/JZ7MCLU9jaygL29IQsNik9PoRBXlra/4hd4pyFyLpr8H/qNSArnqOuKWxkoU4E5PokVy876akubXNbL8Cl7QshAFwoKC7tqHydM9d7IzuyIPZb4Uujxfn0pOGMyJiX+ncuIAxmsn0vTGZLy7LZ9PvT3dZb4M6J2ZlJYlE0Q3HiN+xmpU4AFEipX7p7GKBsAS8OSG0+Lm57GALAhQLg8o5HUm4wLmcfZMHbZKefXV2Rzw3xR6t37SuL2KGXp7K3ynNY0YP38C4I1nBmVuqyIwvie3Yan9q0ApMCsZFFTKPP9koj1JU0f6H6VpTf0VVVfDWaE+Dtt4tbIQA46dJXLcSu7KjsZKz8K/zVgGs5stMHv/f8JFeQf7h637GqmB19ZRpbVpbNJtzN17DBuNTUEl7tK2K+Mrzev7Rz33+15K+EQ09A7J6AHJ+/NmIBu+CHnnVzDoSr7Lze69+yQDXxuI0o4zi/j/JcFWRBrFJ8npXX3b+d7FryH+gPilnDGzMCwwU8iIF8SeK2hymi7WcJXtlKgzMrbuwREFkI5PmlDyMWsAt+6N80L2Vg5TY2G9nK+Pq3zIcAcNkQQP/2Rf/Oc1WQk7wvmuUrI8UTX+Qf4h+qilnD69fFwFBHegauTk5P/xbPNhY2b1lJ4uuRDIa3+7ReFfsEhBcCucnSv4YtYJfc7K0u7baStM2M+8LmeRAA7hIAG3ivBllCyjwr/W1ck//qgWKA9i6YNzIj5vCplo3XooZNSzvJu42FzZ8siM1WGp7ZcdOQAPUGFHC2/jOqcdiQ1xyfVB62gF1y8/yGOflmkrSVcZ3fMBcCwEUC4GLtojt5rwayMNhrtq9U4kso8g8RA41vzGBPPpRluRAYl5r6Eu82NiB/8p2p33Zq/alinGquT07IYvtenMJoAgitV6WlKzQ7tO7V6Wz53Bw2+Z67LS9gpwk+Vvo5Pv+OAQXsshs9a0uuWEncZsXdW1MGAeAeAbDTDdUgw+O5QxbEz9X4Qy1hEpn8g+t764pZ7LXZYy3jCVduACR7vIO1GJPdYekUq8MvT409aaWqmLW+NYttefyhwLaUscgyHn/P80u9bnB00fLYV+OOJYE9a0sgANwiAHZWitFsjqffZEHcZ6aPBfmHDA2sLmLtq4rZkqLRZguBz/MGD/4LnmxJVV6yBLHYTIMzM678tNRAKz9Yxan9TD0FtMsU7VWdKPtT034Aqgqd40BsRcZXu9fM/kRtOTsWrqoYAsAVAqDiAMfmPiBrWYL4qFk+FOQ/kPyD/cWJpTPY3BH3mSUEdg0oTDfcyPSIq8wyOLPjoeUdwQWm+3NVMat/fXpgL+p4bPkHv1POYP/P3GB30fLYt8EdxwRjN0D+zzC4VFuRHs3WePttmOBNNcOPgvyjk/8NLqkqZtufGs8eGhJ+YnWwb436OS2tmDdbUpUfWRBbzTA4s+N4e0GuOeQfMiGEtpp899mJbO7I+81SflzFky1KC1QVPMeBGGO391SXfHSjkoaUIS/3+7diLwCe9wy4sqOynmyJY1MfkLWMwYP/QhbEL434U5C/SvIP8ivUY0y9xVFJPspE7nGS9F8DCpP3G7R9rCyInxkxNiueLRiSZsvBFDRnYOWCPDbBmTWjuo0tmpHmeqUVvNudmvz1bSifyAvRR8rHhU1YCsi1AKit9KmxNd7CyEnew3r9KshfO/kH1+/dz0/S45e7eLMhVfkZlpLyd3oNzcrnaP1mcKFY/rmqOHBspR1LRaKRtxm/5fikfaoK3wWB+qpL2y0v+6BWgNa0+tZjKSC/AmDR2y4w8bBZzPSIT+jxryB/Y+Sv1P+Ty2ayKfeqX1XmyuV/ZHlZnsE/02NoVj4zb8wD9pJ/CAHQWdhLS7P1qEAunsn1S21hvYoLb/asL/+ZUil5vGIlALdzAH7fX/vIP7jQ5ANZzvSI6Vp9rFPk311VzHrXlbK+mjmsb/0c1rdhLiNh3FdTFrhPdaR7zWxHfboe30FLzNVuIuTK5X9kaZmC9wGthmZ1eFqrqafAzH6GxoTonOrxQxzZUlK3mMjzSx+41fGFy3ffutJas8vWzPgu1VZgNQBnqwEu7aycFs6W3HJvZHLyd7TMA7Cb/LvXFLPzG8uZ1gOxqK5c2rYw8BxtpU1DaBQPCQfaV6OnmsQCP0cT014zz00ZEcsXu3P5H1UGOUmcbjWha4n/tdJsLsg/mCDICGqfGs+m3js0liFw8XuBlPqFWxydmnz2ry//8+41sz8NLhOePuNQIO56AepYbfkfqbEtnsNkesRdanynneRP5HxhYzm7bLXora1gdNw2iYQbAmFdqUM9CcXsjdKomwe5c/kfGb8siE+pMTI7whQOSQvs7seTc78lL1XFbN8Lk1lp1r1cEH20+QKjPZ6v8+zctOatd2N5wS1lETJs4+Rv1OXJ7zg4d+RsNVZX3bDlrxr7z0wSJ8Tyu9ufHm9bg6l3XRnjpbeLlt+S8A70IGyYyyhvlg4zVBWziuwHw/t9ty7/IyPkZQ+ALEEMrNN30pGrTruqmO393WQ2/f708AYRZalINNI287d42Asg1En21ZQeU11GNgoEzAPgSmS4by/2UEO//v36BO2IywFfnT3WNvKnVrgbRC4JFBIGdE5Hb3Upo/kJZvmMjtWz2dT7BvYCu3L5n2JzsiAeiKUy7fi95tEC0wrKrAKPGU/VtaGBiRwuIRzrlQqUMo6X6wdbK77Ts5bPoQBeWkZucNIW5vHU+fce+Wa82Du9R6RhgHmjM2xZJk0+0O1LXWkogd6B5hmQWI/p16M0HugsmpCGmjuX/ymVRBbEHjsIPloaT0/MMlQoRgrUjGdpjkD1ogKuthvO8fmfVso4nq596+c8aEaZmR0HjVVaSGyIO/Ykw08v1S5030YsMSpnpGEAuyZKx+OJlzd6CTaWB1YpaOolqCpmlTlBQwGS9HKMIuT354yMjK85fQrgtIx01hlFcZntqK2Mj1YNLCvjY/lgrldax6/lGctZ77qyNVaWo564qXUBAeDgUEBtZdz1eFEtCTcM8MKMUbY0mGhcPVFsmlYzkNjpWRt7ueLRV6bd6AVw7fI/Mq4Rd4n/FK1lbvVvo0U/O/M2H0v+9Dj9SM+0vDWLzRuVccNIQrqMbLmf65OOGqNZfp9m5eVf6aku6YqEvxP3qRWRKM6Su/esrVzOr7Uaz1noMEDbSnM2u4laT6qKWKKec3Fx28LAyoOIwwVrZrPxQ9LIj7t3+R+ZpZwk3mU1yUeKf5ToY83LZ9qiZKMaulW9D1XFbPPjD9lC9uEERq7f32nc9fAbQ//68n/oXjP7D46UbQSbwXJAR3oAmvv3lv85v5ZqPGfBwwBzRt5vi8+Mx65/PcKVRBBhEbo3wTOTAnsDuHf5H5ml7BGzIhG0lfdHpfjYqTfjmPyDCOLsO0XssfxhtguBPL/0oXHXw3cMFzaVp2savwsqFyuEA21kosfJ4BndwuHTSzsrf8S3lRrPXfAwwLanbFj2R71ZVq/zjz2ng7u61L95PuupLg0IsD2/m8IK3bz8j8wyM0ksspLow8VtFfmT8w103QTUWuxxHCsIIHKc104ftHNHwQIp9Uvjrof/GM5vKH80Mu42dJUGi4qqYm7WSSeAqLh6ZWdlFv8Wak4OlWGA0zYMmULIRhektKrg+BuzmKuX/5FZZgnis+FI2qp7OX6JNVnQ8qcNIEKXYVEh0QYtlm4OEez8VXxuX1XMfjNxuG29AeM8njvMcT98x9JXU1bNiwi4sBmnA9ohPi7tqJjKt1WamztlGIBWHFlt69TStaMM3ZxG0ztln5lbwg7Elil411hF9qHxzh/7AKNZ8lYYb6z9qC9uXRBYA8pLd/GBF6ewSenWny+QLUp3OWBWjiTZU11ab4VtaY2TDkVxs2NzSd4fdcTIHEyUhgGGJ4lfarVHPeHR/R+9B4DqSM+mhz920BzMSdrImdOhBB/t+9sLci3btELTDlW1FYENISLO7lTRitdTocI9c251MVs8c5SlvQFjRf8EcyyF/1ho7/ee6tKz4bC2+16izp62Qzxc2lH5GmPsdv4t0vwczhiWfsBqW6bJbnaUo9vTuFRb4f4eAFnwno9G3EZ/G+P1syNLplrS6qeKYKS11b91QWD/aKsrVKz4j706zbIthbO9/ufMd0P8xnimtvzrPdWlPbEwt/p3zKCO3YLSSQAb4uGQH7016LdTRz1hte1iW2vVtvup3nLk4jk6LMYowUd7vmT4fczK9aqkVEPH/fU4lRvLPEzcM1prJT23qpj9uiDT9N6AHJ9/IxfGZmMmLq+r/HZPdeklrWVgZngaajLDNvXYc/w+U7GvZ9Njf2ajKXGX1O7fTU43007DxWWkURW/thdWFLhbAMh3pfxLNAI38ttrJWMt6/JXjJZa8GYaHDlsarl1OSUEqorZOwtyTRUBeX7pOHdezIYM9W5d+L3e6pKLiq04cdU0NOXCJVFm1r1YcV3ZUbnrUm35t2wwHa6T6Nsw906rbRkrAMKSfTiucbcAyEpKEY2QfLhnaZb/gcVTLOvyV4zfSudKQqBv/VzL30F5l9Ar4ffQkFRThECeX+rj2qNZmLnL64q+3bO2pC8UX7u+B3YGrFXtTMI5GNzbUcmu7KysYrXlcXW0tV6zhwDgqj65WwDIgjglHInrvbfy4TxmxxIVu8ZXaWigr2aOI0Lg9IpZbHbmvYZFQL4kfa7X2cTDcx0rpvxp77rSU3aRfmg6bj9FLVbL3PLfaxctZitWfDUebNGMd4AAgAAww44CcciCuFgv2Qc/98T4LNb2jj0brthF/sGOjTYXokMxQp271d9JTD0zyfieAXle79+aZjQujahvfVmt1eUVLn7agyLYlvBZiwOvWOhSc7Ms2xAAWuzH8rCu7wHYE0zkWj/PeDCdNbwxwzZipE19nHSgtNdA7/VtIMM5e6vurXu00FBPQLboH2uZR3JRxBfWl7/sxPyOC9hURWu9vXplR8VEF5mWbVmFALCc1LXYqusFwBWtpE/hhwsi2/70eFsny/F01Cod+GL3PgIr5umfHDjW63fvedUmu9YLG+fN6q4qvmqVWAsXb6AXAPuqq3WsVy5vr7zP5GKPm+ggACAATDHmYXeJ39dD/tMy0lnrCnuP7+WJ/IN7IGi7zNATosIRgCn3qorZwrEP6OoJyPH5DppiNHESSd/G+YN61pZ8ZEq5qNw4yspJq8E26erPOysPXt726D/HiZlZ8hoQABAAphhWpsfr0yoAsn2SZVv5RnLGfZyfrhZYMWDTREHaU0HPYUJ5fum8KUYTR5HQevKuNTaKANoXYPtCta3ghAvXva68jzWUfy2OTMySV+nfUPbzSL7SrPtYBqhaZHxiSSHbEWmWxztNqwA4+so028b7yZidmPCntwVFwwJ2HDr03OTAGdSaegIKpNQv7LApt6Vx8tUpR868Ncu2XhyaSKrXvuL1uYvbF7KWN2cyKgu32Y8T+e3dWv4Ds4g+UjwQAGoFQEW/EzZgSpqykPKyFgFAu/pFMhiz79P6aSJUtzk9O3oD1j+mb0LgGFH8vimGE0eREOnUvTiRnXh1KuteW2KLfbvRrq2qh30b57PGV6YwKgMIAHUVi/ZDMNvfhsYHAaBWAFSeVVdqHIaSBXGfFgGw7anxtjhImlzn9q5SK3sDDr88VVPrvzD12oZCY73+XA7N0NEsKQKACOj44omsfWWx5RNbe9ZiWeCl7RXs7DuzA5gT9hAA2qqB1T2NEADqBMCVHZX12kqOn9C3y4L4ey0CwI6Jf4Hx/jiZLW1Vb0Dz8pm6BECO1/8qP+bHR06CBYBCRNQb0LVmtqViN5EnBHatm8sallxr9SuYQwBoqw89a0u+CG21m/kdAkCdALi8o3KPtpLjJLScJP2jFvKnsFYe6kPGG69Gd603oNg0QqF5GEqrXss1x+c/zIn5cZONcAJAIaXTy2daOqfj4raHXTfEZWQo4MKWh1nzshmB1r6CcfAVQwDqq0VvdeknZhJ+aFzx6ouN2G+EZzepLzWOQspCiqRVALSvtHanP9p7PwLIrr9PXZ491eaMMW9+/CFdAiDP77/AkQlykZVoAoDI6fjiSaxj1WxGc1JCnaTR74myNwD1hLWtKglgGUz4oZ8hANRXid7q0l6j9hfteQgA1T0Av1NfahyFzBTEGVoFgNVDAPEsABRhQ/sZRKt4an57acYoXQIAKwEGVsBYAkAhKRoW6KyazbqqzBXBdM6EYhvxdiXiP7em7MYkPwXLSFcIgIH2GelOb01ZnRpfoTcMBIA6AXBpR8XUSGXE9f1MQXxFqwB4/7eTDJNXNINMBAFATv7C5nmGiKTowXt0CQAaLsiWpH/k2jBtzpxaAaCQVkAIrCYhYF6PQLxtE0zE31FVGnacX8Ex3BUCQL3x96wrq4nmS43+BgGgTgBc2b4oVX2pcRRSFsQDWgXAkuIxEAAmndlO4796ZvJ2ri7STf4kAMZ6pQKOzNDxrGgVAApxNS6Zws6tNmdogIYX3L7qhYTtxe0VrH11CWt4eXLEcX4Fv3BXCAD11aF3/dx5Rkk+2vMQACoFQG3l/1JfavyEpBUAH2oVAA8NHQIBYJIAIIdJLSWt8wJOr5hlSABki9Lr/Jih8znRKwAUAiOy61hVrEvMBTtgsgO3DgH0b32Yta2czepf0kf8CpYQAOrrw8Ut8/8z2H7M/gwBoEoAfOzKY6pH3CX+k1byV8KfW2Ve12eo0SbKEMAtjr62gvWuK1UtrI4s0bcHgLJaINcnHVXvZuI/pFEBoJAXXVvfnMm6qvT3CvC+5XWw3dKk1s61c9ippZFn9Qdjo+YzBIC2+taztsSylQAQALEFwJUdlWu1lRgnoTM9YrpC6Fqv9a9PV01WoQQf63tCCoDrPQrk/GPhQ7/XGDwWOM8vXeLEDLnIhpkCQCG54y9NYmdX0PbC2ld98L71dc/6cta6fBajd1Te16wrBIC2KtFbU7ZXjc/QEwYCILYAuLSz0p1HrGcK3ke0Er8Sfv1j41QRlR6jS2QBQK0rNSsEKrIfNDQEUJCaykZ7PF/X5mriN7QVAiCYEGmb2/Z3ilnXmhLVSwkvbJrHzXAAtfS7a8rZmbeLNU/qC8ZBzWcIAG317HxN2VQ9flbNMxAAMQXAl7/fVfFdbSXGSWhZ8L6rELrW66MFwyAATJwHENytSp9ph7hIFbRj9WxD5K8MA4zx+YZzYoqOZ8NqAXAL8S2eyJqXzrg5ZyDKSgKnzgsIzEtZX87OrpzNml6fzuoWX9um95b3uL51r9n3IAC0VYe+FeV3RPIVRu9DAEQXAFd2VO7SVlqchM778Y//WBbET7QSvxJ+RJLX1CVQwYaa6D0AihigFmAwLsrnnc9MNEUA5Pj8b3Nijo5nw1YBEEKctMlQ67JrgiDQQ7A2qJegqphZvVMgte77Ns1nXdVzApP4Tr0xPeZmPWaTfnB8EADaq0PP2tk9in8w8woBEF0AuHb9/zBB/KlC5nqvh16eGpagjBogBMBNo+vfPH8AxvNGZZgiAHL9Upt2VxOfTzgpAILJL/gzDRvQhMK2d4oDG+nQuDudmnd+8wJGM+5puZ0iFiNdKQyFpWfoWYqDNuWhrnyauBduL/7gPDjxGQJAex3rqS5ZbtTvhnseAuCmLw5bx96t/IH20uLgiawk72S9xK88N290xgByCmdEWu/RGHhYsC3scuc5PeoGVjacOfO2seV/Svc/XfMl6XMOTJGLLPAoANSSL/Ug1L88ObDTHokG+kz31D7PWzgIAO1Vontt2b9r9bNqwveuK4Mvjsw7ddpLipMnZMG7QiFyI9fTK2aZLgLctAzKLuFwcevDgcljG35VaErrXxEC2YP9P+LEJB3NhpsFAG8EbjQ/EAD6qkJPdWm3GlLXEsbN+1JY7Zsv7aicr6+kOHgqUxDPGSF+5dllc3NMFwBQneG7nTrXl7OiB9NNFQBjvf5fcWCOjmcBAsC+SX6xBAIEgL7qcH5j+SNayF1N2MBBVZFbwIndO7Br4f/TV1IOPzXsLvH7CoEbvY4c7GOdq83dFKi3ujSxDStChav59QRTyZ96AXJ8voMOmyMXyZ9ePv0dvVvXxiI0/K5eXFAZUFlwYRQuy0TXwfJv9FSXfKaG2NWGoe2prW5JuzT+nS4zj5vZzfKIDxol/uDn33tuoqm9AD1r3bsdqpXGPG/0A6YLgDx/6u9vWkbifupaXfQkOcUzy2fo3sMeRK+e6EOxIuIn7K8T05OJa4nG3rxv/ZyX1ZK72nCXa8P3SFrp63iP+8r2ip8aKykHn5YF8algAjf6ecYD6UrFNeXavXY2VGdIL8CxpcWmk78yDyDL7/9zB82Ri6QVAaA4RSKjxiXG9rQPJTl8HygQCOMg4lf8BwSAzlrRsWLKn3ZXFX+u2LEZ13g4oMpcQbHI3cun9ZwAGEskHF4yTam8xq/odrpFAF2srWALxhrb+U8h+3BXnAx4222hAkBxnBACA0nbDCETgfgV3wEBoFMA0GM960qWKfZrxpUmIJtLoK7uUfj8ys5H/8VA8Tj7aMbPf/6nsiB+FovQtf4++f6hN5aqmWF0l7YthNFd7wXY8Lg5G/+EI3+6l+P1Vztrlc6nHkkAKLZ89i30CJhF/ISlgmuEKwSAgSpxZnX5t7qriv8QAdtY2A/43andKPkUHRXPGSga5x+Vk8S7tJK72vBrHykYYDx6jZA2wOHTAOxVr+dq5rMp9w61rPufBECu39/pvGU6m4NYAkCxYwgBfT0C1OJXQfyK/4AAMFgdeqvLZio2a/TK05kUDnPC7z/cuvB7BovG2cczk8QitYSuNVyWILIzbxcpldjQlffT0OwyxN/NGG0p+ZMAKJBSv3TWKp1PXa0AUJxp+9szWfMbU1m9BafhmdHS5iEOwoYwIqwU3FReIQBMqBI91aXtKvGOWj7YmO1ao+9SbWW5CcXibBSZgneNVmLXEv7h7AeiGpNag+xdh6WAh18vspz8lWGBbFG6y1nLdDZ1rQIg2I7bVsxkp16HGCDRQaRPWBAmwRhp/AwBYEJ1uLBp/k9pGZ9G7AeEx14AAQHQ01dbfocJxeJsFLIg9mkhdD1hdz8/aYARaTXCRF9/2r+9gs0dac6e/wrJRyfHZIcAACAASURBVLtme/3uHtsyWK2MCIBg26Zu7qbXprp6K16tvQe07TC9s4Yu/lj+AQLAoD0rj5/fUF4VbJ96Pyf6SoArOyuzFExde5XvSvkXPYSu9Zlsn8TaVxofCujfuiBh5wGseeQh21r/JAzy/NJx1xq2CRk3SwAoDrZzVVGAEJtem8KO23iUrlby1hue3onejUif3lV5b5OuEAAm2DRFwVj5V3qqS3qNlktCzwOorYyP3VJlT8porWSuN/yCsQ8YXhWQqGNP9ctL2MT0IbYKgHy/9LFJPseV0ZgtAIIdbueqWQGibFk6jZ18dYor5w1Q1z7lnd7hGumbfwZIEGYQACbWoq51pf+nu6r4iyB8NQu2BD4VcANbseKrJhaHc1GZdQCQWlGwcmG+ZkMLNtJEHAZoXT2XTc8wd7//aF3/wb/liKk/ds46nU3ZSgEQbNPK53Mr+RUFoWRPeVXybdMVAsDk6tCzrmxY1+qiq3rLLxF98eUdlScvbln0FyYXhTPRZWRkfE0WxA/UkrdZ4Wp/M8GQ80ikNai05K8k6z5bW/7BAiBb9L/pjHU6n6rdAiCcI+54Z1ZgV7zmN6axE69MCWxJTGRsxRACxUlx0xa8lBalSZseUR7C5c3mexAAFlSJ8zWlc42UY2JtCLTo0gfvVvyrBcXgTJSZHq/PLFLXGs+hl6fqdiqJshqgd/PDlu72F0z0kT7n+aXzzlin86nyIACiOWcaZ6eWOC2poxn21A1/+s3prHXZtEC3PM28pzF5+qfP1FVPv1EYCkvP0LMUhwVj9rrrd4R3hgCwqEr01cx9KwLmMcvw/MbyRJmT9cWV7Yu8FhWBM9HKnpTntRK3WeGHJ3vZyWUxd/+KaIAXt8X3VpQ04//xh7Ica/kHC4KRSWl/74yFOpsq7wJAr9N26XMQABZWh771pYf02EVPgpzRcmlH5RQL4Xck6ttlQew0i9D1xJPj87OW5frWBveuK4tb5XlpRyWzY7OfYJKP9jnH63/CEQt1OFEIANNn8kcU9CrIBwLAwvrADv7uj3vXlXWqKIcBZdi/Jd53aF30goXQOxN1VrLvJ3pI2+xnRqf4WdOb+kRAvPYCLCvP46Llr4iCXJ90xhkrtS/VFRkZXz36i3F3Hhs07v5jgwoKj99ZMK3tqemv6XGIeMZ84UBlQWVCZUNlRGVFZWafhcR/Sl3V5d/oqS49rdV+e6rj9qj2q5d3VpbEZclnJYkPm03meuMbNdjHGpdpFwE91fG1M+D5rQvZ4qKxXJE/iYACKfVq3pAh34jLinDbbbfVDSpMr7uzsLHuzkIW+t9473jWWjqFda7gYiLcgNaXVmftpvCEOWFPZRBaLte/N1LZxatdOvFejN12e8+6shqtdnIx/vZn+f2l7YuGOlEGtqSZKYjH9RK2Fc9lJXnZjmcmanZw8TIJpbVqLps/5gHuyF/pBcgW/dNtMUwbEzkmTv+zul8U7IxALreQTr30EDv7mInHW682v5Ws1WnzHJ6wJszVlA2VIZWljaYT90mdXz+nrKuqWPUSwfiamL3o9MXahf8Rt4X8YJL/n60gcTPiXFI0WrMIcPtQwJ7FMyw/3U8hcr3XXJ90NN4qRN0vCl9XRTBBPQMnR01k517V3lvFM9nylDfCljDWWi5UlvFmn06/T++GOd7uNbNVHyHsdj98/TC32g+2VnzHaewtTT9TSJlqBllbFUf5qPtZm4a1xz1r3TkGdbG2gr01P5+NS03ltuWvCIZ8SfrcUqO0OfK6XxTkayaZ60LguDCOtc6ewrpM2NqaJ/J1NC8riwKYErZ6y4XK1GYzivvk+jeVfL+nuqRPjW301cxx+cTsiudYbfkfxX2hyoK40yryNiveUYO97N3n1A8JuG1bynPr57PHCmXuiV8RAHQd4/NlxkPlaByU97d1dxZ+optorguBhvTxrO2Z6Zp7rNQ400QKQxgSlkbLg8qUyjYebJSndyBS7Ksp29VVFXvYyqUHBH10ubaygCfMLcvLyOTk78iC+IVZRG11PI+Nk9m5qtmqnKxbzgnYvXg6m/XgPa4ifxIAOT7/DssM08aIjw0qfMwEsrlBWKcKJrHOZZgkqFW0EGaEnZllQWVroyklVFIXNsxL7q0ujbpU0GUrAr68vKPyxfPvPfJ3CVOQWR5xlNWkbXb8o0U/a3xjBlNzjjXPkwJ71pezZyePcB3xK70A8XA4UN2dhd+uu7Pw92aSDsV1PGUcO71A/+6WWsnT7eEJK8LM7HK4XrbfThiH7sCLtq8qfq97TeRGGc8++Po4P+uuKWftK2dPcwA+Z5PM9IirzCZoO+JbsyCH1b80mXWoGHc9v2EuV2NRRPxNr09ndMzqnKx7XSsAAr0Ag/0/c9aCjaVeN6hwjgWkc4PITjw4gXUs1r/DpduJPVb+CRvCyMoyoDI2ZiV4OhoCp96Y9jz5srO0NLaqOGzvLK8TAvs2zmdNb1zzxS1vTH0w2nvG3W+jPZ6vy4L4oR2EbXYaJACUc8pJCLS/U8S614Q3PnJCtFPgpdoKR4VA74Z5N4xNybvrBYDP/7ZbK0Zg2d+gwguWkg/ND7irkDVPnYy9A4KWOtKafsKEsLEc/0GFF7As0LpaqggA8ml0eBQ1ykJ7BHibmH1hy8Os5c2ZNziE8p5wAmCY4E01m5jtii9YAChkenzxJNb2ThEjYwvX8qD7dk9KIdFBLf5TS2fcYmxKnt0uAPL8Ur91rsXamOsGjZtiOfkELRkM7B3wK+wdcPZXGtb0B+FnqKwGjYu7vdutrR3qYw8WAIpfIyHQ9k4x615TcqNXwOmeWPLF3TVzWetbs8KenplwAkAWvPPtImyz0wknABTjo2vT69NYx6qiG8anCAKaN2D18cH92xayc2vLAgrz+EuTwhK/kle3CwDaFVC9q+AnZMMPM75Wd2fhOUOkopOcTo6eyM69lnh7B9A707s7gTmVNZU5PxYYPzkJJwAU/0ZXOk667W0aHpjNLmxZYGsvrOKLm5fNZNRADM5X6OcEFABildnEbFd8sQRAcOE2LpnMzqyYxTqrZt/omrpg8rGVNJbUtnI2O/n6tKhGFpwv+ux2AUDzAMYO9t3pNndWN2hcrkNEFCDAwN4BJQmydwCt6S+Zwgyt6dcptm4p40Hjct1mp27IbywBEOzzqGeAekPPrSlj/VutOcH1wuYFrH116YDh1uB8hPuciAKg1S7CNjsdLQIgtLBPvjaVnX27KEDYHVWlrKt6DuvZMI+d37yAXdy+cIBCpa4jMlYieepCIuNtW1XCTq8oYqQsSeGGpqH2ezwIgGxRWuAGR6XkkQ6NqRtU2HwLOZhBMDriaKS9A56N30mC9G70jjxgTWWOA4OUWmDeVYsACPWLJ16bxlqWzwr4U/LDfZvms4vb1c3VurhtYcAnd66dw86unB3ocW18ZapuX5yIAuCI2cRsV3xGBECoEYZ+p66ihiVT2IlXp7J6A+QeGm+47/EgAHJ8vonmuRPrYzo2qGAYF4QUJBhOFU5inW/Gz94B9C70TrzhTGVvvYUlVgpGBEA4n6jco+FTalwRqZMvbnxlSsAfx+rKV57Xek1EAbDYLsI2Ox0rBYBWwzESPh4EwMiktL93k8uru7PwGG/ERPmpTxnHzjzs/r0D6B3oXXjEmMreTbbqhrxaJQCM+FU9zyacAMhK8haYTcx2xQcBwMd5AfmS9Ac3OCklj8cHFaZySkw3CPPEMNo7wH2TBCnPlHfe8SUbUOwBV+MIQAAYx9CRGEaI4p/JgnjGLtI2Mx0IAD4EQLbX/5wjxqsz0bo7C9/nnaAC+aO9A6ZNZp00ezpo/TyPnymPlFdb1vQHDZsYKMf3dZoPHguDAARAGFDccisrKUU0k5jtigsCwHkBkOeX+txi55TPurseussAaTjSsm2QHmJnf83vAUOUN8qj23AlW3CT7fKcVwgAnktHRd7kJLFcFsSrdpG3GelAADgrAPIl6ZPRPt9PVJgXN0Hq7yzY6jqiut7iPTmGr70DAmv6xzi2pt+w4CBb4MYwXZiR2iNnvrX7aFv+7qPt8+tqXtugZ8ydq2cWT2aHdmx6du+R9ordh9sza2vPfN2FxaI/y5lJYlKmIJ4zg5ztiAMCwDkBkOPzH87y+/9cv7XZ9yTzlP8RG1oqsaFlb5765YQv3SoAKN+BvQNKp7Au2uDKqWGBVUWstZSDNf0GhwLIFsgmArbhSYAz302scgfq2n6w50j76T1H2pnyv3/HLnbs5Wt76nNF7C9OjLks8NhrpWzv7iM33uX6O+19t64tsQ6Rku9M/Tb1BmQJYrcdJG4kDQgA+wVAjl/qzvb5xpnoSyyLit1b/v9Y+pwnWXpZD0svY/T/6ZDZrH4Qt7PTVbdqG+8Zz9qfs3/vAEqT0naziKK8kw2QLSh2cc1G5jxJNmOZQcZJxLW17I/2Hmk7ohB/8HX/7gOsbsmsmITLk0A49sY8tm//iVDyD3zffaTDteecGDK3jIyMr2UJXlkWxD1GSNrKZ9ctzHWVoUUy+nkj7+P6NEDa6jfb6987Rkz9b0NGZcPDbGjJ99k9ZUUsvawhyLkHO3p22T/T9QSmEPCpcfbsHRBY0z+OvzX9Cg5ar2QDkewjYDtkQ0NLvm+DybouiT1H2kuCST/088H9daz57bmGNkeL5CvNvH/ilcmsqeoxtu/gqbDkr7zX7qMd97iukMzMcFay7yeykPKaLIifWknoWuN+96lxcSEAXpgynEsBkO+XPh7r9b882pP+LTPtyey42N0zv8mGzhnD7inbztLLrkZx7DecfmfK1LgRAfXiOHZmoXUHDFHclIZWkuU1PJW9GhsJ2BLZFNnW3TO/abbdujG+vYfbfrjnSPsfFHKMdD1wsIG1r1vEOt6ZyVqXTWcnX50SOCXQTALXGhdtQdz02lR2+s3p7NzKWez0hmfYvkOtUck/8H5H27sTbiggnHGOEMW/zhTEGZmCeFwrWVsR/vDvJsSFAFg9L5sbAUCt/TyfdDLb58sPZwO83Ase12fpZR+rdOg3HP/V9DLW4uF/vboWEj2ROYF1vGTe3gEUF8WpJQ+8h6Uyp7LXai8BG0vw+QKMsa/sOdK+NxLph97ff7CJna351S1zVUgQEAE3vTaF0fksxxfHHp/XSvQUnnYKpPhPvT6VnVk+nXW8c+tS2pbNL7A9h8/GJv+bcxyW8OL7uMiH7En5L1kQH3dyrkCsU/b0GI7dz1AF2PxovuMCIM8v9eZ4/U9w39oPM66vw5kHCOCzu0tYQxzMB7iFdH9ZyFoM7h1Aa/opjrpfFsYV+VNZU5nrtZeg53oCc0sSbL7A3sPt00JJPtb3fYdb2en1T98iAkInrxI5n31rRqCngAibegtOvHJNINA2wNRyJ0InX0mfG16+Ru7UhU/hSEw0v3GtZd+2YkagdR+aRvD3U1teZXuPaCL/a/MBjrZ7uSBfnjKRkZHx1UyP15cleJfJgvixFS39cHGOHOxlnauKAsquZem0gFHYTd5G0iMjJ2VK77D9iXGOCIB8v/RRjldaOVoU/40nmwrNi5px/SDnrMnBfyDNiiuSU8RAQ+pD7Ozj2vcOoGfoWSWeeLpSWeu1kyjPNQTmnMT5fIHdhzr+154j7R/HIvxwv+89fIa1bHo+qggIJmgrP5/ctlxLqz8kbMfZ2oa+O0L9E75fR2DsL+7+ZmaSd4zsEbfLgvhlOOI2615FzgMDDKr97ZkBJUgq0Qg5W/UsdUnReBiNPwUbeevyGWzi0CG2iIB8Sfo8x+ffne31cr0Vqp5x/ShOOqrj746j+QChhN00diI793rsYQEKQ2FDn4+X71TGeu1D5XNXA3NQ4nC+AGPs9r1H2neGI3e196jF3bxlyS1+L9gH2vG5YUdVCKHfXMKo9j12H2l/BoSvAoFMj+evZI+YJQviG7LgPW8W8SvxvPvM+KjGRN1KyliTU4KACJ+6pqh7q3PVraQfavCLp4+wTADk+aVLOT7/xmyfL0NF0TkWxOi4vkpHPYAIaEy4VYhf8jueNI61lkXYO4DW9JdNYRQmXsg+9D2obHWO+w+wFZU29nG87C9w8uTlfzrY0LVYLUFGD9fGmrYui+q3Q/2iKd+riln9rg2GyV95t6Mn+2YdP937PcccpdsSLi8v/8owQfzp9d0G9xntHZjxQLpmI1ImnxAhU/c7jSOZ1dKnsSkiexqLouGIM8tjj0OFGnbdkimmCYB8Sfoi1yedyPb6F7nhlL5w6/VVOlq9DnrAczQ23HhXfHZ9K4TYeO941v78zb0D6DPdU36PxyuVqUnj/gNsRqWNumq+QHMz+5Pjzf1ifXP/Ew0t/ScbWvpZffMFtvdoh2kE2li7UrP/DvWXar93Vs1mde9tNy3v+4+dY4RJQ0v/1YaWi4caWi4+XN9y8ReMsa+6jZcdy2/GIP93Mz0pw2VBXCoL4gWlVa/2urYizxQDovF3GjYgwqbegtZl0wIETiJBmYxCYoGInb7TfSJ46san8NSyD51dqtYww4X7dcEw3SIgzy/153j91WO80lDHClZDwlaO66t0zAMc+u9Ti+KaDAMEP6iQNeZO+oD+6wbF1yS/cAKGylSvPVjwHJfzBepOXf5BffOFhxpa+tc1tPR/dJ3gFKILXI80dJtGotSSrt9Zw7pWF5vix8P5UrrXWVXKju5+z9R8HzvZdwsuQVhdbGjpX17fcmFUw5m+v9HgChM7qNI7kJkkFsmCuFwWxJPReghKsu5lHSFj6JEMwG33j748mU1Kjz0XoEBK/SIwa9/nfy9blBbQ8kw3WJGd4/p6nXevOC2uRcChQYVs9v0TAv/0ORxpxss9Kku9dmDxc47OFzhz5szXg1r5TUEkFoncWH1zv6m9ACQC6t7byjpXz7ZEBJxbM5cd3rvfVPLfX9cZEZ8QDNE7YISQ8oYM+QYNGWR6UvJlT8rz13cj/PChu9PYqWXaZza7SQjUPnnrioB8SfpDrl9qy/b612f7pOIxfv8PjWBr97NOjesbceCn43Q+gEL+WSMmMvonIRCvIoDK0IgN2PisLfMF1LTyQ0hsANkdPdFrKqGSCDj6/i7WWVViqgjoWDufHdo3YF9/w3mvO3V+ACaxMLv+O/UOvNXQcmE0egd0MtDJl2Z+s+3tGSfcROZ687quMq9+rNef65aWfbgi5WFcX68T//zuEnYizuYDhJJ/PIsAKjsqQ73l7+Bzps0XoFZ+fXO/t6Gl/8mGln5VrXw1ZLav7pxhIlUm0ynXI3v2snNVZaaIgPbqhezggeOm5/FgfZde8g997mpDy4XDmDsQjjUi3OtYMeVPu1bPWq2XUN34XOeqorER4OD2No/j+nqd+YepRey4wdPmeOlKj0T+8SgCqMyo7PSWO0fPaZ4vQK38hpYL4xta+msijeWrIfloYY419ZlOriQEDu09zDrWzjMkAs7WPMr2Hzxpev72Hulgx/W3/kMFQOj3S+gdiEJpPStn/qxrdVGTG0nceJ6Ll7atK+L6OEo3jOvrdep93umuHyOPRf7xJgKozPSWN6fPRZwvYFUrP5oAoN8OHO80nWRJBBzcf4x1VD+sSwScWf8k23eo2ZJ8HarvDiVtq74rvQMLG1ov3pnQKwsaVpR/rWt1UUXX6qIvjBOpg2enGz2zfVXRua6qWVxtQenGcX29zv1skntPwFNL/vEiAqis9JazS577+IthD1eff279841N59c3tPR/HIusrfidxsKV7nuzr/sPNLK2dY9oEgGnNz7L9h5WcajPzX39Veeflj/SMkgrcFQR56WG1v4VNHeg8ez5v43STo6fnxi77fau1UX3da0uakho4h8gHIqXnltV/K9OlrSbx/X1Ovgvhpayk79031p5reTvdhFAZURlpbec3fbc5yMqWf+vV7HWnSccIadD9V2qSVSrSNh3iA4R+rUqEdCySfOhPpryfbixxxF8w4iDa70DzRdmH2vu/wcnecCStBXi71xdVAfij9hjQb0hr9spBOJpXF+vk/84rdhV8wH0kr9bRQCN+1MZ6S1ftz/3af4TrPeFjezUwbO2kdW1zYG0b6WrVgzsO9TCTm/4TVQRcGrra2zP4TZNhK42fQq371gHq29xrPUfrSy/bGzt39TYcnGY64cJFOLvXlV0DMQfkfhDK4KlQoDddtvtbOicISy9bFvgTHR9x6fGlUO+4JvhivkARsnfjSKAysbtJG5K/u8pYx9Of4G1rz3AGpoDu9VFIxHDvx02eXOgUHKm8wNaN/421PcFvp/c/pZlxK/k4+jJXsMYhWnJmx1n3fHm8x5LWuVWRhog/lXF94L4VZN+uIpgqhBg/gl/wtLnZLOhZSdMcUhxJhzakidzLQLMIn83iQAqE9hq2QAMPs17gnUu28UaI+9cZ5iIzN4iWCHeW69tjI7vDW4cNuyssZz8g7b8NYyTDSKA8vhWU9OFv7eSs02Jm7Hyr7Ts2/5o0/GGD8+tW3hLwQYXMj6rFwZndi7/sunokdbTezel6CkkVl7+FXZP2UQ2tKwbznSgM1Uw+XJoKWvidD6A2eTvBhFAZUFlopQPrgNt9/MRi1j3K9tYg0UT2WiM/FbCtmZY4MSuatZVVcyO7d1jS3pRtvzlWBBc6Gs4fXGQHg6w/BmF+E82tHyiKKKmY8cChQqyV0/2oVh1bPg1a2y+3lXVfIFpFQLsntL/w9LLdsN5DnSe4TD5JK2Y1Q/i6+Q8q8ifZxFAZUBlEa6McG+gLX886TnW8n6zBeRFBwWZvzlQqKjYfegsW7fl6Od7jlg35q+keUD9lr8W4Gl46Oaz+pb+PMsJXW0CN4m/+QbxKwKArq276VAI/QSYyM92riljJxtODTRCFUIgsJQvvbSYpZd9Coc50GFGw+QiR/MBrCZ/XkUAlUG0MsJvA2366v3lgcmCjSZvakNj5Qp5WnGt3X2KvfTGVvbs4hr22ls72a79py1N73iT7i1/B/riaycH2n+/9WKFWo62JFyA+A9sf+RkQ3jivykCLrC2Lc9DBOgQQS0HdkQ3rOYL7FSYoQE2pPyv2NA5e+AkBzpJtZh0DJ7i+HyAY4PGBfbzV0ja6iudHUBpOr3DIWGvtpwQbqCNU2/AyZvH2kb3ISoJbL8FWwSTmKjZVseef3lDgPxJAND/C69uYlvePWGJCDBxy19TcL3Jk9p7Bhpb+ydZQu7RIg0iftWbVJw42c7OVS+ACNAgAs7WvqLewIKEAEsv/58svawJjnGgY9SCCY09n3JwPgB1gW8fOi1wqI/VxB8cP6Xp5BAIYY5xf2O2S3b+h9zH2an9Z9T7kBhCwOwtgncfbmNvVe25hfgVAXDtup5VbThkqgjYe7TdyU1/TCuLINFwtaG5/4FofG3ab0T8zQe2LTrZ0Kya+IMyypqON7DONXMgAlSIgPZNv2GNp7RvUNG66yT7IuvhL7QQHcJGdrafDpntCBkSAdM59xsemGm7AKA0KW0nRAClSZjDJiPbpBZsPh+5iLW+22Qa8RyoM2dzoB17W9jLy7ZFIf9rPQEkBN54Zxd778AZU4TAoQbtPjWYw/j8fOHT46cv/l/TiD40IqPEHwxa07GjrHNNKURAFBHQsfFx1tik/WSq01uOsy+HPQznafLSxEv+mbZ2iSvkT47eKQFAaTshAghrLQSHsLGFAvkE8g3BfljvZzowh1rRRuYBbKytZ79dcmuX/60t/5vkr9x/8bXNbOv7TYbSdXjLX1PwD1duVCYHjnf2m75hUID492+rPNlwSleLP1xm6d6pIwdYV9VsiIAwIqBj/aOs8WSHZmNpqm1gJ4UJ7CPMmraEQDptmg8QTP5OCwC7RQBhDEKPTehaMSKfQL6BfEQkn6zl/sH6bt1EvHbjYVWtfoX4g6/PvbSebd7VqDttjrb8NaUcqMyI/Pcd7Qhgcriha2lo413Xd6uIP9jImg/tZl2riyECgkTAuZpKduJEm2bjaGzoZs3eaYFWasOgcRABJvcAkMO9OrSUNXsmWNoTEEr+lK6TPQAK0djRE0DYEsZKmriaIwSI/Mkn0KRO8hHkK4L9sJ7P9acuaCZhIqm6pj62RGW3fzDxB39+q2o3O3qil+3VeOjPvqPnWAOfW/7qLo9g8qcemb1HO67WNV34N12krzzUum/bLLNb/JGMrPngu6yrqgQiYHUR61j/CDvR2KrLGM7KC24hJogAc5xnKAn9YcjsG87U7Fny4cif0udBAFA+rBQBZK+EbSje+G7MjoPJX7FX8hWR/LGW+4cb1fcC7K/rvDHxzgwBQPmkZXz7jqnfm4BEg5b34z1sKPkrQzIHj3e9q3C5pmvL+5v++tSRgw12v3hTXV3Crw5o2/o7XWP+VFZtZa/cQv5KRYcIMOY8I5HPFWlWWLwV3PVcI5E/5YEXAUB5sUoEEKaR8MZ9fXYcjvwV2ySfYdTP17f0M2pVK8QT6UpnCQSnZZYAUOI8eDz2pESXb/pzC3703pHI/3ovwJcNDX13aCP/fZvzTzSe+UwB1e7riRNnWceGxxOyJ+D0u+/o3sLz5KZjUWdqQwToc56xSKcrZappIiAa+VM+NmbYvwqA0oyEgdkigLCMlBbu67PfaORPIoBsjnyHUT9fd4p2CLw2/hwqAOh+uK12zRYA9A5HT/SwvUfC5yNw2p9FWyQbxU/P89HIXymDww3dz6kSAA21K+44dXjvHh7GRmjJ29ntLyeOCKgqYc0HdhqqhC33l8UkIogAfU40GvlcTS9jLcLEmNgrLa5I11jkT3k4fH+x7csAKc1o72+WCCAMCctoaeE3bfjEIn/FFsl36CGg0GeOn7rADtV33VgZQMRPrX46RCg0LH23QgBQvNfy0X1LPg419kTMR7i88X5PDfmTCDhQd+5iTAHQvHv9j2Lv4Kd9ZyKjILbs3cxo+9t43v6X9vY/ebwxbAVRi1/r0lrVBAQRoM2JqiGdz+4uYY13PaS6DBTHRpCR6AAAGOVJREFUq1zVkD/l4+I9JbYLAEozFgZGRQBhRxjGSge/q7ddteSv2CD5ELX+xqxwS97crnsVAE0GpEmAZuXFTfGoJX+lF6ChoeMvI4qAM7Wrv3WyvulDXgE40Xg6PrcOriphrbvXsYZmg/tQN/ez06na1qZDBKh3pGpJ5wOd8wHUkr+SjyeG2bcbIKWlpBvrakQEEHax4sfv6m1WK/mTCCAf0tBsbyNv+er3DQmANRsPJ5wA0Er+JAIO1XdNiSgAmo4eOcsr+Qfnq/nADta5tjwuegPaNz0d/lCfGNtvBuOhfG5dskVXyxMiQL1DVUs+/b4Z7PidharLQyv5Uz6u3FPCCodPtrwngNKgtNS+O4XTKgIIK8JMSxoIG91u9ZD/jV6AJVtsJdTNOxsMCYD3Dpy2Nb+Kz3Xqqof8SQAcrO+qDSsAWg7t3uLUy+hJl84QOLvjDdduHETnH7Ts22rqGtTm9NmqCUep6MoVIiC6M9VDNkSChKuCcaRri2eC7uNtL95byh7JnGqZCKC4KQ09709H9tK7RXpv5T5hRFjpSQPPhLdbI+RP5UK+RI9f1vsMzQ14fcVOXSLgner9tuZV7zua9Zxe8icBsL+us3uAADh2+FhN8JpMszJqRzw0LHBm11uss8od2wifq1nEWvZvYw3NfaYa7cmtdTEdreJwI10hAsI7UyMkQ/vXtydPDisEqNV/wTvdFOI7fd9sNie3hOXkF5vyT3FRnEbeXXmW3pHeNdTuyN4IG+zxb67dGSV/pZzIp9jhw5U0aMLe2s1H2eLXt8QUAs+9VMOWLNvONu2oj6sJfQoWka5GyJ8EwL5j535/iwBoOvDuCGUP52u7Mhkch9bRdR3pZbXcpx6B0++t5vZQoY4Nv2LNB9/TvbQvFhZnpjw3wMEqFVnLFSLAXGeskCBdyTHTWfbU2qUNbsye6f7IxIVs8vRKU/4pruC8G/1M70rvTO9OGBAWRuPE8wNt1SzyJ59BPiWW37Hi9537z7DVm+pi/u85on1rdCvya1ecRsn/mgDo+OwWAXDoSMtH9EPwv5t3R6LDcloO7GC0iY7T5wp0Vs9nZ3a+yZqOHrG8IrVe3/JXC9lHCgsRMNCxuoFsSqZUmEL+JCIoLje8M/J401bNJH/yDeRT7CK34HRq956OSf4kEN4/3O5I/oLzatdnM8ifOJ62Bb4hAI4dOJYdTPzBnw+F7NRk14uamU5jU6ftYqCzel6A9E8dPWxZaz8Uo6a9rex4mC7WSASv5j5EwE3H6gaS+eKeMjbFpNY/CQCKi+J0w7sjj9d6l6jOqqnbasOQTyHfEupvrP6+bXeLKgHw7kHt56NYnXcr4jeL/BV+vyEADh5pvqDcDHd167yAcIVAPQOnjh5irXvWs7Pbl7Bz6x8xvIqAji9u3/QUO7NzOWvZv501HW8wvpRPxxDK6UdXmFrxFQcBEeAeArx0/xzTWv/KMALFCXLl3wbMbvkr9Z+u5FvC+VMr7219v1mVANi1/4ztebPyvcPFbTb5E88HBMCR/Uf+Kxzph95z87yAcIAG32s81c2ajh0LjM237NsSWIt/5t23A6sL2rYtDuw5QGKBuvFpfgGJh5b9taz50B52sr7JthZ+cJ7DfW7NuvXQn+AKbPQzRAD/BEAk3fbgXNMFAMUJAcB3+VtJ/uQ7yLeE8zlW3tv87ilVAmDHvvhe+mcF+d8QAIcPNzaGkn20726eF2ClsfIQd9PgyZb0ACjiASKAbxIgkq7PKjddAFCcEAD8lr3V5E/1n3yL3T5u486TqgTA9j32D0/YhYVV5B8QAIyVf2Xf0bar0Qg/3G/xMC/ArgK0K53GpvOGtp5VSD7WFSKAXyIgkt49cp7pAoDihADgs9ztIH/yCbQ1M/kYu/wZpbN+xwlVAoCGCuzMl11pWUn+AQFwfN/utHAEr+ZePM0LsKtArUyn6VCbpa3/YGEAEcAnGRBJbxw733QBQHFCAPBX5naRv1L3ycdY6cNC467Z3qhKAGx+75St+QrNpxXfrSb/gAA4evDoG2rIPlKYeJ4XYEWhWhln84YjtgkAcggQAfwRApH0itwFpgsAihMCgK/ytpv8qc6Tj7HSh4XGXb21QZUA2LSrydZ8hebT7O92kH9AABw6fPJUJHLXch/zAuw9MCOcwbW8tt1WAQARwBchKAT9UuHDpgsAilOJH1fny90J8qf6Tj4mnO+x6t6aLcdVCYANO07ami+r3pfipa2QqWGthX/1hr3twJGWy3ofDn0O8wKcFQGtT6yyXQBABDhPBqGE/MR483YBVJYBUpyh6eC7M2XvFPlTXScfYyX5hcatZhdAClNTa+zo9NB0nfy+v+6cLeRP/H3b/iNnPgslciPfMS/AORHQWv6aIwIAIsAZIohEwPMmm7cLoCIAKM5I6eG+feXvJPkHBED5a7YJAGoJqxUA1dsabMuXleLgYH2XbeQfEAB6VgDEEgj7jnWwOptni1pZKG6J+/TcVx0TABAB9pFALMKdPs2cMwAU8qcrxRkrXfxurQ04Tf5Ux8nH2OUPiUPUCoC1W+pty5dV73+kscdW8g8IgFhkbuR3zAuwtzfAaQEAEWAtAagh2I/uNX8XQEUIUNxq8oAw5tsBD+RvtwAg/lArAKo223taodkigCb9GeFavc/epvdBtc9hXoB9IoAHAQARYL7z10KoPQ+YvwugIgAobi15QVhzbIEX8rdbABxu7FEtAEgo0JCB2cRsV3wHj9vb9a/wt+UCgBI6UNfp6sKxywiMpsOLAIAIMMfx6yHQ5kzzdwFUBADFrSdPeEa/PfBE/nYLgIP13ZoEgFuHnSnfCiHbfbVFANBL0bwA6uYwSnJ4PnKPAk8CACJAv9M3QpiHRpi/C6AiAChuI3nDs9psgjfyt1sA0IRytUMAFO7oyT5X8suB453xLwACIuAoRICVAoY3AQARoM3hm0GQtaOtEwAUtxl5RByx7YJH8rdbAOw7dk6TAKBJdFb6VyvidrL1T5xsWw+A0rVBGxygJyByK96IkfEoACACYjt7MwlxTY752wArPQAUt5l5RVzhbYNX8rdbAOw50qFJAByq73adADjc0O1Y698RAUCJ7j92znUFZYSY7XqWVwEAERDe0VtBgG/km78NsCIAKG4r8ow4b9oHz+RvtwB4/1C7JgFw4HiX63iFejmUxrETV9t7AJSXdGN3jV1ErjcdngUAOQ86Teyzu0tAIuk3Hb7Z5PfcOPO3AVYEAMVtdn4R301boLpBdYTqCq//5GP0+ietz7178KwmAbDvWKdtedP6LuHCHz91wVHyJy52TADsPdrOCIBwwOCeviEC3gUAObVTngnsy6GlIBKLRMCiieZvA6wIAIobhH2TsM3EguoE1Q1eiV/Jl50CYOf+M5oEwJ6jHa7iEyc2/lEa4MrVMQFAGcAeAfqIPpJAcoMAIEfSljwZRGKRACiZYv42wIoAoLjNJD3EdVNMUJ1QSJbnq50CYMfe05oEwO7D7a4SAHZv+6uQfvDVUQGw12WKLRLx8nLfLQKAHFyvOA1kYrII+OKeMjZluvnbACsCgOKmNEDc5mJAdYFn0g/Om50CYPueVk0C4L2Dba4SAE4u/1NEgKMC4P9v7+5+ozrOOI5zValSr/r3hNASqrSpojYtSpOiFBoRRbxDQGplCakobchVe9P2okqlVOSmuSIQarDxC8Yv2Ou1194XvGtjbDA24JC0anGIMLh6Uj2KcVG0M+fMzJk930rbY5PdfWY/PjvPz+ecHcsgJiL97GZWmv76ccQUAGRS+dcLv6KZpBgCPtvubhlgDQFSgwCQXgCQ98D6Bpv1r30GgIsD00YBoG/kelQBQC6G10Ycahs8ABQr8V25ub7pZunr2AKAXPDE9QDpNZP5n7lbBlgDgNQgAKTzM5N9P+sX/W0MJD4DQMflhlEA6B2ejSoAyBHwUI1f6wYPALJMcJaaaMxjiS0AyOTCqYB0mok05fIOd8sAawCQGgSAdH5mMR361yDgMwCc76sbBQA5ZRDT/K1NOOQ2eACQz0HG9EPL8lhjDACVzXvXHvLRwFSa6uAv3K0CqAFAahAAkgcA2edl39fGGsvWZwBo771qFAC6Bmai6iUhG7/WDh4A5OOAWW6qMY0txgAgE9/i996iqaRwLcD5192tAqgBQGoQAJIHANnnY2n668fpMwCc664ZBYDO/kZUvUSbcMht8AAgLz6mJpvlscYaAMqb97JAUAoB4MM33K0CqAFAahAAkgUAWfBH9vn1jTWWr30GgLNdVaMAcKGvHlUvCdn4tTYBYCbdz+KHDAixBgCZ/Ba2HaGxJAwB7+1xtwqgBgCpQQBIFgBkX4+l4W8cp88A8FFnxSgAtF+aIgCM3zC6sJAAQADIxGRU3bx37XHCBpj3xvSH/e5WAdQAIDXy7pzk9cs+Lvv6xsYay/c+A4DJnwKW+57ruUoAIAC0zm/0pkcTYj4CIBPgf374a5pLghB04rC7VQA1AEiNJA0w74+VfTyWZv+0cfoKAJXpT4x++5cA8HFXlQBAACAAPO2NG8O/cTFgskPLx466WwVQA4DUyHsTT/L6Y734T+cPXwFgsr5sHADOXKwQAAgABAB9s8a2rW/ZT3OxPAJw/yfuVwHUECC1kjTBPD9W9vHY3pfrx+srAJSm7hoHgNMdZQIAAYAAsP4NG9vXD15so7lYhICll92vAqgBQGrluYnbvnbZt2N7P24cr68AMFa7bRwA5DSAnDowPXUa6v56JX7ILRcBchFgpial5eeP0VwsAkDjVferAGoAkFq2TTDPj5N9e2NDje17XwGgWFmyCgCTjWUCgMFRAAIAASBTkxIfB7S7DqD4mvtVADUASK08N3Lb1x7zx/80qPgKAIXyolUAiOmPy4X8zV9rEwAIAJkKANe3HqK5WBwB6NnlfhVADQBSy7YJ5vlxsm9rI4116ysAyBLxph8DlPuP1+5wBIAjAPm8DkDenLFOLDru6e8coLlYBICPdvsLAFIrz43c9rXLvq37eaxbXwFgaPymVQAoVpcIAAQAAkCsE8zVZ/fRXCwCwKk33S8DrEcApJZtE8zz42TfjvV9qeP2FQAGxm5YBQA5dRDqoj7TunoYPuSWUwCcAsjUpFR+Zg/NxSIA/Hmf+2WANQBIrTw3ctvXLvu2NtJYt74CQP/ovFUAGJmI58/Lh2z8WpsAQADI3KTEnwc2vxDw3YPulwHWACC1bJtgXh8n+3SsTX/9uH0FgL6R61YB4Eopnj8vr0045JYAQADI3MTEWgDmAaDtiPtlgDUASK28NnLb190KawBIEPAVAHqHZ60CwOBYPH9dNmTj19oEAAIAAcDikLttI3DxuNWXjq9pc/a1lZouXkurPicBwOy6rO6ha1YBQE4dmJ6LD3V/bcIhtwQAAgABIPIA8Ol2f8sAa8CQmq3arF28LgKAWQC4ODBjFQD6CnMEAD4FYLazhUqAadeVw3Prz9fF+jWnAMx+u55/xd8ywBoApKaLRtmqz0kAMJuTO/obVgFATh2kPa+6er6Qv/lrbY4AcAQgc6GBAGAWAMo7/C0DrAFAarZqs3bxuggAZgHgQl/dKgD0DF0jAHAEwGxnc5XwfD8vRwDMGqeLiT7Ecw7s9LcMsAYAqRnitcZakwBgNie3905ZBYCuwRkCAAHAbGfz3ahd1SMA5DMAnH/d3yqAGgCkZqzNOMS4CQBmc/K5nppVAOjsnyYAEADMdjZXDdn38xIA8hkAPnzD3yqAGgCkZohGGmtNAoDZnHy2q2oVAOTUge9517aenocPueUaAK4B4BqAyD8F8N4ef6sAagCQmrE24xDjJgCYBYAznRWrANB+aYoAwBEAs53NNsFl7XEcAcjnEYDf7/e3CqAGAKkZopHGWpMAYDYnn+4oWwWAf/RcJQAQAMx2tqw1ctvxEADyGQBOHPa3CqAGAKkZazMOMW4CQPNzcmX6E6vmL38O+OPuKgGAAND8zmbbbLP4OAJAPgPA0aMnva8EKDVDNNJYaxIAmp+TJxvL1gHgzMUKAYAA0PzOlsVGbjsmAkD+AsD9n/pfBVCPAkjtWBuy73ETAJqfkyem7loHADl1YDt/+n5cyIv/tDYXAXIRIBcBRnwR4NLL/lcB1AAgtX030ljrEQCaDwDjtTvWAUBOA/hu5Lb1tAmH3BIACAAEgIgDQP1V/6sAagCQ2rE2ZN/jJgA0HwCKlaVEAaDcWI4iBIRs/FqbAEAAIABEHABGX/O/CqAGAKntu5HGWo8A0HwAKJQXEwUAOYVg+1u5z8dpEw65JQAQAAgAEQeAnl3+VwHUACC1Y23IvsdNAGg+AAxP3EoUAMav3iEANHkhIAGAAEAAiDgAnN4dLgBIbd+NNNZ6BIDmA8BQ6WaiAFCs3iYAEACa3+F8HvZxWYtPAeTvUwCn3vS/DLAeAZDasTZk3+MmADQ/Hw+O3UgUAEbLiwQAAkDzO5zLpuzzuWff/iBzv81PPrPHeEwyWfqeoGOt96d9/pcB1gAgtWN18z3ulgkAb3/gvLn2j84nCgAjk7ecjzGNeT3kuX+tvWmkNP9Ivwm1TQOT57i3Nv33y8bN1qZBu34MAaD5IxnvHvS/DLAGAKntu5HGWq9VAoDMMa7n2r7CXKIAcKW04HyMaRiE6rdad3hiYWXT2HjjM/2HUNs0MHmOe2u12u218ua90YcAAkDzAaDtiP9lgDUASO1YG7LvcbdCAJC5ReYY13Nt7/BsogAwOHbT+RjTMAjVb7VuoXyrtmmyONGn/xBqmwYmz/G/Ux6N598iAER8UZ9JY3r40nHvSwBr89etjMFkzHm9bysEAJlbfMyz3UPXEgWA/uK8l3EmtQjVb7Vusbr0103VwcFvj5TmH+s/htgmheTxX13vMPOXdgJATgLAp9vDLQOsAUDGkNembvK6WyEAyNziY67tGpxJFAAuF+a8jDOpRYheqzWHJxY+r1bvfmuT/K9cKLTpfwixTQrJ478KAGIxu/Nk1CGAUwDN/VY990q4ZYA1AMgYTBphXu8bewCY3XXSW1Pt7G8kCgCXhq97G2uS3hOi12rN0ertn3/Z/PX/SsXJgStNfnRAnyStbRJEHvtk8xeP2uTC2syP2qINAQSA5gJAeUe4ZYA1AMgY8trUTV53zAFA5hKZU3zNtRf66okCQM+Va97GmsQkrf5p+jyjlcX3te8/sa0MD+0ulOZWTZ8w6f2TIPLY/w8AajL7m7+tVZ/dF10QIAA0FwAGdoZbBlgDgIzBpBHm9b4xBgCZO76cQzwvltZ+aSpRAJBTCDoHZnmbtG+aPn54YuHfxeri959o+hu/uTk4+M3JQuGPE2OVWrE0c18+Juj6NlWdXuHmxqDRPfJg7rfvP5z95TuPpl849ri+7fBa4ttzhx7Xtx5crW858EV9y/6VtG8PXmyrrf34eInb1xv07Dxx852Dv1sJeZMx8HP6+p+T+Mg+/ZT3yef17x74or714MP6c4dW69sOPwp9m/7BsdXZnSfvz544dXeqtzZVnb5X8n3ruNz457nu2ortrXvo2l3fYzatV5u5NyEfw3N9K0zemh+t3DpbrC0erlar39jY7/keAQQQQAABBBBAAAEEEEAAAQQQQAABBBBAAAEEEEAAAQQQQAABBBBAAAEEEEAAAQQQQAABBBBAAAEEEEAAAQQQQAABBBBAAAEEEEAAAQQQQAABBBBAAAEEEEAAAQQQQAABBBBAAAEEEEAAAQQQQAABBBBAAAEEEEAAAQQQQAABBBBAAAEEEEAAAQQQQAABBBBAAAEEEEAAAQQQQAABBBBAAAEEEEAAAQQQQAABBBBAAAEEEEAAAQQQQAABBBBAAAEEEEAAAQQQQAABBBBAAAEEEEAAAQQQQAABBBBAAAEEEEAAAQQQQAABBBBAAAEEEEAAAQQQQAABBBBAAAEEEEAAAQQQQAABBBBAAAEEEEAAAQQQQAABBBBAAAEEEEAAAQQQQAABBBBAAAEEEEAAAQQQQAABBBBAAAEEEEAAAQQQQAABBBBAAAEEEEAAAQQQQAABBBBAAAEEEEAAAQQQQAABBBBAAAEEEEAAAQQQQAABBBBAAAEEEEAAAQQQQAABBBBAAAEEEEAAAQQQQAABBBBAAAEEEEAAAQQQQAABBBBAAAEEEEAAAQQQQAABBBBAAAEEEEAAAQQQQAABBBBAAAEEEEAAAQQQQAABBBBAAAEEEEAAAQQQQAABBBBAAAEEEEAAAQQQQAABBBBAAAEEEEAAAQQQQAABBBBAAAEEEEAAAQQQQAABBBBAAAEEEEAAAQQQQAABBBBAAAEEEEAAAQQQQAABBBBAAAEEEEAAAQQQQAABBBBAAAEEEEAAAQQQQAABBBBAAAEEEEAAAQQQQAABBBBAAAEEEEAAAQQQQAABBBBAAAEEEEAAAQQQQAABBBBAAAEEEEAAAQQQQAABBBBAAAEEEEAAAQQQQAABBBBAAAEEEEAAAQQQQAABBBBAAAEEEEAAAQQQQAABBBBAAAEEEEAAAQTyJvBfI0UdoNZjW6cAAAAASUVORK5CYII=;" vertex="1" parent="RByCtK4DOyFTz49GX1wE-74">
          <mxGeometry x="27" y="430" width="160" height="160" as="geometry" />
        </mxCell>
        <mxCell id="RByCtK4DOyFTz49GX1wE-55" value="" style="group;labelBackgroundColor=none;fontColor=#FFFFFF;" parent="1" vertex="1" connectable="0">
          <mxGeometry x="-20" y="570" width="235.54000000000008" height="244.74" as="geometry" />
        </mxCell>
        <mxCell id="RByCtK4DOyFTz49GX1wE-56" value="" style="group;labelBackgroundColor=none;fontColor=#FFFFFF;" parent="RByCtK4DOyFTz49GX1wE-55" vertex="1" connectable="0">
          <mxGeometry x="51.19492753623188" y="10.555555555555555" width="184.3450724637682" height="234.18444444444447" as="geometry" />
        </mxCell>
        <mxCell id="RByCtK4DOyFTz49GX1wE-53" value="" style="shape=image;verticalLabelPosition=bottom;labelBackgroundColor=none;verticalAlign=top;aspect=fixed;imageAspect=0;image=data:image/png,iVBORw0KGgoAAAANSUhEUgAAAgAAAAIACAYAAAD0eNT6AAAAAXNSR0IArs4c6QAAIABJREFUeAHsnQd4G8eZ/n0lyeXii+OUS7nLJXdJLuVS/umnYpuSZUmOxU6QFLvEJjbH3bJcoiSOE8cqFNVIyRK7CsUiihRJuUmWo2K5So5zJf3S7YSmSWwFoPk/M4td7IIAuIu6AF89z/csQAK7s79d8X3nm29mr7gC/0AABEAABEAABEAABEAABEAABEAABEAABEAABEAABEAABEAABEAABEAABEAABEAABEAABEAABEAABEAABEAABEAABEAABEAABEAABEAABEAABEAABEAABEAABEAABEAABEAABEAABEAABEAABEAABEAABEAABEAABEAABEAABEAABEAABEAABEAABEAABEAABEAABEAABEAABEAABEAABEAABEAABEAABEAABEAABEAABEAABEAABEAABEAABEAABEAABEAABEAABEAABEAABEAABEAABEAABEAABEAABEAABEAABEAABEAABEAABEAABEAABEAABEAABEAABEAABEAABEAABEAABEAABEAABEAABEAABEAABEAABEAABEAABEAABEAABEAABEAABEAABEAABEAABEAABEAABEAABEAABEAABEAABEAABEAABEAABEAABEAABEAABEAABEAABEAABEAABEAABEAABEAABEAABEAABEAABEAABEAABEAABEAABEAABEAABEAABEAABEAABEAABEAABEAABEAABEAABEAABEAABEAABEAABEAABEAABEAABEAABEAABEAABEAABEAABEAABEAABEAABEAABEAABEAABEAABEAABEAABEAABEAABEAABEAABEAABEAABEAABEAABEAABEAABEAABEAABEAABEAABEAABEAABEAABEAABEAABEAABEAABEAABEAABEAABEAABEAABEAABEAABEAABEAABEAABEAABEAABEAABEAABEAABEAABEAABEAABEAABEAABEAABEAABEAABEAABEAABEAABEAABEAABEAABEAABEAABEAABEAABEAABEAABEAABEAABEAABEAABEAABEAABEAABEAABEAABEAABEAABEAABEAABEAABEAABEAABEAABEAABEAABEAABEAABEAABEAABEAABEAABEAABEAABEAABEAABEAABEAABEAABEAABEAABEAABEAABEAABEAABEAABEAABEAABEAABEAABEAABEAABEAABEAABEAABEAABEAABEAABEAABEAABEAABEAABEAABEAABEAABEAABEAABEAABEAABEAABEAABEAABEAABEAABEAABEAABEAABEAABEAABEAABEAABEAABEAABEAABEAABEAABEAABEAABEAABEAABEAABEAABEAABEAABEAABEAABEAABEAABEAABEAABEAABEAABEAABEAABEAABEAABEAABEAABEAABEAABEAABEAABEAABEAABEAABEAABEAABEAABEAABEAABEAABEAABEAABEAABEAABEAABEAABEAABEAABEAABEAABEAABEAABEAABEAABEAABEAABEAABEAABEAABEAABEAABEAABEAABEAABEAABEAABEAABEAABEAABEAABEAABEAABEAABEAABEAABEAABEAABEAABEAABEAABEAABEAABEAABEAABEAABEAABEAABEAABEAABEAABEAABEAABEAABEAABEAABEAABEAABEAABEAABEAABEAABEAABEAABEAgeQmQV//z655X/nOb+5UFP/JcWvDjy5cWPum5tOgB8pOFH7HzWZHnr/mg50LaeveFtAnPs9dddD+b9oz7QtoO13NLFtm63a863uo+taJUfvqGw65TK5+jIZ9acdh9cmUJef7Lb7Fz210TN10jT6zaJY+n/0geT78ojWdMuMbS7ybHv/EBO7dbGMr6qDToeEAeyntCGsy7KA7mnRYHczfLAzlfsnO70TYQAAEQiAkB8mralZ5XFh7yvLKAsLi0gHguLdSH6Lm48F5CrvirmDQggp16LqR9030hzem+kEbcz/rHEuI+v3SIvJT2rggOEZOvyqdXfM19evnPXE8vJ65TK2aF+9SKn8qnVn41JgePYKdkYsW7XePpx+SJdMJiPJ3ILDKIPM7CKR7PbIjgEDH5Kr13pcHcB6ShPEkayiPSYB4RjXFZGsjvJCPpfx+TBmCnIAACIGA3AuTsgre7Ly04H0L8iefiQiVeXrTDTu13XUj7LhP+oOJPDcAS4jm/5CL50aJ/sEvbXadvWOR6ejkfTPyZITi5grhOruRdTy5faJd2k8cdV8kT6T8OIf5EGstQYjzjW3ZpN22HOJjTyoQ/sPgTccChxKDjNBm78W12ajvaAgIgAAIxIeB5ZWGLKfFnJmARcV9cmBuThljcqeu5tGXuC2mXg/f8FfGnBkCJpe0WDxGTj5OTaVe6nl7+exPiTw0Ajd+SE8vfEZPGWNypfCK925T4KybgsjCelWbxEDH5uDSUu9qU+KsmYCD/4Zg0BDsFARAAAbsQID+55oOeVxbIQdL+vp6/V/w9FxcRz8uLXrVD+90XrjtjXvyXEPe5JR5yNu3jiW676/TyOy2IP5GpCXhq5W2Jbrc4nvFJeSLdEyTt7+v5qxmAsUwiHs98OtHtpseXhvL+N0ja39fz18TfQcR+hzDT53ifHdqONoAACIBATAi4f7yw2qL4UwNAyKUFn4pJg0zulBb9sd5/wDF/tcev256jBmAp8ZxfeofJQ8TsY66nl58LNOavS/urPX8m/vJTK4n81MozMWuQyR27Tqxab0X8peOZRDqe6Zk5kf2PJg8Rk49JRx2fsyj+1AAQoT+/PCYNwk5BAARAwA4EPJcWbPHMLvgL1vNn4k8NgPula7IS2X7X+euWBC7404m+mvr3ij81AO7z1+9LZLvpsV2nVkwFNADKmH8g8acGYDLR7ZYnMjqVYj9a9KcV/AXs+XvFnxoA4hrNvCaRbZeGcvMDFPwF6/kz8Rf784k4kP+DRLYbxwYBEACBmBLwXFqwz6/af07xZwbg5YVrYtqwOXbufjYty2gAAgg/NQB68T+3lLjOLR2cY9cx/3UY4k/kp24kMW/YHAdwjacf9av2n1P8qQEQRzMy5th1TH8tD+ZW+1X7zy3+1AD0F7TFtGHYOQiAAAgkkoDn0kKjAVCr/Y1j/lrPn4q/YgAWr01ku93PXpftMwCmxd+eBiB0z5+Jv30MgPmevy8LkJ6ZyHtFHHLUGAyAfqxffd3Pxv0J6/kz8YcBSOQ1w7FBAATiQMBgAEyKv+elxcT9sl0MgCXxJ66zNssAmBR/+Uk7ZAAyjqqpf22qn67gzyf4bOyfpf+lUfo62z4GQBV8/Tag+MMAxOHPDw4BAiCQSAKaAbAg/vYxAJbF314GwIL428kAWBL/0Sz7GAC96Kuvg4n/ERiARP5dwrFBAATiQIAZAIvibw8DsDTbN79fZwRmj/nTtD8Vfm9cb48aAIvibxcDYFn87WIAVMHXb0OJPwxAHP764BAgAAIJJWA0AIuId57/rDF/KvpquG0xBBDAAMwt/sR11gYGIAzxt4MBkMYzjhoNgC7Vr0z586X9qfCrkeghgAFHjbbKn2oA5hJ/GICE/l3CwUEABOJAwGcALIg/NQAvJroGwM8AmBN/mxgAtrofm+5HF/nxzvP3bm9Uiv6evJFQ0ddHHG6HkIcwGgCT4k9NwLEE1wD4GwAz4n+kALMAQt4N+CUIgEDSE1AMgGXxt5cBMC/+xPUjO2QAFANgRfzlJ76R8GmAPgNgQfxHbGYAzIo/NQB9mAaY9H/gcAIgAALBCWgGwDu9T53mx7b+aX+l50/F3z4GwIr4n7neNgbAqvjbxwBYFH87GQBr4g8DEPzPBn4DAiCQCgSYAbAs/tfYwwBYFX+bGIBwxN8eBiDraNCpfup4v7qlwq+GHYYArIs/DEAq/IHDOYAACAQn4Hl54T5Dr5+agZA9fyr+NjAAZ5dms6V96fK+ygp//tX+dLxfCSr8athgCMDsmD8VfX0Ev4rx+Y10PIABoPP8VdFXt6rws222PWoAmAGgU/t0QQv9tCggopL2p8KvBlYCjM+thaOAAAgkgsAsA2BK/O1lANg0P+NUv8Dib5cMgPJwH22FP32hn/baT/xtkQHwNwBmxH/ELgZAJ/zUBGjCT18HFH9kABLxBwnHBAEQiB8BgwEwK/4v2McAWBL/M8tsUQOgZACCV/vre/3a68dtUASoNwBmxd+OBsCc+BPxUCEyAPH7U4QjgQAIxJuAZgCsiL9NDIB18beLAbAu/rKdDIA18bfJEIA3A2BW/A8XwgDE+48RjgcCIBBfAswAWBV/OxkA3wp/wdP+rOdPxd9GBsBvjj9L/QdI+1PhV+KmxE8DpBkA6+JvHwNgRfxhAOL7hwhHAwEQiD8Bz4uL96lFf2yFP8NUP7Xg7xripqKvjxevTezTAM8uzdYt72tS/G1iAMIQf/lxGxiAUWoAdCv80df+BX805a+k/anwq5HYhwHRhYCsij8MQPz/GOGIIAAC8SWgGgBL4v/CtcRtGwPgrfSnFf9qpb+2VXv9+m3iFwLSCv1UIzBHz5+Kvy0NgDnxT3wGoE9vAIIW/BGRir4+UAMQ3z9GOBoIgEB8CVADYFn8qQF4zg4ZAKviv4y4nrGZATAp/vJjNssAmBb/HBsZAAvijwxAfP8Q4WggAALxJ+BWDYCyup93jr839a9P+bPX1xI3Ff/nbWYAtB6/mgXQ9/h1r5+hBuCGhD8NUMsAWBB/WxkAK+I/bBcDYFn8UQQY/z9HOCIIgEA8CTADYFX87WQArIm/fQyARfG3jQGwKv62MAAFNQEW+VEW+9Gn/NXXh9gMABiAeP4hwrFAAATiT8BnAEIU/NFev9rzp+JvFwNgXfztYQDCEH/7GQBvsd/sgj8iHcshEhV+NRK9FHBfQY1udT91lT/jeP8s8V8NAxD/P0c4IgiAQDwJKAbAovjb0gDoUv1sup/3vZL2p8KvRuKHAPwNgG6qn1rwRwXfGKsSPw2QzgJgGQAL4m+XDIBveV8TPX8q/jAA8fw7hGOBAAgkgID7xWv3KWv7+03z8x/zV3v+6tYORYBaBsC0+BPX0zaoAdAbAJPiL5+wiwGwKP52NABqb1+/1dL+qvivJuJBrASYgD9JOCQIgEAwAuTVz7yVXFp8dbTC/cI1PcwAhCr4U0Vf3T53XVRmAZCX0t5Fnll8dTjhPnN9iTLtz4L4n76BuE7fMEqeuenqRIZ+eV91kZ9QPX8q/jTI6E1XJzKkkewxNsffTNpfTf8fzSHS0ZwiMlp0dVSit+hqYjHEIwW3aEMAetFXXwcU/9VEOri6I9CxpnqLrg4nyMm0vw32/xo/BwEQAIGABMjLi//dc2lhm+fSwv/zXFpIPBf1sYh4Li4is57oZ/qpflZ7/lT8wzMA5GTalZ7zS9d7nl36ovv8Esl9fglxh/NI33B6/or4UwNAXKeXK/H0cuLyj1MriCtQnFxBXCdXahHuI33DFX/VBGjbiXQi+8d4OpFZZBB5XAlpLIMYI5OE9UhfdYEfy+KfS6SjuhjKJZIWeUQayiPSYB4R/WPAQUT/CO+RvhbG/L29/4O096+PIiIeUEI4UES06C0iQm/x7OgpJgKLEiL0eKO7hAjdJZeFnuJf8t0lO8Xeon8L+J8dPwQBEAABlYDn0qJbPZcWupjw20b8rRsA+cL1X3WfX/JbJvpU+CH+bHEfMz1/TfS9mYBZwk+NAMQ/1FP9TBT8xVz8qQHwRikRukolsbOsXv1/ji0IgAAIGAh4xZ/YT/ytGQBy7tpPu88vmYL4q+v6062yuh/bBij4myX6EH8i0sf46iOc5X3nSPvHqOfvL/7UALAQu0vqDP/p8QYEQAAEvGl/2Z7ib94AEHLFX3nOL3kB4g/xV1L/8y7tH1T8vSZAEjvKP4a/eCAAAiCgEfBcWtRqW/G/YN4AuM6mrYT4Q/wh/kqPX+35a9vOUsJ3lrVo//HxAgRAAATsVfBHBd8bVPyZAVhi6mmA7meXtGgGAAV/vtQ/0v6+wj//Yj/6PvkL/ubq+ROhs5QInWU0foa/eCAAAiDACJDnv/wWz6WFHntU+wcQ/wtpxP2cSQNwbukIMwAQf4i/f6U/fQ/xpwbARfocf4M/fyAAAiBwBXn+y1fZWvypAbiwJMfMpXKfX3IUU/1Q8DePpvpZ6fmrGQBCukrfYeb/Ez4DAiCQ4gSMBiBR8/yD9PyZ+KcR6ey1nzNzGVxn0x5xn1tK1HCdW0pYnF1KXCzCeaQve6qfurSvssU8f+98f8zzF9VKf7oNsshPvKv99WP+3rS/Jv5CRxkMgJk/JvgMCMwHAj4DYE/xdz+bZnrM0nV+2WKIv/+6/vS9srpfwOl+/gv8YJ4/EdmUv7Ae6etd1z/u8/y1qX5ziT8MwHz4q45zBAGTBBQDYFvxJ+5n08pNngr7mPvc0qfQ89ebAIi/Yex/fhX8GXr+VPxhAKz8NcFnQSDFCWgGgC7n6x8vLSYeb7hfWkxYvLiYuFmE8VQ/ur6/WuGv36rV/t6Uv5tun6VxXS+d22/lEpALyz/sOrf0D0rKn6b+kfZHz9+71C/Enwgd5RgCsPIHBZ8FgVQmwAyAv/DHfG3/0GP+7mev87gupG0N94Em4jPX/5vr7NIXIf5Bev9I+/tW+UuBFf7MpP2V3n85DEAq/zHHuYGAVQIBDYC5nv9l9wvXTBrj2kn3C9dOup8PEM9dN+kOGmmT7gtpr3ueu+4incsvnb/+81bPw//zhGz8a/fZZUWus9cfdZ+5/ueuM8smDfGjZZMu/3hm2aTrmRuMcfqGSZcWyyddp5dPup4OEKdWTLoCxckVk66TK7WQT66clJ/Sx42T8lM3TspPBognvjEpB42bJuUnvPHYTZOyIVZNyieCxET6pOwf4+mTMouMSXlcCWksY9IYmZPS8QAxmjkpjWYZYyRrUtIie1Ia8cax7EnJELmT0nCAOJo7KfnHUO6kpEXepDSUNykN5k2K/jHgmBSDRv6kOKCLI/mTohYFk+KRgkmxL0AcLpwU/eNQ4aTIYvWkeMgbB1dPioYomhQPBIjeokmxt3h29BRPiixKJsUeb3SXTIqGKJ0Uu5QQukovWxV/oR0ZAP+/FXgPAvOWwCwDYE78ifuFa6bmLTScOAjYgIDQVTrNDIBvkZ+AY/407c+ivZzAANjgwqEJIGAXAgYDYF78YQDscgHRjnlLgBkAi+IPAzBvbxecOAjMJqAZAGviDwMwGyV+AgJxJSB0lk4HmuevVvv79/yp+MMAxPUS4WAgYG8CzABYF38YAHtfVrRuHhAQOsuMBsA7zU9f8KeKvn6LlQDnwc2BUwQBMwTI88uuCnOqH2oAzADGZ0AgRgQMBsCk+AvtFZgGGKPrgd2CQNIRUA1AGPP8YQCS7mqjwalEQDMAFsRf2A8DkEr3AM4FBCIiQA1AGOJP3M9fCwMQEXl8GQQiI8AMgEXxhwGIjDm+DQIpRUAzANZX+IMBSKk7ASeTbASEjrLpuQr+lLH/CkKFXw3UACTblUZ7QSBGBJgBsC7+yADE6HpgtyBgloDPABjn+esL/uiYvyr8dMtjCMAsXnwOBFKfgM8AWF7bHxmA1L89cIY2JqAYAGviDwNg4wuKpoFAvAkoBsCy+CMDEO8LheOBgB8BoaN8Wr/C31w9fyr+/D4UAfphxFsQmL8EDAbghWvo/H5dXEvcL1xLxX52PHcdMgDz97bBmduAADMA3sV9zIo/v28NpgHa4NqhCSAQkgC5uPAf3ZcWrvFcWviw59KCNs+lhcZ4eWGbx0y8tLjN4w33S4vbjHFtm/uFa9rdL+pFX30dUvzpY31hAEJeQfwSBGJLQGgvnzYKP13pb/aYv9rzp+JPg9u/Zp+wb02bMda2CfvWtgl7A0Tb2jYhaFS1CW3eaK1qE1qr2vi26oeF3dUV0201740tAewdBFKMAPll2t95frxws+eVBaLnlQXEc4nGQmNcXEg8WiwinouLiCf+j/SFAUixew+nk1wEZhuAucVfNQH8o2uIL9YS/tG1hN8bIPZUEt4/2ioJz6KK8G3eaK0ivCGqCd9aLfC7qx8mfY63JhdZtBYEEkCAXPz8O9yvLDjDhN/e4o8MQALuDxwSBPQEjAbAduJP+N3V3qh6mmy59e36tuM1CICAHwHPKwt7kkT8YQD8rh3egkC8CfgMgJ3FXzEB3O7qffHmg+OBQNIQIK8s+ornlQWXbZ72p8KvxAXUACTNzYWGpiQBxQDYX/xZJmBXjcfZWvuFlLwQOCkQiJSA55UFzUkk/sQNAxDpJcf3QSAiAkJ7xbT/Ij/+BX9xHvPXpf3V9H814XfVKLG75uGIThhfBoFUJeB+ZeEzNi740/f8qfgT94U0FAGm6s2I80oKAsJ+nwFgwu+d56+Jvrfq31fsRwv/YlbwF1r8mQmofTIpwKKRIBBvAp5LCy7ZtNo/kPjDAMT7BsHxQMCPgGoAkkP8awi3q+ZFv1PAWxAAAUrg8qWFTxgMgDbNj075S9hUv2DiDwOA2xYEEkyAGoAkEn/C7awZSzAyHB4E7EnA88rCb2kGwP7iT9zPYgjAnncSWjVfCPCqAdhHl/hVFvnRtvGZ528i7c96/lT8iXNnzfr5cm1wniBgiQB56T8/6rm0UPQt8GPbnj8VfxgAS1cXHwaB6BNgBiBJxJ/bWcPzLVX/HH0K2CMIpAgBz8uLHvAZAFum/VXxhwFIkXsOp5G8BPh9FdNaj1/NANiw5896/7tq705e0mg5CMSBACFX/JXn4oLdNh3z14s/DEAc7gccAgRCEeD3rTEaAJuKP7ejtoX+bQt1LvgdCICAl4D75UUFnpcX/fes9f1fWkw83nC/tJiweHExcbMI65G+viI/dYEfumXT/NhUP1rsp4SS9teZgCWYBog7FgQSSMBgAOwp/j/ht6/LTSAiHBoEkpcAubjws+6LC/M8Ly2uCRgvLK7xzBnX1XheCBIXrqvxXLj2m9rqfubFn7jPwwAk752FlqcCAc0AWBf/b3J7q2pYtFXVcGZjV1UNNytqarhdxuC3V+fOtNZ+JhUY4xxAIKUJkOeXXaUZAHM9fyr+MAApfVfg5JKBADMA1sWfTLbVXJUM54c2ggAIxJiAZgCsiT8MQJSuC3nccZU8nv5V6UR6ljSRXiSPp9fI4+k3y2MZ1dJ4hsM9ln6jOJ7xSfJ8zVuidMio74a01bxFHnJ8WRjIqxIG8r4rDeV2iUOOx8UBxylxwPG8OOB4RhxwTIgD+X1iv6NZ7M9fJww6lk4fWI3nxUdwNfhH10z7Vvkzv8IfDEAE0PFVEEglAswAWBd/GIAwbgJyMu1v5RPf+LrrxKr10kT6uDSR/gd5Ip1oMZ5OZBYZRB5XQhrLIN6QpbGM/5HGMjvl41kVwvGcj4TRhKh9RTqW+x/SoGO9OJR3WhrME8XBPGKIAQcR/aPfQUQW+UTsZ3FZ7HdcFI/kbxX7HCspn6g1cB7syGcAzIs/v6cSGYB5cG/gFEHAFAGfAfAW+9Giv9kFf2raX79FEaApwldcQUVffmzVdnli1evyiVU+wTcv/l4TkEmk44Z4UTyeeavz+Dc+YLIpEX9MHs79ijiUe1oayiMs/IWfvvcXfvp+tvgrJuBIPhG1KPiDeCR/i3So4LMRN3Qe7EAxANbEn2+DAZgHtwZOEQTMEVAMgGXxJ+5zKAIMRZj0Of6GpfRPrLrERJ8Kf3TFXzEDo5lEGs1yS6OZB6XhjM+HalOkv5MG8wqloVwpRuJPxCMFROxjcVnsyx+W+xxfi7TNqfx9/tG10+zhPnvXEt4/9lQS2ts3RFslgQFI5TsC5wYCFgkYDIC5nj8Vf+I+txQZgACs6XxnRfjTf2YQ/tiJPzUAalyWRrKOicMZnwzQtIh+JA/kfFUaypXjIP6qCfBuC48KBws/GlHjU/TLzAD4Cz997y/89L1X/Pm2KgwBpOj9gNMCAcsENANgTfxhAAKQlibS/0N+bNXJWcIfH/En0kiWGpI0kv19cmL5OwI0M6wfSUM5Z+Mu/ocLiagEJx0u3IAaAeOl4/eunbbS86fiDwNgZIh3IDCvCTADYF38YQB0dw3t9bseT79DPpEu20D8iTSSrcbP6Ji9rqlhvWQFf7EZ89en/Y09f5/4qyaASIcKz/AHCz8c1kmk4JdmGYA5ev4wACl4E+CUQCASArMNAJvjry/2U14raX8q/CxcGAJg2MnJ9PdKj606HlD449/zV4Vf2R7LJtKxbEk8ln1rJEuxykOOyhgU/FkSf/FQIaEhHVz9Z/FQwY2R3POp8l2DATAp/nwrhgBS5frjPEAgYgJGA2Ba/AkMwBVXCCfS/1V+bNX/2Fj8qQFQYjink87XD+eGkYby7pKiW+0flviLh1YTb7iFg4XV4ZxLKn1HMwAWxB8GIJXuAJwLCERIwGcALIk/cZ2d30WA8sSqL8mPrfpjUoj/sRwiDbMYJSPpf2/1lpEHc6sNc/wjm+oXqfgT8eBqGpfFQ6vvtHouqfR5ZgAsij8MQCrdATgXEIiQgGIALIv/vDYA8sSqL8iPrXojycSfmQB5OOdxMnbj26zcNtJg9mcNBiD8ef7REn/VBBDxUFGjlXNJpc/yeyqnZ1X866r91TF/Kvr6wEqAqXQX4FxAIAICzAAoa/sbx/1nj/nTtD8Vfm9cPy+nAYpP3vgx6cSqPySj+HuzAEQayj1qtaJeGnScYybATuJ/sIiIB4o80sHiggj+CyTtV2cZABPiz7dWYxpg0l5xNBwEokwgoAGYW/yJ6+z8MwBk9Kar5RMB5vfTYj97FPz5xvx9aX81/a9sj+YQ6WgukYfztlq5lfijeQvFAYdr1ip/5lb4i37PXxF/agCIcKBI5HqLvmzlfFLhswYDYFL8YQBS4crjHEAgSgRmGQBz4j/vDABNmhh4AAAgAElEQVSb6nfipqNJ3fP3ij81ACyGci09q10YcFSIAw63ZgLsIf7UAND4GelzzKun3GkGwIL487uRAYjSn07sBgSSn4DBAJgXf+I6M78yAPKJ9FtjJP4/EY9nPCqOZTSKoxkZrpHsBfJo1pddx7IXS8ez8qXRzLul0exBcSTrdd9CP9o8f12P31vtP0fPXxN/agKGcqfEoayPWbmLhUHHYrHf8VKQtf2nxCP5g9KR/PukPkeBOJC/TO5zfJnvcyyQjhRkikcKmqS+gnaxr+C/vAv8aHP82XvvVD9dtb9vrF8p/COiseevij8ReouI0FN82Mq5JPtnmQGwKP4wAMl+1dF+EIgiAc0AWBP/eWUA6Li/fGIVH9AA6B/oo74O/VQ/+mCfP0jHszaKI6s+YfZS0mcLCCNZ10sjWV3SSLbMFvtRp/hpW63aP2Da30/8qQEg8lDu42bboP+cPFDwJbHfUScdyb9b7Hc08v2FX7dSVyD1r/6UcLhwo3i48E9REf/eYiL0FhOxp3iVvp2p/Jpvq5xWlvhVVvhjRX9+BX805c9idzWh4g8DkMp3BM4NBCwSYAbAuvjPKwMgnVh1Ijrin/4XcSy9ifQ53mrxMhk+Th8FLI1k75OOZV/W5vlb6/kz8acGwLvAT7HhAHF8Q/ocbxcPFt4sHiqcDLvn7xV/agCE3uJf0H3G8RQSdijFAFgTfxiAhF0uHBgE7EdAMQDK6n50lT9W6W+s9qfj/UqcuZ4KvxrzYhaANH5TTnTEP7OfPJH9nmjeAWyY4Fj2z6VIxJ8u8TuY9wdyojRqzw0I5xydfY4PiIdW9zMToKX72Xz/0Gl/o/izLIDQU3xvOG1Itu/wbVXTwab6Ber5IwOQbFcY7QWBGBPQGwAL4k9cZ5alvAGghX/yiVUXZxkANdWv3wZP+3vE8cybY3UZ6cwE6VjOcW2Kn7LgD5H8C/6UMX9jz18Rf+Kd439HrNpoZb90cR/x4Gq3d7GfcMSf1gK8TvocV1o5bjJ+VjMAJtL+qvjzu2owDTAZLzbaDAKxIKAaAIviT1zPpL4BkE6kZ0Uo/rJ0PN1SpX0415iOvUvDOQc1E2Bd/KkJ+GM4qwSG0965viMdKnKIB1e7Qhb8Be75U/EnQk8J4XuKb5/rOMn+e2YALIo/DECyX3W0HwSiSIAaAMvi/6Nl88IAyCdWnTEYAH2PX30dvOd/WR7LLIvipQq5K1okKB3LORZGz1/NABBxIK825EHi+EvhYFGpeKDosneev7Hafw7xpwZA6Cn5Ndm48a/j2OS4H4pvrZrWr/AXKu1PhV8NrAQY90uFA4KAPQloBsC3wl+wMX+a9icuKv7zwABIJ9I/FYH4E2ks8wfxvuJkOOMfpKO5Pw5U7a8V/BnT/jrxdxBpwHE+3m0OdTyxt+gR7xx/xQDQqX7mxJ8I3SVE6CpdGmr/yf47owGYXe2vT/ur4o8MQLJfdbQfBKJIgBkAq+I/LwzAqu9rBkDt7eu3wXv+RBpPf548H96T9yK9tPJw7helo7myd6GfUGP+BvFXF/eRBgs+HWkbovV9+vRC4UDRc8wEWBV/agC6Szqi1RY77sdnAMyLP4caADteSrQJBBJDwGcAvJX+tOLfV+nvfa3r+c+TDIB84qZfMgOgF331dSjxH8vwyOPpX03M1VSOKg3nPaz0+NliP8pUvxA9f1X86VYYyN+YyLb7H5vvLfqa0FvksdTzV8SfGoApOjTiv89Uea8YAGviz+1EEWCqXH+cBwhETEAxABbFP8UzAOJjqz4RpvjTRX56Ir4oEe6AjBZdLQ3lvmEm7a8Xf/pa6necifDwUf+60FvcO8sAsGI/peDPO+avpP194k+E7lLCd5Z9LeoNsskO+dbqaf9FfoKl/WnPn4o/DIBNLh6aAQJ2IGAwAGZ6/or4E9czN6TsNED5xE11strb129D9/yp+BN5LOOLdriu0mDOD9giPyZ7/swIKGv7u+y2pj7XXfIlgwEwKf5CVykROkvX2+F6xKINzADoVvgzI/7czlpMA4zFxcA+QSAZCWgGwJr4p7gBWHVwlgEwIf7SWKZtiujE/txPSEN5l6XBPN9Yv/p6rkf6Him40W73stBTfJ6ZACvi31VK+K7SEbudS7Taw++untZEXzUCump/WvCn7/lT8YcBiBZ97AcEUoAAMwDWxT/VDcAlgwEwJ/5EPJ5xp51uCWnQ8bJ3kR+fCZhL/PvziXgk3xaLAulZ8r1Fdytz/OdO+7OeP+39K/FT/X5S6fUsA2BC/GEAUukOwLmAQIQEZhuAAAV/vrQ/FX41UnIIgC6qI0+ki5oBMCn+0vFMIo9kfyHCyxHVr4uDuT80GAAz4t+fT6SB/P1RbUgUdib1FH9OXeQn1Ji/n/hTE+AmLU1vi0ITbLcLgwEwKf7cDgwB2O5CokEgkCgCRgNgWvyJ63Rq1gCIY1kfC0f8peOZgpWn4cXjekuDeQ7NAJgUf5FmAPryfxSP9lk5BmUr9JQIFsWf1gAQqb3iU1aOlSyf1QyABfGHAUiWq4t2znsC5MVr3ud6bski13Npy2bFubRlroBx/TLXOfPhPrMsU5n2Z0n8U9YAyBOrvsYMgIWeP+39S8czL9nthpUGsz/LDIAV8T/ChgD+227nQtsjdpe8yAyAodKfzvfX0v1q2l/ZdtIiwDI6E2CBHc8n0jYxA2BR/KkB4HbUZjpb6pZFHFvrljkN0bTMubVpGb+1cdH0ppr3Rnp++D4IzEsCrufS0twX0k65L1zncT+bRoyxhLjPB4jwHukbfJ5/4LQ/FX41UnIIwHUi4wbZuvhTA3DCbjfrTJ/jff7T/HTV/oT19mmPXw1F/GkNwB/tdi60PUJP8QRb4c9gAEKLPzUAYkf5cjueT6Rt4nfVTOtX+AtU8McK/xTRp8LvjXWE2x4gWtYRrqXOGNvqCKdFPeG2eaO5nnCGaCDcVkN4+OaGp4QtTddEep74PgjMGwKeC0secF9Iu+y+4C/89H0A4admIP7iT1ynl6ekAZDGVuUpBiCDyONK0Ol9xmA9fir6+ui3201K+hxvnWUAlKl+PtGfLf5EPFIg2u1caHuE7pLDRgMwt/h7MwB5djyfSNukNwA2E3/FDGxpINyWxsvc5sZ58XjmSK8nvj/PCXieS2tgwm9/8U9dAzCRnq8KP90ahZ++N4i+zwCMZh212+1LH2dsMADmxJ8agMt2ORfSU/xOuqY/31V6l9Bd8jOfATAn/swAtJc67HI+0WyHagBsLP7UACixuck2D5qK5jXAvkAgKgTIhbQPuC+kOZOg50/Fn7ieTr0MgGt81QLXROaQagDMi38mkUezn4rKjRDFnRgMgHnxJ2JfYg2A0Fn6L/RxvkJPyUmhp8TlE322vv+cY/5U9LXooEMAZYN8e8V/RhGtLXZFDUBSiP+WRuLc3DA988i6f7QFODQCBOxGwPNs2t1JJP4pYwDIE9nvcY1n3COPp/+3KvzWev6ZRBrNovFzu91TmgGwJv4JMQCsrQdWpwvdJceFnhJPONX+muirBqCjjAhalBOho/y/hPaK9W8+Wvluu12rcNrDDIB3eV91kZ8Ejvnr0/6+nj8Tf2oAGolzS5Ot1skIhzm+AwIxIeC+kDZhLPaz3Zi/2vOn4p/0BoA+Otc1kf6APJ7+Zphj/kQa1cSfGgC6hO6VMbk5wtwpE1Xr4h9XA8Da2F2SwfcUvxzmPH821c+E+BOhvVyNKWF/+X1kp72ul9XLzO+smVbW91dW+LO1+CsGYMzqOeLzIDAvCHgupF0yGgBbFfz5i3/SGgAqOPLEqnXyRPprYVb7K+P+RvFnWQBxNHOZnW5WnwHQVfrToj9ftT8d71eir4AKvxpxqQGQDpV+WugtORXmCn+GqX4GA6D1+mkGgPX8VeH321b8SdxfXkM52em6mW0Lt7PmzaTo+VPx39xEMwAXzZ4bPgcC84qA+9nrzvgMgO3FPykNAPdYxoekiYyJMOf56wr+DD1/ZQhgJItIx7Jt9eAZxQBYFv+YZwDoI3qFA8UPCL3FUgLFnwj7K7yxZoxrK/lgsv3B4XbW/lwzANoUv7hO9Zs77a+K/+Ymwm1qeibZGKO9IBAXAu5n03YrBiApxJ+4Tq1IqmmA0viqbHki/S8xE39qAEaz2uNys5g8yCwDMHfPX8kAHC6MWQbAeWD1+4XeoifDebCPYZlf7yI/Yfb8deJfQfj9LP7M7V+TaRKtLT7G7awdtH3an/b8aWxqItzmpu22AIdGgIDdCLguLLnOZvP8A6X9lfH/UyuSygDIE+m3yBPpnpiK/0gWEUey94a6r7jhjA9Jx7K/Lw3nviQNZ78pDue8Jh3NOSsO595JaxJCfTec3xkMgHnxJ2KMDABbz/9A8W9tKP6E31dB+H1rPPy+iqZwWCfiO/yOdfm+xX3s2/On4k9j+oeNixLBCccEgaQg4D6/ZHTWKn+JWeRnLvFPCgNABVAaT3+ECf9EOon2mL9Ee/1aZNPX9wS70eRjORXScA4nDecQLY7mEOloLgv5aN4fXYOO64J9P5yfawbAmvjHxAAI3SXXiL3Fb9hY/KkBUOLRNQ9TduEwj+d3yMaNf83tqH3WZwICrO5HV/yL7gp/ltL+qvjPbGoaiicbHAsEko4Aefb697jOL/2JZgLsK/5JYQDkiVW74if+2bRG4HOBbjp5OLtaE33VAOjEXzUB0lCuJB7NXRFoH+H8jBkA6+IfdQPAH1i9QOgtdiaF+FMT8Cg1AhU7wmEe7+/wO+s/zO2o/TW3w77i79zU9MobW295V7zZ4HggkHQEyEtp73KfW9LrPrfksvvcUqKG69xSwuLsUuJicT1xnfXGmeu9a/qrW8sP9vGu77/cTM+fir/tDYDrxKr1cRX/0eyAKwGKI7mfkIZzJIMBCCz+RBrKpTEjDzm+Fo0b12gAAlb7q2P+VPT1EbUaAJr2F3uLJ5NK/KkBUOKuaFyHWO/D2Vz1fq5l3dFZ6/snvufvcW5q7PhLS9M7Y80A+weBlCJAzl//Gc+56ze4zy7tcp1b+pjr3JLHXWfVuP5x11lv/Oj6x12GWPa460cB4pllj7ueWW6M08sfd52+4aTygB9L4m9rAyBNpBfJE+mXYz3mL43QtD9L/f+aH3H8U6AbUDyWs9eC+BNpKI+IQ3mvC32Ofwm0P6s/E4/ku4JM9Qsm/kQ8VChZPU6gz08fWP1eobf4V8kp/msJ/+jay/yeysJA52bHnzl31X2ea6m7j29Z18W1rOvjWupCREMf1+KN5oY+zj+2NvRxAaOxj9uqi82NfZwWN/dxm2/uo6LvfKTpzjd/ePMn7MgJbQIBEPASII8vu4ot7ass76sU+SkL/egL/tRev2970p6zAKSxzM/IE+lC3MT/WNZz4lDWx4LdUPJwzp80AxC658/EnxoAaZDFWdJW85Zg+zX7c/FI/m+YAfDN8VeEn7439vqV94cKqQH4pdn9B/scm+rXW/RYEos/4feupcFLbRWfCnae+DkIgAAIJC0BzQDoRV99raT6faKvvj+5grhOrrTdNEDyfM1b5PH05+Ig/n+WR7Iel4/llIYSaTJW/M5wxF8czCPe+EGkN5bQX9CrW+DHjPgT6dDqzkiPy/cU3xUH8b8sdJSLuhX+dAv9qHP8la13qp9a7e8r+FPH/LW0P+v5q+Kvbp8lGzf+baRM8H0QAAEQsBUBZgBUwddvVbH33yrib0sD4Dqx6lsxEP9fiqNZO6VjWbnysZwvkdGbrjZ7AUmf4ypmACz0/HXiT02AW+7P/aLZ4wX6nHCkMG2WAQje8yfiodVE6Fu9ONC+zP5MPFT270JvMR/lRX5eEzrKHxU6y0rkfSVfIG01f6+2Z6q36Gqus+yLfHtFDt9Rvl1or/i5b5EfbZ5/uOLPTIDQVnW/ejxsQQAEQCAlCAQ0AP6ir773ib/tDIA4kfFxeSJdjtJUP480mj0oj+VE/AQ56WjOn7Uqf++UP2+xn7foL09J/ft6/Wrvn9BH+UoDjrORTkkTDhf0aCZgDvGXDq7uiPTGFnqLn4ii+J/nO8uyQ2VaArWX27f2K+L+8iP8/goP6/0r8/yt9vyVDMCeSsLvqZTE/Wv/LdCx8DMQAAEQSEoCswyAKvb+W6P4E9lmQwDyifTuKIn/eWk0+7PRupjSUG6HwQAolf6mxJ8aABpCf35JJO0hfY63i30FYyHG/FnPXzxUOELaK/4ukmOJvUUroiT+v+U7y/IiaQv9rrS39NP8vooz2hx/31x/tdKfFvspoYz5q2l/vfhTA0C4PVURD41Eej74PgiAAAhEjYDBAPiLvvp+tvgT+Sn71ACwwr/xdLdiADKI+lhfaSyDGCPTt57/cd1r5cE+bmk0+15yMi2qY73SYPanpaO5LmYCwhB/rwn4CV30JZKLTovyxEOrm8TDhb/XjIBS8EfF/7fiwcKGiI9BrvgrsbvkRcUAlJBwH+nLd5Qfi+Yje+m58/vX3MXvW+NmRkAb76fT/cyJPzUA/J5Kt9RWg4LASG5EfBcEQMA+BDQDoIq9/zaw+NvKAMjjqw5GKP6SNJrtiNVVEYdybrGS9ld7/tq230GkI3k50WgfFXn5YOFXpMOrV9OQ+4q+HKnwq+0SukqXRiz+nWXbo9UetV3qlnu0Iot/dI3gneNvVfwJ31ZJ+NaqHnV/2IIACIBAUhNgBsBf9NX3wcXfNgaATKx4tzyeLqq9fro19vrpe11vf3bP3yWOZd0Y64soD+W1KCYg9Ji/Jvre9L/Y7yAsBvJPxbqNke5f7Cke1Hr9PSVE6PaPUuURvl1+W++DffjOsp2RtmGu74v71y7jH10jW+z5K+JPDUBblTC1q850Iehc7cHvQQAEQCBhBIIagNDiT+SnbrTFNEB5LKMuAvEn4vHMW+MBn/ZqpSHHMXWev1+1PxvrDyr+/eyRvp5oLQ4Ui/NlT/nrKXFrBsCi+AudZWOx6vn7ny+3d20DMwBzjPl70/568acGgHBtlbX++8R7EAABEEg6AgENwNzibx8DMJ55VjUAFnv+RBrNPhLPC0YGs98jDeb9LgzxJ2J/PpH6Hevj2V4rxxJ7SteFLf4d5X+c2b/mfVaOF+ln+b1rD3gX+vEV/Snj/KzgL5j4UwPA7646E+nx8X0QAAEQSDiBWQbAnPgT+cnEZwC4xzI+JI9nXA4j7U+k0SyOP5r54XhfAGkwr9BgANRUv36rpv2Vnj8Tf2YAjuSfjXd7zR5P6Cl+nBkA6z1/Quf2mz1OtD7HtdV8kN+7dkYzAWbFv7WK1gFc5rav/VC02oL9gAAIgEBCCBgMgHnxt4UBkCbS88MUf/ro3u8mBPgVV1whDjpeYCZAL/rq6yDiLypP9ZNJn+PKRLU72HFJn+OtQk+JYHXMX+gsozUBlyJd5yBYu+b6ubB37f3MAFgTf2oAaEQ8RXGu9uH3IAACIBBTApoBsCb+tjAA8nj6Nutp/yza+5dnTmT/Y0zBhti5NOAomDXeTw1AaPEnzAT050ftccEhmmjpV/yBsgVhib9iAEotHSyKH6ZTDfk9laKW7leNACv2YwV/bMyfpf0V0VfFn/CtNVuj2JSId0U2Ot7KtTSs5Zobhrnmhlf55vr/4prrx/nm+kays952pjHiE8YOQAAEIifADIB18beFAZDG0583GoCQ1f5U+JUYyRqJnFz4e6CL7YgDjjcMJsCM+B8pINKRwg3hHzk23+R7im8xGgC/Kn+16t9b7c96/lT8O8ve1C/pG5vWhd4rv2ftEYMBMCX+1YTfXX0h9J7j91uuuf6r3Lb6X3DN9cQYDYTbyuKPzuZG2xnH+BHCkUAABAISUAzASrq0Lwv55Eo6xU8XN9KCPyr4/pHwWQDSWAbvMwAmxZ+agJHs4oAw4vhDYcDRqxkAk+JPn+on9RW0x7GZpg4ldJfs8hkA0+JPxI7SflMHiOGH+D1rczUDYFb8W5kBmIlhs0zvmm9u+Dq3rZ4zCj81Apr4qybAzW2pTze9Y3wQBEAg9QnoDYAF8SfyE99IqAEgE453hyf+WUQczvh4oq+sOOCoYQbAgvh71/P/UaLb7n98obvkMcUAmBd/oaOMiJ1ljf77ivd7fv+aDzMDYE38aQaATLbVXBXv9uqPR7bc+nZuW8OvTYi/YgK2NEzNtDTFdbaFvr14DQIgYDMCqgGwKP4JNwDS8czPKQbASs+f9v6zJhNVdKa/9PygY4GpMf8jBYT2/LWH+fQV/EK/Hzu8FrpK/0votib+1AAI7RVpdmg/37b2T2yVPzrFT41ZY/7VhFd6/kz8qQGQWms/k8j2c8319RbEn3BbGgm3tfGhRLYZxwYBELARAWoAwhD/hBsAcTxzxRwr/PnG/Fnan4k/NQDP2wG/s8/xAcUAsEV+tKl+3mp/peBvtvhTI/C6Hdqvb4PQXfobQR3n129nj/kTJvxU/Gk8WvkR/X4S9ZpvrTynCT81ACbEnxoAcVf1skS1mR6Xa65/zGgAZqX91Z6/Iv7UAGxp/Eki24xjgwAI2IgAMwDmxvyp6OsjoUMA4kTGTZJ+WV/1tfJgn2DiT8SR7NN2wM8KAf3m+ZsQf2oAhEjaT7Mf8qGSL3AHVmdJvUWZ9HWkGRGxq/SNWQZgLvHvKCdTvUW2WFKXb6t6QjMAJsWfGgDnztqVkVyLSL/LNevT/6bEnxoAF304UqTHxvdBAARSgIDRAAQt+NMLv/o6sQZgNHPFLAMwh/hLI9m0APCEXS6b2J/P0QV+WCjz/EP1/JVhgMOFznDaT5fZFQ+srhUPFP1KOFBEtOgtIkJv8a/E3qKacJfiFbpK/2wwACbEX+got40Q8a1VI4Gn+s1O+1PhZ7Grxg4ZgCklA2Ba/IlzcyOZ/EFiaxfCuX/xHRAAgRgQ8BkAS+JP5McTWwQojKUvNRgAc+JPpGNZz8UAY1i7FPvzX7Uo/kQ8XPiK1YORsRvfJh4sOirqhZ++VsSfGgAWYm/REP2s1f2L3SXPawbAnPgTob38Z1aPE6vP821VZ8ym/VXx53fVEGFX9XWxapOZ/XLN9VMBqv0Dpf3ZEAAVfxgAM2TxGRCYJwQUA2BZ/BNuAFyjmQs1A2BW/EeyiXws+092ubRif8Fmk2l/KvxqPGK1/dLBova5xF81AUJP8T6r+xe6Sh9kBsC8+BO+o3y71ePE6vN8a9VvjAYgdM+fij+LHTVfj1WbzOyXa26Y8s7zV6f6zSn+MABmyOIzIDBPCGgGYPY8fzXVb9w+/g0q/kR+/KaEDgHwI6v+iRkAC+IvHcsm0rHsy2Qo6112uLzCQM5HxCP5gmICZlX7+yr/feIv8AcLLT2/QDiwerEF8SdCTzHhu0sWWuHDdZd8UOgsdeoW+KGL/BgL/jrKiUCjnYUkdpR/zMoxYvVZukoe31rl9hkAk+K/q4bQ5wnEql1m9sttDWAAtjToC/4MPX8lA9CEIQAzcPEZEJgPBJgBsC7+CTcAtHBNGs10aqv7+Vb5o5X+3mBj/nTcnwq/L4azc+xybYU+RyWb5mec6hdI/Il4aLXlx9AKB4p6tPH+AGl/Xc+fiT97oE9vSadVPkJHeZnBAKiV/mxrEH8itpd90+r+Y/V5rrUyPSzx31UzE2nxZKTnNMsAmBB/52YYgEi54/sgkDIEAhoAY7W/kgHw9fyp+CfcANALII1mXTIYAE342Wp/ivD7i/+xbCIO5+6x0wUUjxQ0iX0FLt1cf7XgT037y2JfQViL5gi9Rb/WDIDfmH9A8e8poUbgl+HwETvKa4TOMskw1U/f8+8od/Ed5beHs+9YfYdvq96uGAALPX/a+99V83Ks2mR2vwYDYFL8nZtgAMzyxedAIOUJzDIA5sSfyI8ldgiAXhhpNOuAZgBMir90LIdIw7mTdnuqntjn+KR0pHAfnefPjICS9n9NOly4TzxU8O/h3ojCgSKZGQDT4l9ChO4SOdzj0dS+0Fm2R+go+xNL+Stp/z8L7RUd0v41CV04x/+c6Ep6/O6q19gCP36L/Oir/bUxf0X4CbezhvA7anr99xfv95oBsCD+MADxvko4HgjYmIDBAJgXf1sYAHk0q5IZAEviTw1ADhGP5TTZ9bKQnuJ30ohG+8IQf2oASDSOTfat/QeS4OVyQ50Ht7uyNhzxpwaA27Fubah9x+N3zABYFH8YgHhcGRwDBJKEgGYArIm/LQyAcDznI77x/tBpf6Xnr4g/NQDScM6vyYnSdyTJZQq7mf5T/YKn/VnPn4l/tAxA2I2OwxdZ77+15uf+y/vO1fNn4r+zlvA76y0VY8bilLgtDVNseV9lhb+ABX90zJ+Kvj6wDkAsrgb2CQJJSIAZAOvibwsDQHFLI1k/VUxAkII/VvxnEH6WAaAmQD6auy0JL5mlJgu9xW9qou+d708r/ZWg4/3e6DYYgITO8LB0gmF+mG+tfiR88a/9rzAPG9WvcVsaDQZAneevVvsHEn9kAKJ6CbAzEEhuAgENwOyCPyr4frHKFiIhjWY+6F3hb3a1fwjxl47mEOlorkcYzlmS3FcwdOvF3uIXDAZgbvEnQnepbRZLCn124f2W3125iG+tdmm9fXV1P7pV5/h7txwd96cpfxa1hNtZS7gdtd8O78jR/ZbeAJgVf+cjN2MaYHQvA/YGAslLYJYBMCf+RD5hDwOgDANku2dN9Ztb/KkBoPGGNJj92eS9gqFbLhwofkAzAObEnwhdpfeF3mvy/lZqq/kU31r157DFf2et2w7pf3oFVANgRfxhAJL33kXLQSDqBAwGwLz428YAUCDSSPaoYZ6/efFXTMBg7m+l/txPRR2uDXb4Zp/j3WJv8aSJtD/t+VPx/4tdHtITbXzizsqP823Vv4pA/Gnv/1i02xXu/qgBsCr+MADh0sb3QCBOBMjJtCtdp5ff6Xp6+TnXqRVvuE6tILPi5AriOrlSizAf6etb5c+a+NvKAIjD2SuNBiDwmL837a/2/DiF0nIAACAASURBVJXtUC6RlJgSBxw3xekSx/UwYnfJTUJPsVsb76fj/sYxf1X83WJn2Y1xbVycDia21SznW6snIxR/4txZszxOTZ7zMM7NegPQRIKN+VPRDxg/vJk4f/hNYzz8TeLU4hbifPgW4vxBgPj+rcTpHw/dSpwsbntj5qHbzzofuu2O1zbWXznnieADIAACCgHX6RsWuZ5e/nvX08tni75qBBIv/rYyAJScfCz7pGICwhJ/Ig3l0fCIA3m2WqgmWv8vxJ7iG4WekteZCQgs/q+J3SUJfbxttM7Vfz9cW1UD31rtjlT8+R21T/rvO5HvfQbAVuJPnA/dpsT3biMz37vtd9MP3mZpaelEMsWxQSBhBORnln/d9fRyIQnE334GYDTry9KxHI93ip9W6c/eKwV/wXr+qvgTaTCPiIN5RBp03JuwmyCGByZ9jqv4rtK7hO6SZ4Tukt8rUfoM/Rn9XQwPnbBd863Vd4Rb7c8K/pSiP5r693At676YsBMJcGDFANha/KkBoMFz37/9qwFOAT8CARCgBMirjre6n17+8yQRf9sZAMpQOprTNcsAWBR/agDEwTyX3J/7FdyZyU3Auavq83xrtRRpz5/bQSv/13XYjYZzc9OUjdL+/j1/VfzJzPduJzMP3v5T0lbzFrsxRHtAwBYE3E+vKEsi8SfyhD1mAegvHhlJf680nPNbzQSEJ/4sCyAM5B/U7xuvk48A11rdHh3xr/3N9I6G99iNADMAfov8sAV/4j/mP5f4UwNAnN+7rcRuDNEeELAFAdfpFX2zCv3sNeZPe/1KTKTb0gDQCykM5aVJwznuOQr+ZqX9vT1/Jv7igIOIAw6ebNz417a4OdCIsAhwu6vfnGUAzMzz96X9aerfLeyqvi6sBsT4S85NTVP6Ff7sLP7UAMw8ePuhGCPB7kEgOQm4Tq14MaABsEfBn5/429cA0KsvHc3+tneOv2/c31ftb0b8qQEg/EDOPyfn3YRWT7fVvDcK4k+47es22pXmLANg056/V/zpUMDzdmWJdoFAQgm4nl7x/CwDYFvxt7kBGM75jsEAhCH+zAD0Of4poTcFDh42gVkGwHrPn/b+Cbej7qGwGxHjLxoMgN3F/8HbyfSDd6T0CpMxvtzYfSoTcJ3yGwKwtfjb1wCwIYCjuW7NAIQp/uKAg8MQQHL/jxN2V0+xLEDY4r+OZgAucy216XYkoRmAJBB/lgX4LoYA7HgfoU02IOA+taJUywDYXvzTiTxuwyLAPsf7pKN5v4uC+BOhP++ADW4LNCECAtzu6nZTa/sbx/y9PX8m/tQA0PjTTEvT+yJoSky+ygxA0oj/HcT54O3FMQGBnYJAshNg0wBPrfiZKynE354GQDqa0xMN8Rf7HS65z/HlZL+n5nv7ndtrPsfvqpFUExDwwT5ziz8zAc7t62xnCJ2P3DwV5xX+TFX7a2P+SuEfmfnuHTT+F9MA5/v/SJx/SALykyu+5jq5kleX+E3A8r6+Yj9a8c+q/Wm6XxfjVPxpZNjiaYAqUHk49yvS0dzLzACEn/YnYr+DSEfyN6j7xTa5CfC7am+jBiAS8WdZgJZ1l4Xm+sV2ohHQAMRued9IxJ/nHrwL62rY6eZBW+xJwPXk8oWuUyt/Z3Pxt50BEIdzTkVB/D1iv+M2e94ZaFW4BLhdNQ3czhq34ZG+Jnv+XvEnXEsd4bbXnQ+3DbH43iwDYE/x/+30d+5YEIvzxz5BICUJkBPL3+E6ueJ2+amVZ+SnVk7KT91IWDx5I5H944lv+B7oo762/mAfKz1/Kv62MgDiUN6NURD/lH0YkP4/idBdco3YUf6w2FXaz6K97AdCZ6mterb69kbrtXNH7Q3cjtq/+C3v6x3vZyv9qeP9xm3LOkX8qQFoqSPO7etWRKtNke7HYADsJf5/mfnuHWecD95x2x8fueMdkZ4nvg8CIBAjAuxxwOoCP3On/VXxJ9KYfYYApKO5x71P9PM+2Y892Edb2z/AIj9snr93wR+a9v8/cbDg32OE2Ba7FfcX/ZvQUX5a6CwjWnSUEUGN9opTQlfpv9qisTFqhNhS8zFuZ+0vlel9VPTVMBT8+QyAn/hTA8BvW/dEjJpnebeaAbAo/pM/uDsln/tgGSC+AALznYDBAOjH+tXXvjF/vfjbxgAIQ1kflYZyPT4DYFH8BxyTUn/uf6TyfSB1lX5a6Cx7XRN+agJU4WfbciJ0lBOhvfw1qb3iU6nMYnpX3Se5HbWvhyP+3LY6wm2r8/AtTbZYIIoZAIviTx/tCwOQync4zg0ELBDQDIAq+PptcPG3jQGQBnO+F7b49zs8wpG8NAu4ku6jpM/xVqGz7L9NiD81AETYX/6TVK/W5ndWL+R21Lq4HeZ7/l7xpwaAOLfV32WHG8H5w5unnD/8JjHEw98kTi1uIc6HbyFU9PUBA2CHq4c2gIANCDADoBd99XVo8bePARjK/aliACz2/PsdRDySv9UGlyCmTRA7y2pNiz81ACwqqmPaKBvsnN+57mHvHH9fyp/O+Q+Q9teLP7etnnDb6i/a4BSumGUANOGnJiCw+CMDYIcrhzaAgE0IkMcdVxmm+VEDMLf4E2ksM+HTAL3pf9Nr++vG/Om4/69IV2nKFygJnWVPaQYgcNrfK/qq+NNthW3GuWP134RsufXt3PZ1PzOYAHPiTw0AmW6u+2Ss2mZ2vwYDYFL8nd+/FUMAZgHjcyCQ6gRmGQBz4k+k44k3APLRvCppKIyeP+399zsa7XptSZ/jKhrRaJ829m9e/Imwv+K1aByb7Fv7D2+0V7wrGvuKxT64HXU1mgGwIP5ccz1xbq2viEWbrOxTMwAWxB8GwAphfBYEUpyAwQCYF39bGABpKO8AMwCDecpjfPVb5ZG+/tX+bKEfcSB/0m69f+lQ6aeFA8UdQm/xn4WeYqJECX3dLh1YHXZhntBZdjlIwV+gnj8VfxqXw73txdaKTwh7K/fye9e+xu9dS/g9lTQm+bbKbmdbxefC3W8svufNArxmMu3Pev5U/Flsq9sVizZZ2SczABbFHwbACmF8FgRSnIBmAKyJv10MwCVJL/rq61Di359PxP78PXa6rHxP8S1Cb7FL6FWFn25LfNFd4hK7Sm8Op81hiD8zAeEci3u0spbfu1Zmwu8Tf9UE0K1baKtaH86+Y/UdbntdC1vkxzvPn71Wqv1ZwZ93zN8o/ooJSPijbZ0P3zw1V8EfK/77/q2ECr8aKAKM1d2E/YJAkhEgYze+TR5Pv+xd3td/qh8t9vNGJhV9ffwhkadKyBV/JQ3mcYY5/tQAzC3+ROrPz01k2/XHFntLGpnwBxd/InSXsBC7S+r03zXz2mcAtKl+oXr+TPz5/RXEzL71nxH2rlmjCX9g8Sd8W6USeyrv0H83ka+5HetWGQyAOfEnXHODnOjZEj4DELzgTxV9/RYGIJF3HI4NAjYjII+l/9G7uh8zAD7RDyr+1AgkdFlUfiDnn8MRf7E//zIZyrLFuLRwsPCjQm+JGKLnr4m/YgJKBaGz9F+s3D6KAbAm/lYNANdW80F+71qnZgCUtL++5+8T/7YqwrdVyeKealssvER21l/JtdS5LfT8qfgTbmsDcf6w/gNWrkW0P6sYAGvi73wIRYDRvg7YHwgkNQF5PLNLNQAmxZ9IoxnfSeRJ8wM5iwwGwETPX1TS/39KZLv1xxZ7S7ZYEH8idJUSsat0k34fc71mC/woi/yY6vlT8ef3WcsAcI+u+a4F8acGgAitVbvnanu8fs+1rPtNgKl+gdL+mvhTAzCztf7T8WpjoOM4H75lKtA8/0Bpf5YBeOhWAgMQiCR+BgLzmIA8lvFFeTzDY178M53ccMaHEolMGHQs1QyAefGnc/8TPnarchN6in+iK/jTj/n79/yZ+FMDIHSV/lj9vpmtd4U/S+LP71tjaQiA37v2OWYA5u75M/HnW6sI31r5SzPtj8dnuG11Z3wGgM3zn1P8qQHgtzYuikf7gh2DGQC/RX7mEn/nQ7dhGmAwoPg5CMxXAtLx9O8bDYBhvN839j+aSeSR7IQvFCP2565gBsCa+FMD8JhdrrHQU8x5q/3Nij81AE4r7VcW9tHP8Wfz/NVqf23MX+35U/EPwwC85q32D5X214k/NQBVbrJx499aOZdYfZbbVjeiGADz4k8NANfcsCpWbTKzX+cPbpligq83AbpiP23c39vzp+IPA2CGLD4DAvOMANm48a+lscxHFBMQVPzd4mjWLXZAIw44bjJT8OdN+1PhV+MZO7Sf9DneHob4UwMgWGn/bAPApvlpBoAJvzftr4q/dQNQ+edZBkAt+FPG/P3FnxoAMr2j4T1WziVWn6UP+AlR7W9I+zPhp+JPawCaGxP6ZMBZBsCE+MMAxOouwn5BIAUIuMazF0vHM0el45mCVvU/mjkjHc88JB3PtM08bvFI3vJZBkBZ4IdO8zOGT/yJ2Ffwgh0uk7O94gN+U/1Cpf19QwCdpa9bab/RAJgTf8sGYE/lLw0GwIT4863VRNhbZYunD3It9Wc1A6DO89e2itjrhZ+93tJA+C1NX7NyLaL9WYMBMCn+zu9hCCDa1wH7A4GUI0CnBwrH0v+VP5H5YfJ8zVvsdoLSYMFnDQbAjPgfKSDikYI36BTCRJ8P312yUDMA3ml+6nQ/oZuN9ftEXxn7J0In+/nPrbTdZwDMiz//qLUaAKGt8hXNAJgUf2YAdlcttXIusfost63+j8wAaKLvXezHW+0fSPy5LY1E3NyQ0JkMmgGwIP4zMACxuo2wXxAAgXgRIH2Od2sGwLz40wwAEfuLPhGvdgY7jthdUssMgBXxp4/x7Sw7FWyfgX6uGABr4m/VAHB7Kh9jBsCC+PO7qwnfWv3NQG2O58/oo33DEX9qAGZamt4Xz7b6H4sZAIviDwPgTxHvQQAEkpKAOODgRavi31dAhMP5JYk+YaGn9JCvx68s9BOy56+IPzUA+6y0XWi3Lv5WDQC/p3K7tshPiDF/2utnQcVfMQBDVs4lFp/lmxtzteV9tQxA8LQ/FX5vcKTP8TexaJPZfTq/f+uUVuinGgG/gj9W+Pe92wgVfjWwEJBZwvgcCICAbQmIA47nFQMQYsxfSfsrPX/a+2eRP5rIkyLtFX8ndJdMGQ1AiLS/T/wJ31l2t5W2e9f2D1rtrxX+PbqGUOFXYq21aYBtlY2KAWCL/AQs+Jsl/ooJmKEL8Vg5n2h/lttWf8RoAEyJPy0CTPh00lkGwIT4z3zvdkwDjPZNhP2BAAjEn4DY72gOWfAXUPyZCXA5+xwJW8WN7y5ZHY74s8f6dpVeZ4W0agCCVfszA6AJPzUAa1lYOQa/u3IRXdxHCzbPn031Y9X+QcSfZQGEXbVrrBwrmp99c0vlu7nmetFnAEyKP03/b25M+PMkDAbApPjPPAgDEM17CPsCARBIEAHpSIHDYAD01f7BxZ+IhwuJcLjwe4loNi1AFLtLXvIZAHM9fyb+HWUSnT5opd3UAFgVf7qoj5Vj0DXx+baqGWYALIg/v6uGcLtqXqVTUK0cL1qf5ZrrHghH/J2bG4lzU0NptNoR7n40A2BB/GEAwqWN74EACNiKADdc+CG6tj8zARbEnxoA8XAhLwwUfSTeJyR0lxSHKf5EaLdWAEjPLRzxt2oA6HGEtqpxZYU/cz1/Kv5qJCILwG1v/BDXXO9UDID5nj8T/82Nl/mHm/453veO//GYAbAo/jAA/hTxHgRAIGkJSAP5Z3WL/NBpfkpo4/3quH8B6/l7xV99PRjPKYHTB1a/V+gu+YNiACz1/Al9qI/YXtZk9UIxA7CPru+vrPCnbQOk/bX1/C1mAGibuLaqBqMB8Cv4Uwv/6FYn/t4swOvO5qr3Wz23SD7vbK47GKb4E+fmpguRHDta33U+dOsUXdtfXeEvUMEfHfOnoq8PFAFG6wpgPyAAAgklIPbnr/MZAEviT8RDhUQ8WBiXR9PSNLfQXXI8XPEXOso8fE+x5V4nfbCPJvqqCZhD/MPJAEzvKHsP31olKSbAkvgTbmcNjcfjVVXPb6trCl/8G4lzS9OdCb3pvQdXDICyvK9Z8UcGwA5XDm0AARCICgG2HsCRfNFiz18Rf2oADq12iQcLb4pKY0LshO8qbYlA/InQUR7WzIVwxD8cA0BPnW+tHgpV8Beg56+KP+F21tKIeWGds6V+OddcL6uP9A22yI9uuh/xpv292ybJ2fzNuGYrgt1Wzodum9J6/7ppfsp0P2OvHxmAYBTxcxAAgaQmIBwpPMAMgLm0v178qQGgIUmHigpjAYH2/Pme4m0Rij8RO8qXh9M+gwEw0fNnwwB7Ki0VAartElprrzfM8w+d9vcXf8UE7KhpjVUmgN9an6NU/Vse81fFn6b/D6nnm+itZgAsiP/Md+/ANMBEXzgcHwRAIHoEpEMFnxb7CtzKHP+QY/6BxJ+IB1fT8EgHi+4nJ9Oi9oS6N/sc7+a7SkciFX++s+zlcGsVNANgQfzpqn7hXh1+d/U5tshPWOJfS7gdLMan22reG24b/L9HDYWzue5urrneHUHPn4r/Zefmpi/47z9R75kBsCj+MACJulo4LgiAQMwISIcLOg0GQKn0V4v9lC1L+bO0v9rzV8Vf2woHi56TD5VE/Eee7y7JF7pLfhup+Asd5bT3H/YQBTMAFsU/EgPA7aq5yWAAZhf8Ben5a+KvmIDt637v3F5XFOkNM7Ol4T+45vpzEY35b26i4k+4R27uj7Q90fy+83u3Tamr+82V9qfCrwaKAKN5FbAvEACBhBMQDxV8TOwrkJkJCFP8xYNFRDzA4jJ/YPUw31O8yMqJkT7HW/mu0hyhu+SCIvx0iV/r1f604p8KP4v2Cktr//u317e6n2+RH321v/Z6TyXRHugTQQaAHl/YVTXOTEC44r9jHeG2a/ECv73OQVqa3uZ/bqHe880NX+ea6we45npPNMTfualJnPph08dCHTPev5sxGIDgY/6q8KtbGIB4XykcDwRAIOYEpMOF9/tN8zPd89eJPxEOFPmit+jXQk9xK3+gJJ87WPqV6c4y7Rn2pKf4nc7eov8n9JaWCj3F7UJ3yes+4Y+G+JeLUlfppyMB5zMAygp/muDvXUu0137iH0kGgLZV3Fn5cX5XjaAv+uPooj9Ktb9a8Ocd8/fr+RvF32cEWtb9hW+p63JuqyvndjR8abKt5iqVy9Suuqu5rQ1f4lvq87ht9Tu55vpfKqJv7ql+IQr+WM/fuamJzDxy80b1eHbZ+gyAefGnJgAGwC5XEO0AARCIGgE6fi8cLrxgMAEm0v4hxJ8IvcWzo6dYEnqKL2uP8+1RH+aj30ba8y8nwv7yeyKFo67tz5b41Yu++jqA+NN1/SM+7q7au1UDEAXxJ1xLnTG21RFuW91lbludyJ7mt62ehPtUP9UA+FX7a+LPbWo6QzZujFptSKRs1e8rBsCa+M98BwZA5YctCIBAihGQ+ld/iq7yx0xAbMSfCD3FJA7i/xTZGHlBorq2v9bbV4WfboOIfzQMAFv3YFftRAzFnxoARfRjKP7OTU1TwiON/2rH/yYz37t9Sj+9z/BaN+avpv6p+MMA2PFKok0g4EdAOpH+KdeJVevliYxO13h6nxIZfa5xJaSxjD5jZPVJYwFiNKtP8o+RrD5Ji+w+aSRY5PZJR3O6pOGc+6Xh3M/7NdG2b6VDBYXiocLLbKEfZZqfUvSnVPtrBX9h9PzjI/4d5b+Z6Sr9x2gAttrzV5/qF41jz7SseR+3s+b/lNQ/m+dvNe1v7PXTLIDS84+X+NOH/hREg0Us9jHzYBADEEL8Z75zJ5n5zp1DM9+9s2/m2/5xd9/MRpPxwN19M1qs75t5YH3fzP1KTN+3vmP6vvV3T9931ydjcd7YJwikLAFyMutd8kR6rzyRflmeSCfyuBoZRB5XQhrLIMbIJNLxADGaSaTRLGOMZBFJi2wijXjjWDaRDJFDpGG/OJozNDOYHRVhivUFlA6vvss7xz+5xL+9fIrrLPtitPhY7fmrT/SL1vFndlT/B7ej9i/ehX7UaX66rVbs5xvvpwWALTQCpv3jJv7OR+yx4l+waxHQAMwt/tQAkJlv+8ddZGZjgPjWXWTmW3cb44G7yYwW68nMA+vJzP1KTN+/nvjiHs/0ffd0/WXjxncGOwf8HARAwEuAPJH9Hnki/VUm/HYTf2oGjtLI/SU/4vinZLho4uGiHcwEJEvPv72cE/aVLo4m21kGIETaXxV/uo1qG3ZWL+R21nLeOf5JIf7c5sZvRZNBLPY1ywDYS/zJ9H33qPHK1Pr1V8eCAfYJAilDQDqRftzm4k8NAI0z4S5ME8+LxR69e2j1w96Ffrypf22qn6/Sn1b999IIWPAXl7S/2F7+hrC/9Lpo8zEYAJPiT9fzj3Y7hJ01i7kdtZM+E2Djnv+mmx+O9vnHYn8GA2Bf8VdNwHAsGGCfIJASBFzjq9KSRPwVEzCYl5Ms4MUDq5voSn+2HfNvL/+d1FkWkxoLzQBYEP9YGAB6r8zsXvdZbkftb7ngU/0SnfaXZx5pakyW+1ozAPYXfzJ97z1k+t57o5rdSpbrhHaCwJwE5BPprbYb8/el/dWev7IdyiXSYN6ROU/KRh8QD5ZkiAeKXqcL/fjN809oz19oL3vS2V7xgVihYgbAovjHygDQc6SP/eVb1j2hW+hHGftP/Jj/H6Y33ZxUAsUMQNKI/wby5oYNO2J1n2O/IJDUBOQT6edsVfAXSvypARjK/d9kA+7sc3xAOFB0XDMAiU37S0JH+QOxevCNem1CTfXTj/krj/GtIupW/X4stnSKILd93f3c9nUyMwKJF/8n+C23JkVdi/56zHz3jiltip9qBLxT/bzV/vEs+FNT/cYt6/lvINP3biDT9234kb79eA0CIOAlII+n/1gxADao9p9b/Ik0lPdGMl48WhcgHCyuFnqL/pTAMf/Tka7wZ5b9LAPQVknUqX6aAWj1Cb9iAKqjXgMQqL0zLbWf4VvWnUxYtf/mpl/PbGrKC9S2ZPjZLANgZ/GnBuDeDReTgSvaCAJxJyCPr3pcneZHt8ZpfvR9gGl+dOpftKf6mRN/agCm4g4pigckfY4rhQPF94q9xW9oRoAt8BO7RX7oU/2k/WWZ8SygNBgAk+JPH+kbRdQhd0VZ0LX+uZa6i8wIxGee/9TMpqZvk401fx+ycTb/pcEA2F/8aQ3AuM2RonkgkBgCron0DaoBSALxpzUASW0A1KvMHtnbU3yX0FP8kxit8OcWOspHxc6yVfEUfvX8NANgQfzpg3zU78drS9lwzXUZ/LZ1T3Db6jwxWd53S9NFbnNT7Ws766+M13nF8jiaAUgG8d+wgUzfc89dseSBfYNA0hLgHsv4kDyewSWJ+BMxRQyA/obhe4r/U+wpGWTL/Hbr1/W3/GAfl9BR9hTfUX6r0Fn6L/pjxPs1MwAWxT8RBkDPhd9c/2Fnc/16rqX+LNdc74rwwT6/4DY3tiRbgZ+eR7DXzAAki/hv2DDj3LDh/cHOBT8HgXlPQBzPvNloAGyX9qc9fyr+KWkA6A3I95Y6jE/0My3+v+A7y+4UOsuW0KcE2uVmVsb76bh/lS8CjPnTtD97hO9uZWuX9r/+8Np/4LbW3cRtq7+fb27o5bY2PMdtbfw9t7VhhtvaQFhsafBwWxr/yG1ufIXb0nCM39LwQ+empmJh6y0ftct5xKIdM9+5Y0pZ358t72uvgj9lzJ9M057/hg1k5t5762PBAPsEgZQiII1lfEcay7hswzF/vfinrgHo8jcA5p7qJ3aWDdjtRiQtTW8zU/DnL/7UCNDv2u18/NtDhw3Illvf7v/z+fJeMQC2F//LMxs22H5Vxflyz+A8k4CAMJa+VDyeeVo6nukxrPGfuII/f/FPWQMg9hSv8mUAzIm/0FlGhI6yJ+x2azl3VnzAas9fzQJwbTUftNv5oD1GAjPfuXNKm+4Xn7X9jVP81KV+9VP9fD1/z/SGDU/P3HNP1Fe3NFLAOxBIUQLO4Yz3u0Yzr5HGMvOk0QyHNJptLoazHZLJkIdyKrzL+/oW+VHm+dNKfyV8aX81/U/EAUdKFAH63zpCV+lSxQBYEn9qAP7Hf1+Jfs/tqf6qZgBMpP1V8ed31RD6EJ9Etx/HD01AMwAWxd/5wF3lMw+sd1iOe9c7ZgLGvY6Ze71x3z150/fcc83Mxo1J8dCw0ITxWxBIcQJktOhqzQBowk8X+gkp/ilrAOj8fKHbsvhTA+Am7RV/Z6fbRWirLGcGwKL4UwPA76y17WNw7cQ4kW1hBsCi+NMn+03effdViWw3jg0CIGATApoBsCb+KWsASFvN3wtdAQxAZylhqX6a7lejg6X+qfgToaOcCF3Rf5hPJLeJ0Fa1V13Zz7etJoHG/Fnvnwq/L7ZGcmx8N/YEZr5955Txsb4BHudLH/Hr90hfGIDYXxscAQSSggAzANbFP2UNAL1oQlfp7w0mwIz4UwPQUf6QXS46W2CnterXPuGnq/2ZFn/C7ap50S7ngnYEJmA0AObEHxmAwCzxUxCYlwSMBmDOtD8VfjVSsgaA3gRCV9moZgDMin97ORHay35F17m3w40ktFZeG4H4E25nDXHuqorJEwrtwCcV2uAzAObFf+YBDAGkwrXHOYBAVAj4DIAl8Sdif2oWAVKoQlfpt5kBsCT+1ACUE7G94htRuTAR7oTfXdXrMwCWev5M/KkB4Heu2xRhM/D1GBJQDIA18YcBiOEFwa5BINkIKAbAsvinugG4TghD/KkBEPaXn030PSDuWvtJvrXKrRiA8MSf21lLCwGnZ3avQzV3oi9okOPPfPuuqRk6xu8ffmP+NO1PhV8N1AAEAYofg8B8I6AZgMBT/dR0v2/b76DiT8T+/JQdAiBtNW8ROkuntGI/ZZ6/t9jPW/BHx/xZ2t9/W0H49orCRN5HfGvVSKTiTw0Aix21LYk8Fxw7OIGZiRAzrgAAIABJREFUbwUwAHOI/8wD6zELIDhS/AYE5hcBZgCsi39KGwB6BwidZYc0A+Bf7R9C/IX9FUTYX/GHmf1r3peIO0loqyyKovgTbketzO2s/moizgXHDE1glgEwIf4wAKGZ4rcgMK8IUAPgXdtfv8iPr8evFv35ev5U/FPeAIgd5TcxA2Bd/KkBINz+isdIn+Nv4nkzeVP/0xar/bUxf63XT3v/Owzx88m2Gswdj+fFNHEsgwEwKf4z9yMDYAItPgIC84PALAOgCr5+O1v8U94AsGGAjrI/KHP85077e3v+TPz5/RWEhrBvTVu8HgFMl+7lW6t+HgPxJ9yOdYTbvu442eh4azz/V9A1GZxb6//fzKaGa4XmmxP6VMV4nrfZY2kGwIL4wwCYpYvPgcA8IGAwAHrRV18HFn8iHkndGgD1sgudZRu0RX7mTvsbxJ/fV0H4fWsIv2/tzlhnAoS2mn/hWqtfjaH4UwNAuJZ1R6kxUvnEautsrvs8t6VxgNvSKDs3NxI1uM1NP53ZdHNTrHnG6ryivV9mACyK/zQyANG+DNgfCCQvAc0AqIKv3wYX/3lhAN58tPLdQkf5DFvlL0jBX6Cev0/8qQFgMTy1q+jqWNwl/J7qhXxr1W9jLv7UAGxfR/iWdU/EamYAzZY4tzTdyW1pFLktPuFXDEATcW5uIs5NTYTb1PTMG1tveVcseCbTPhUDcDdhVf600t+v2p+O97O4fz2hPX8q/jAAyXSF0VYQiDEBZgD0oq++Di3+88IAUPRCe8XGYNX+JsWf8I+uofEr56MVK6N1OeljcLnW6m/zrVWueIm/NwtAuJa6381sX7c0WudC98NtveWD3NbGx6jwhxJ/agCUaHx6vmcCZr5195RV8YcBiOZdi32BQJITCGgA5hZ/Ih4pSNlpgPpLSnY6rhTay39vNAGs0p+l/KkJUMf8A/T8VfH3btfS7TFuT0XYVfWsNqG1ag3fWvWLKFf76wr/lN4+E3xvz18n/tQAqDEgbqv9hJ6X1ddkZ/2V3NbG+7ktjW+aF381E3DzOqvHS6XPGwyAbp5/sJ6/kgG4B9MAU+kmwLmAQCQEZhkAc+I/bwwAZUvn9fsMQCTiv5bwe7U4w+1dUyc8WvmRua4f7enybTVf51urH1HS/XRdf8tr+5up9lcL/pQx/9DiT7htdTRkbtu6o9y2hkwr9QHc1oYvObc2bOa2NL6mCr+5nr83A/DIzcT5yM2vzsUulX+vGQAL4j99HwxAKt8TODcQsETAYADMiz8R++ZHBkCFybdXHBXaoyb+PiOwp5Lweyp/we9ZO8K3VW3l9q79Dt9aeTe/p/IHQmvlHr6t6hTXVv2mIviq8NtG/L0moJ5w2+oJv61+mm+uf4Jrrvuuc2t9BbelPl1oqbvOuaV+Jd/cWOBsbrjTubXhMLe14VfclgaW6o9A/KkBIM7mb75fvUbzbcsMgEXxhwGYb3cJzhcEQhDQDIA18Z93BsC5t+r9wv6K36nj/tbS/lqv3yf8NBOgiL9x21ZJeBZVhG/zBuvt21v8qQHgmv2jgXBbA0S0xP+Rmwm3uemLIW7vlP7VzAN3T6nL+86V9qfCrwaWAk7p2wInBwLmCTADYF38550BoESFfWsXC/sr5BQR/7PcjnVnlAV/TI/5q2l/Q88/UeJPMwAzD9/yafN3e2p90mcAAlf7q2P+/7+9u49t477vOJ4UbYq2WwP3CdiKoVuLrQ9YH4ZiwNCn/TGgw1qsHTIrTtM4tmWJsqwHW6SeKInSyXFsR7JkW7EeGD8ldtNkebCNtQ1WpOvaptsfbfdH1m5Ys6Lb0HXoWvRC3hOppvZv+B15xzuKEu9kUXcS3398QdmmyLsXaX6+97vf/egEv3NLA7C93gfsDQLrFhCP37ujvLa/s8Jf6fbpu+VM/3Ltkuf8Zeh7qykmAVbDmhf3tVkX994MNuEvtkf+P5aX8ulz+95qnj3woxWT/UrX/DsT/Sq3pXP+sQl/Y7rXEIry6urXqFn+XGoAwoW/bAJoAJrlHcJ+IlBHoNQA2Ev7VhoAN/hlA1Az/JtyBMChLJzfN1a+vt+5zr/GbP/Yhv/PtIcT73H2pXi2/Q/MuQO/8DUBc3LRH3emf+nn+IW/MKYOXXL2oxlv9fHhXK3r/Fc78rdHAEZpAJrxvcI+I1BTYEUDECz8RfFv7mnKEQAH0Tq/d8htAkrX+Xsu9Ytt+P+fvnjgD519cG71+YPvNR8+8D+rXOoXu2F/e/LfVK+Zm+p5l7MPzXhrNwBVi/zUC39tdIQRgGZ8s7DPCNQS8DUAwcO/6RsAaWld2Ju0zu+7UV7oR1jn5XX+cQ3/xH/Io/1a7wH5d8WFzneac50/3hpH/r2v6A8dvmu1fWmWv9czwznvCn9Bwp8GoFneHewnAgEE3AYgXPjTAJRtzQutn7HO79PiHP7G2Y5vame73lzv7SDnBVhznX/vNgGxHPbv/bkx1fPJevvSDP8uG4BS6DvL/FZm+jsT/pxhfxn8TjEHoBneHewjAgEE7AYgfPjTAHhsl8+1vdc61/rPnkV+Kpf7RXup3w1zPnE0zEQ5ueiQ+fCBo+aZzpvlhX7sa/ztmf4RXepnD/nLS/6me1+wZvve7qFv6h81XwMQLPwZAWjqtww7j4BfwN8ArDrhTwZ+dTX1HAC/4m23yVXwzHP7j1rnWpfdRiDS8E/8W+FsxyeqtzPonwunD37MnOv8gRv8EYa/Od2rGw8dSoVpZILu51a+X6UBCB7+2ghzALbya862I7ChApUGIFT4i+KTzT0JcLUXoXih9d2F863PRbjIz8vGfGJYKC13rLaNQf9eNjXG6YPD5pmD+SgW+TGme2+a073PWDPJ3wm6zc10v1IDEC78aQCa6R3CviJQR6DUAIQOfxqAOq6Fc20fLzzS+nduI9D4Ff5eNs92HMvP7n9TnU0L/c+5hc4d5qmDinn6oFpqBGqs7idX/Nu4Ff5umNO9TxtThz8UemOb6Be0TDrnO9fvrPY3mnbP9zvn/WXwO8UcgCZ6k7CrCKwl4DYA/kV+Sgv+rBz2l8Ffrs9xCmAt2PK/GefaPmA90jZnZfer7tK+confjVve97vmQscBMb37DQE255bu8su5njeaZ7oS5mzXP65Y4ndjwv8nxvShE9pM16pXK9zSDmyzX9bGajQAdcJfGxnlMsBt9j5gdxBYt4DdAIQPf1F8kgYgDLqY63mt8Uj7n1vZtrPWUtu/W0ttNytNQLuwltqFtVijFhLC8pS5kDDM+cRXjYWOoeJcIrLr4Itnen/fOtWVNE91f9ma7dK8X+oT4lv9fm1MH/quMd07bcz0/plQlFeFMW32+65oAAKEPw1As79r2H8EPAI1G4C1j/xl+NMAeAzX86McVi9mWz9pLbX3WEvtp63F9qfNxfbnrcX271iL7d+zFtv/oTDf/hVzseOSudD+QGGx/fPGUscHw3zl7nq2az2/IyfnGTM9H7Rmu+42T3VnjJnux8zZ7meNk93PGzM93zFmer5unOz9knGy+wnjZM+UebK3TZvq+bh6InHnep6P3ykJ+BqAgOGvpRkB4P2DAAJlgRUNQLDwF8UnGAHgTYRAlAJuAxAi/GkAonzFeG4EQggsX295//LVnS2/utaSKFbXsy2JYtB6qiVRdGtXoviUp57eddj9kp/g4U8DEOJ15K4INELAbgBChr9sAPIjY4f04dGEPpwJXgOZhL5K5QYyCbdSSiI3MN5i9GXe34h95jER2PYCy9f++nPL13a+tHxtp1i+ulMUq+vZFlGsrvV9pW/l2/3ChT8NwLZ/F7KDcRfQRtM5d5a/s9KfZ7a/PN9vV3pUyOD31fCY0KpraExodmWENuSpwYzQ3BoX2uC40AZKlR8YF271T4i8r5SX8v3KPXF3ZPsQiIWAELfdXrx615Id/PEOfxqAWLxj2IhmFtBGR/wNQKzCf0LkU04pi+I2cXszv1bsOwJ1BZav3TWxRcJfFJ+4l8sA676i3AGBxgn4GoD4hr/IpxSRT05mGifBIyOwxQUKf9vye8vXdi7HfNhfHvnL8BfFL9IAbPG3HJu/xQXcBiDu4W83AErx5dTRd2xxcjYfgcYILF/bqWyh8KcBaMzbgEdFILCA3QBsjfAX+SSjAIFfWO7YfAK/urbzazGe8Oc98pfhLwqMADTfm5Q9jpWANjKSc5b3jX7Cn3O+X94qlbKDX4a//XfPxwqQjUEgLgLLV1u+H9PZ/rXCnwYgLm8ctqNpBSoNQNSz/QOEf1IRueTkvzTti8WOI7CWQPHqzm/5GoDqy/zknzf/Ur/Vwp8GYK0Xk39DYBMESg3A1gj/fHJS5Pomv7EJLDwFAltPoHh156zbAMQ//EXhcSYBbr13GVu8nQS0kdFctNf5Bzvyl+Gf75sUuaQyvZ382RcENkzgV9daPly8uvPmigV+4nfkL8NfFB7/PJcBbtirzwMhEF7AbgCqF/iRf65e4Ef+ecMX+QkX/vm+yZsvJ4/8Ufi95DcQaBKB5WdbLq9oAOI17O+EPw1Ak7wn2c34Cmjp0Zxvdb/4hr/IH1YuxVeSLUMgBgLiS3/5+uKzLS+4TUB8w58GIAbvFzahuQVWNADxPPKXw//f+t+E8vrmfrXYewQCCIjn/uK1xastU8VnWgqlSX93i+Iznnr6blF0a5coPr2rsp7/U56fw6/tv9aEP++Rvwx/GoAAryV3QaCRAr4GIJ7hX9D6Jk8IRbmjkQ48NgLbTkB/quWthWfu3lN89u4TxWd2ZVetp3Zli9X15D3ZYpB64p7s8hP3XCqt7ueu8Odc5y9n+peqdM7fCX7nljkA2+5dxw5tJQG3AQgb/kOZS9pgJqsNTpRqYCKrBanURFazS8lqqXL1KVltRU2e0Pom92gp5S1byZNtRaDpBMRTLXd6lvcNGv6i8AUmATbdm4UdjpWA3QCEDf/BjFCHhu6M1Y6wMQggEI1AqQGw1/YPE/40ANG8XDwrAq6ANjyWWzHjP8BsfxoAl5AfEGhuAbsB+GKpAXCH/OXQf+1hfxn85bqPUwDN/dZh7yMWWNEABAh/bXCcEYCIXzeeHoHYCDgNQMjwF4Uv0ADE5kVkQ5pSwNcABAx/GoCmfKuw0wjUFpANwDrCnwagNid/i8CmCbgNQIjw1wYYAdi0F4gnQiDuAr4GoP6wvwz+Ul1hBCDury3bt70F7AYgZPjTAGzv9wR7h0AoAbcBCBf+okADEMqZOyOw0QLa0FiutMRvRmhDnhrMCM2tcSGH/WXwy8ozArDRLwOPh8DWFbAbgPDhTwOwdV9ytnybCJQaAE/wyybADX7588rwpwHYJi8+u4HARgiUGgB7ZT9ngZ/SbWW2v3fYXwa/U1wFsBEvAI+BwDoFtKFMLsyRvwx/GoB1YvNrCGxHgZoNQP3wF4Uru2kAtuMbgn3aMgK+BiDAkb/dAPRPcBnglnmF2VAEGiywogEIFv6i8BgNQINfGh4egTUF3AYgRPjnaQDWNOUfEWgqAV8DEDT8L++mAWiqdwk7G0cBuwEIGf40AHF8JdkmBCIScBuAMOEvG4DLu28WL+9W7Xpst1p87H5/PXq/WnRrj1p8dI9avFSr9qrFi5WyLu5VK9WqWhc9db5VtarrXKtqVdcj+1WrurL7VcuuNtXKlmupTbV81a5aS+2qtVijFhKq5SlzIaGa8051qOZ8uc52qKavDqjmwzVq7oBqznX660ynarp1UDXPlOv0QdX0VZdqnlqtulXzVKWMmW61Uj2qMdOjGidr1HSvatSqqV7VmDrkr4cOqYZbfarxUJ9qnKhRx/tUo7qO9amGXUnVOFauB5Oq7quUqh9dpR7oV/XqOtKv6nYNqPqRck0OqLqvBlVdWa2GVF3x1PiQqrs1rOrjw6qeKZWWGVYrlVa1sRo1mla10RF/jYyoWqleyo+MPZFPj33qVv/La4OZXGXSX+0Jf86wvwx+p1gK+Fbl+X0EtomA3QCED3/ZAJTqMTkacL+/Hr1fFNzaIwqP7hGFS7VqryhcrJR1ca+w68JeYV3Y56/z+4TlVquwzrcK61yNemS/sKoru19YdrUJK1uupTZh+apdWEvtwlqsUQsJYXnKXEgIc96pDmHOl+tshzB9dUCYD9eouQPCnOv015lOYbp1UJhnynX6oDB91SXMUzVqtkuYs92+Mma6RaV6hDHTI4yTNWq6Vxi1aqpXGFOH/PXQIWG4dVgYDx0WxokadbxPGNV1rE8YdiWFcaxcDyaF7quU0I+uUg/0C726jvQL3a4BoR8p1+SA0H01KHSlRk0MCn1iyF/jQ0J3a1jo48NCz5RKywyLSqWFNlajRtNCGx3x18iI0NwaFdrIqNDSo0JPj35VS6ffvN6PkkoDEDz8GQFYrza/h8A2FKg0AOUFfuRCP5WZ/uWfy2HvhL5zS/gT/oR/pREIEf6yASjXi78YHPzN9Xy0lBqAcOGfTzEJcD3W/A4C21Kg1AAQ/hz5e0YBOPJv6JG/J/ztJiA/PLq4ng8XbXA8V73Ij3OpnzPc77tNTYhSA3CCrwNeDzi/g8B2E/A1ABz5V04BeIb85fA/w/7O0D/D/iuG/td35F8aARgeE9rw2CvmoPLbYT9b7AbAs8JfkPDPpxShDtEAhLXm/ghsSwG3ASD8CX+O/Df1yF8rhb9sAISWHmsP+wGjDYznnOV9g4Y/DUBYZe6PwDYWsBsAwp/wJ/yjC/9SIzAV9mNGNgBu8MtV/jwz/d2fy8P+MvidYgQgrDT3R2CbCohs4jWFK/fdqEz8Y8KfM+OfYX+G/bVMjZn+cvb/rQ/7l478nVGAwdFs2I+Y/MD4T90GIGD455PKDZHIvibsc3F/BBDYpgKFK/f9d6kBIPwJfyf0nVvO+TfgnL8//OVX+q6vAfi23QAED3+RTyr/tU0/xtgtBBBYj4B15b75whXCn/B3Qt+5Jfw3JfztBiATegQgNziedof6vU1AjWH/fFKR4S9PA8yv5zOC30EAgW0qUHx0z7sKl3cvu4v7cJ1/eaEfFvlhkR/PKYCNHvaXwW+X/TW+oRuAfJ/ypny/ovqagLXCP6ks5/qUd27TjzF2CwEE1itQvLy7y9cAsMgPi/ywyM+tLvLjvdRv5bC/E/5D62sA5P91LaX8Vb5/4obdBKwd/iKfnOxa7+cDv4cAAttcoHjlvs7C5d3FAuFP+BP+mxf+t9AAyI+k3MB4Sz41octFfpyZ/vatM+yfVJYJ/23+4c3uIbARAoVLe3/Xurz7TOGx+39UeOz+V+x1/t11/eUa/6ztv2J9f9b2Z23/ytK+zhK//iN+Z7a/d9hfBr9Tg+HnAHj/v5uHR34rl1Km8inlh/mU8oqc7Z9PKv+ZTypnGfb3SvEzAggEEhCK8qrc4/fuuKVauHdHrlzmxX2P2l/y436pj/yCnwBf7HOu9XBuoXNHVGU93LHLPFvjS33kF/2sHf5fXdc2H+/ckdugcr/kJ+R1/v7nH96RO765pR0ZfM7+ch/fl/rIL/mp8aU+8ot+yl/sYyhD9+aGh3dEVfn06GF7qV8n8L23q4e/0G6xAfD+h5b/b4WivNr7d/yMAAIIRCpQuLAvW/lGv4Dh/8h+YZ5rS0S54eZC56dXHPXXD3/5jX5fjnK75XPbDUDI8JcT/6Lebv3IwHX/N/rVD3/5zX7a+NBno9x2fXg04Vvhz2kA1g7/DW0Aotx/nhsBBBCoKeBvAAIc+Ze/1jfyBmCuRgOw9pG/83W+0TcA6wj/WDQAk9UNwNpH/s7X+kbfAGRWNgD1w19ogxOhrwKo+Z+Mv0QAAQTiKFBpAIKHvyVHALIRjwBUNwDBwj8eIwBTh4ThrYeca/zl7erX+Uf9/tF9DUCw8I/HCEBVAxAo/OVX+tIARP2e4/kRQKCBAqUGIFz4W9mYNQDBwz9+DUDA8DeO90V/CsBtAIKHvz4eh1MAngYgcPiPC22ABqCBHz08NAIIRC1QuNCatSf9nWsVVnWVh/vlEb9b2f0iVg1AmPA/fTBeDUCI8I9PAxAu/GPVAIQKfxqAqD+beH4EEGiwgN0AVAe//LM39J2fy+FvZdvicQogbPjHqQEIGf6xaQDk7P7qKs/2d87527fjQ0KGf2wagNDhTwPQ4I8eHh4BBKIWKJxrzYY58pfhH58GoFOYc5460ylMt+yj/dLEPxn8TsXhKoB1hH8sGgBl4HrY8NfHh2NwFUAm4S7v61zjX1roR870L5c85y9Dv1TyC304BRD1pxPPjwACDRVY0QA4R/veW8+Rf2wbADf4ZROwSvjbIwDd0V8F4DYAq0/4k4FfXQ19IwR4cL26Aahz5C/DPz4NgGeBnwDhTwMQ4A3BXRBAYGsL+BoAb+g7P9cIf2spLqcAykf/QcP/dJcwT8WlAQgX/saxGEwC9DYAAcNfz8RlBMDTALhH/fLof+WRv/11vowAbO0PNrYeAQTqC7gNgBP43ttVwj9WDUCo8I9LAxA+/GPVAIQI/9g1AAHDX36RD6cA6n9+cA8EENjCAnYD4A195+c1wj82DUDo8I9RA7COL/aJ+m1mnwIIG/5xGgEIEf40AFG/23h+BBBouEAh25pdMeO/TvjHrwFY45y/Pewvg9+pGJwCWEf4G8eS0a8DIE8BTAwJX3lm+zvn/OVRv33kL8M/Lg1AyPCnAWj4Rw9PgAACUQusaAAChL+11B6PywDtEYAw4R+TEYDqBqDGhD855F+qpPutflG/V3RlyN8ABAn/ODQAA5nEWrP9nXP+MvS9xSmAqN9xPD8CCDRUwNcABAx/uwFYiMFSwGvN9l9x5F8eAZiN2QhAwPA3HozDCICnAQga/pm00EYj/jIgtwFYfcKfN/idn7UUKwE29MOHB0cAgWgF3AYgRPhbi+3CjFMD4Fzj7946w/1Vt7NdwoxTAxAi/PU4NQBhwn8sLg1AuPDPpyYEDUC0n008OwIINFjAbgBChn+sGgA39J3FfqpC3zn3Xwr/+DQAIcM/Ng1A2PCPUwPgWeRntWF/++g/NSFKDYDCtwE2+POHh0cAgQgFKg1AaYU/e6GfpTYhJ/pVql3IYX8Z/E7FYgQgfPjHowFYR/jHogEYH7ruLO+76oQ/e+JfWmgy+J2KwymAkOGfTylCS9EARPjRxFMjgECjBUoNQLjwj8UIwKnOT7vL+9qNQN0jfxn+8WwAakz4k+f8ZehXKhX9VQBuA1Ba4W/FbP9a4R+XEYCBceEe9cufqyb8eY/8ZfjTADT6k4fHRwCByAUK2bass7xv5YjfOfpfeeRfGQFIJKLceNPXAAQOf2HEYQ6AdwQgYPjrR+PSAIQM/5g0AGHD324A+hgBiPL/OM+NAAINFnAbAN+Qv2wAVg9/ayEhzIW4NAAhwn+mO14NQIjwj0cDMHzdHvqvvs5/tSN/O/zlJMDRzzb4bbzmw+cGMgm3AQhw5G+PACQVodEArOnKPyKAwBYXsBuAkOEfnwYgZPjHqQEIGf6xaQBCh/9IfBqAEOGfpwHY4p9sbD4CCNQVKCy1Zf1D/2sf+cvwj00D4Mzw995WZvs75/yFIYPfqdme6L8NcB3hH4sGIDN83bfCX90jfxn+MWkAQoY/DUDdjw7ugAACW13A3wAEC3+7AZhvb49y382Zrk9VlvctjwTUC/+ZHmHEpgGorPBXa8KfDPzqitJbPreeGb5uL+1rB79c5tcz09+Z8e8O+zvhPyKvBvhMlNue6x9vXzHpr3ypnzPhzxn2l8HvFKcAonzVeG4EEGi4gLW0/0RpBCBE+MtRgPmOuxq+cWs8gXXm4Ed8DUCQ8JcNwMmey2s87Kb8k3Esqcq1/e3yzfSXs/5XBn+5EfjlpmzcGk+iZYYvVRqAgOFfGgH42BoP2/B/yg2Mt/gagADhn09OyjkAxxu+cTwBAgggEJVAIbt/T70Jf86wf3noX5jzCaEvdbwvqm2Wz6udTLzFPNX1a7sJCB7+wpjuTUe53fK59WOpfwoZ/kJ/oP/bUW+3NjY8VGoAQoT/yMgNXVHeFuW2G32Z97sNQMDwz/dNinzyyP1RbjfPjQACCDRUQL+4763WUnvBubzPd1s+3+80AKac/T+fEObZxL82dKMCPrh1uuvrZpjwP9lzQzvZ/Z6AD9+wuxnHkv1Bh/3to/8H+oVxtD/ZsA0K+MDa2OC7tUz6hrvAz1rD/vLIf8SubwR8+IbeLd8/8UO5ul+pStf51xr2l0f+dvj3TRa0lPKWhm4UD44AAghELWAttZ/wBb9c8W+18J+Pfvjf8Sqc7vqEOdt9s7zAjz3pz53sZ0/66xFGadhfDv3Lo/8rzu9Geftz5eBv6A8mf+pd5Kf6fL/75wf65dH/T3423f+GKLfZeW5tLH15RQMwKi/185zzr4T/TT2d/lPnd6O8zSXHd4UIf4b/o3yxeG4EENg8AfFUyx3WYvs33CZgjfA35g+c2bwtq/9M5kz3qNMArBn+J3t+oJ5I3Fn/ETfnHtrR5Ef0B5PWGuf8ZfDLsvJHk3+yOVtV/1l+qShv1MbS33ebgNXDX+jp9Hj9R9y8e+T7lQV30p9nsl9p0p975C9yyclvCkW5Y/O2jGdCAAEEIhQQs32vMxfbL1gLiRveo3932H8+YRnzBwaFuO32CDez5lObMz0dxkyXVmkA/Ef++kzP9dzxzh01fznCvzSPp/5YP5p6yT3a9878l+F/pP+H5pHUhyPcxJpPnRse3qFlRq5rq4e/rqfTnTV/OcK/FLeJ2/MpZSyfVIrOTP+q8L+Z65u8KPpmXxfhZvLUCCCAQDQCxkLbB6wFeUog8TVzIfE9c779K8Z8YthaPPD2aLYo2LPq0wfeZsx09xuzPc8Zsz0vmid7XjBP9pzVpro/GuwRormXyCZeYxxNfV4/mnpSezD1HVn6A6knjSP998p/i2argj2rlk5/VB9NP6yNjrygjY68qI2MPKeNjAxEPemv3ta/nDr6jnyfMpZPKc9rfZMrg346AAAD8ElEQVQvyiP+XFKZfvmw8qF6v8u/I4AAAggggAACCCCAAAIIIIAAAggggAACCCCAAAIIIIAAAggggAACCCCAAAIIIIAAAggggAACCCCAAAIIIIAAAggggAACCCCAAAIIIIAAAggggAACCCCAAAIIIIAAAggggAACCCCAAAIIIIAAAggggAACCCCAAAIIIIAAAggggAACCCCAAAIIIIAAAggggAACCCCAAAIIIIAAAggggAACCCCAAAIIIIAAAggggAACCCCAAAIIIIAAAggggAACCCCAAAIIIIAAAggggAACCCCAAAIIIIAAAggggAACCCCAAAIIIIAAAggggAACCCCAAAIIIIAAAggggAACCCCAAAIIIIAAAggggAACCCCAAAIIIIAAAggggAACCCCAAAIIIIAAAggggAACCCCAAAIIIIAAAggggAACCCCAAAIIIIAAAggggAACCCCAAAIIIIAAAggggAACCCCAAAIIIIAAAggggAACCCCAAAIIIIAAAggggAACCCCAAAIIIIAAAggggAACCCCAAAIIIIAAAggggAACCCCAAAIIIIAAAggggAACCCCAAAIIIIAAAggggAACCCCAAAIIIIAAAggggAACCCCAAAIIIIAAAggggAACCCCAAAIIIIAAAggggAACCCCAAAIIIIAAAggggAACCCCAAAIIIIAAAggggAACCCCAAAIIIIAAAggggAACCCCAAAIIIIAAAggggAACCCCAAAIIIIAAAggggAACCCCAAAIIIIAAAggggAACCCCAAAIIIIAAAggggAACCCCAAAIIIIAAAggggAACCCCAAAIIIIAAAggggAACCCCAAAIIIIAAAggggAACCCCAAAIIIIAAAggggAACCCCAAAIIIIAAAggggAACCCCAAAIIIIAAAggggAACCCCAAAIIIIAAAggggAACCCCAAAIIIIAAAggggAACCCCAAAIIIIAAAggggAACCCCAAAIIIIAAAggggAACCCCAAAIIIIAAAggggAACCCCAAAIIIIAAAggggAACCCCAAAIIIIAAAggggAACCCCAAAIIIIAAAggggAACCCCAAAIIIIAAAggggAACCCCAAAIIIIAAAggggAACCCCAAAIIIIAAAggggAACCCCAAAIIIIAAAggggAACCCCAAAIIIIAAAggggAACCCCAAAIIIIAAAggggAACCCCAAAIIIIAAAggggAACCCCAAAIIIIAAAggggAACCCCAAAIIIIAAAggggAACCCCAAAIIIIAAAggggAACCCCAAAIIIIAAAggggAACCCCAAAIIIIAAAggggAACCCCAAAIIIIAAAggggAACMRb4f/C9+JEEK8DwAAAAAElFTkSuQmCC;fillColor=#182E3E;strokeColor=#FFFFFF;fontColor=#FFFFFF;" parent="RByCtK4DOyFTz49GX1wE-56" vertex="1">
          <mxGeometry width="117.73369565217392" height="117.73369565217392" as="geometry" />
        </mxCell>
        <mxCell id="RByCtK4DOyFTz49GX1wE-49" value="&lt;font style=&quot;font-size: 20px;&quot;&gt;&lt;b&gt;LLM&lt;/b&gt;&lt;/font&gt;" style="text;html=1;strokeColor=none;fillColor=none;align=center;verticalAlign=middle;whiteSpace=wrap;rounded=0;labelBackgroundColor=none;fontColor=#FFFFFF;" parent="RByCtK4DOyFTz49GX1wE-56" vertex="1">
          <mxGeometry x="6.0302380952380945" y="95" width="114.50285714285714" height="45.18833333333334" as="geometry" />
        </mxCell>
        <mxCell id="RByCtK4DOyFTz49GX1wE-93" value="" style="html=1;shadow=0;dashed=0;align=center;verticalAlign=middle;shape=mxgraph.arrows2.jumpInArrow;dy=7.32;dx=24.81;arrowHead=55;rotation=-90;labelBackgroundColor=none;fillColor=#182E3E;strokeColor=#FFFFFF;fontColor=#FFFFFF;" parent="RByCtK4DOyFTz49GX1wE-56" vertex="1">
          <mxGeometry x="109.4" y="108.85" width="54.35" height="104.74" as="geometry" />
        </mxCell>
        <mxCell id="RByCtK4DOyFTz49GX1wE-96" value="" style="html=1;shadow=0;dashed=0;align=center;verticalAlign=middle;shape=mxgraph.arrows2.jumpInArrow;dy=7.32;dx=24.81;arrowHead=39.3;rotation=0;labelBackgroundColor=none;fillColor=#182E3E;strokeColor=#FFFFFF;fontColor=#FFFFFF;" parent="RByCtK4DOyFTz49GX1wE-56" vertex="1">
          <mxGeometry x="75" y="-40" width="64.35" height="60" as="geometry" />
        </mxCell>
        <mxCell id="RByCtK4DOyFTz49GX1wE-59" value="&lt;font style=&quot;font-size: 31px;&quot;&gt;&lt;b&gt;Advance RAG&lt;br&gt;Logic Design&lt;br&gt;&lt;/b&gt;&lt;/font&gt;" style="text;html=1;strokeColor=none;fillColor=#182E3E;align=center;verticalAlign=middle;whiteSpace=wrap;rounded=0;labelBackgroundColor=none;fontColor=#FFFFFF;" parent="1" vertex="1">
          <mxGeometry x="-630" y="120" width="310" height="226" as="geometry" />
        </mxCell>
        <mxCell id="RByCtK4DOyFTz49GX1wE-60" value="&lt;b style=&quot;border-color: var(--border-color); font-size: 18px;&quot;&gt;Query&lt;br&gt;Expansion -Enrichment&lt;br&gt;&lt;/b&gt;" style="text;html=1;align=center;verticalAlign=middle;whiteSpace=wrap;rounded=0;fillColor=#182E3E;fontColor=#FFFFFF;strokeColor=#FFFFFF;labelBackgroundColor=none;" parent="1" vertex="1">
          <mxGeometry x="-290" y="473" width="167" height="160" as="geometry" />
        </mxCell>
        <mxCell id="RByCtK4DOyFTz49GX1wE-61" value="&lt;b style=&quot;border-color: var(--border-color); font-size: 18px;&quot;&gt;Answer&lt;br&gt;&lt;/b&gt;" style="text;html=1;align=center;verticalAlign=middle;whiteSpace=wrap;rounded=0;fillColor=#182E3E;strokeColor=#FFFFFF;labelBackgroundColor=none;fontColor=#FFFFFF;" parent="1" vertex="1">
          <mxGeometry x="-290" y="678" width="167" height="160" as="geometry" />
        </mxCell>
        <mxCell id="RByCtK4DOyFTz49GX1wE-62" value="&lt;b style=&quot;border-color: var(--border-color);&quot;&gt;&lt;b style=&quot;border-color: var(--border-color);&quot;&gt;&lt;font style=&quot;font-size: 18px;&quot;&gt;Retriever 2:&amp;nbsp;&lt;br&gt;Aditional (new) Information&lt;/font&gt;&lt;/b&gt;&lt;br&gt;&lt;/b&gt;" style="text;html=1;align=center;verticalAlign=middle;whiteSpace=wrap;rounded=0;fillColor=#182E3E;fontColor=#FFFFFF;strokeColor=#FFFFFF;labelBackgroundColor=none;" parent="1" vertex="1">
          <mxGeometry x="296" y="576" width="167" height="160" as="geometry" />
        </mxCell>
        <mxCell id="RByCtK4DOyFTz49GX1wE-63" value="&lt;b style=&quot;border-color: var(--border-color);&quot;&gt;&lt;b style=&quot;border-color: var(--border-color);&quot;&gt;&lt;font style=&quot;font-size: 18px;&quot;&gt;Generation for Answer Query&lt;/font&gt;&lt;/b&gt;&lt;br&gt;&lt;/b&gt;" style="text;html=1;align=center;verticalAlign=middle;whiteSpace=wrap;rounded=0;fillColor=#182E3E;fontColor=#FFFFFF;strokeColor=#FFFFFF;labelBackgroundColor=none;" parent="1" vertex="1">
          <mxGeometry x="-86" y="766" width="167" height="160" as="geometry" />
        </mxCell>
        <mxCell id="RByCtK4DOyFTz49GX1wE-64" value="&lt;b style=&quot;border-color: var(--border-color); font-size: 18px;&quot;&gt;&lt;b style=&quot;border-color: var(--border-color);&quot;&gt;Augmentation&lt;br style=&quot;border-color: var(--border-color);&quot;&gt;&lt;/b&gt;Agents and API&lt;br&gt;&lt;/b&gt;" style="text;html=1;align=center;verticalAlign=middle;whiteSpace=wrap;rounded=0;fillColor=#182E3E;fontColor=#FFFFFF;strokeColor=#FFFFFF;labelBackgroundColor=none;" parent="1" vertex="1">
          <mxGeometry x="110" y="766" width="167" height="160" as="geometry" />
        </mxCell>
        <mxCell id="RByCtK4DOyFTz49GX1wE-65" value="&lt;b style=&quot;border-color: var(--border-color); font-size: 18px;&quot;&gt;&lt;b style=&quot;border-color: var(--border-color);&quot;&gt;Retriever 1:&amp;nbsp;&amp;nbsp;&lt;br style=&quot;border-color: var(--border-color);&quot;&gt;Hybrid-Search-Filter / SQL /&lt;br&gt;&amp;nbsp;Diffbot&lt;/b&gt;&lt;br&gt;&lt;/b&gt;" style="text;html=1;align=center;verticalAlign=middle;whiteSpace=wrap;rounded=0;fillColor=#182E3E;fontColor=#FFFFFF;strokeColor=#FFFFFF;labelBackgroundColor=none;" parent="1" vertex="1">
          <mxGeometry x="-92" y="381" width="167" height="160" as="geometry" />
        </mxCell>
        <mxCell id="RByCtK4DOyFTz49GX1wE-66" value="&lt;b style=&quot;border-color: var(--border-color);&quot;&gt;&lt;b style=&quot;border-color: var(--border-color);&quot;&gt;&lt;font style=&quot;font-size: 18px;&quot;&gt;Generation for Content &lt;br&gt;Evaluation&lt;/font&gt;&lt;/b&gt;&lt;br&gt;&lt;/b&gt;" style="text;html=1;align=center;verticalAlign=middle;whiteSpace=wrap;rounded=0;fillColor=#182E3E;fontColor=#FFFFFF;strokeColor=#FFFFFF;labelBackgroundColor=none;" parent="1" vertex="1">
          <mxGeometry x="116" y="381" width="167" height="160" as="geometry" />
        </mxCell>
        <mxCell id="RByCtK4DOyFTz49GX1wE-73" value="" style="endArrow=classic;html=1;rounded=0;entryX=0;entryY=0;entryDx=0;entryDy=0;exitX=0;exitY=0;exitDx=0;exitDy=0;labelBackgroundColor=none;strokeColor=#FFFFFF;fontColor=default;" parent="1" source="RByCtK4DOyFTz49GX1wE-60" target="RByCtK4DOyFTz49GX1wE-65" edge="1">
          <mxGeometry width="50" height="50" relative="1" as="geometry">
            <mxPoint x="-340" y="700" as="sourcePoint" />
            <mxPoint x="-290" y="650" as="targetPoint" />
          </mxGeometry>
        </mxCell>
        <mxCell id="RByCtK4DOyFTz49GX1wE-75" value="" style="endArrow=classic;html=1;rounded=0;entryX=0;entryY=0;entryDx=0;entryDy=0;exitX=1;exitY=0;exitDx=0;exitDy=0;labelBackgroundColor=none;strokeColor=#23445D;fontColor=default;" parent="1" source="RByCtK4DOyFTz49GX1wE-65" target="RByCtK4DOyFTz49GX1wE-66" edge="1">
          <mxGeometry width="50" height="50" relative="1" as="geometry">
            <mxPoint x="-340" y="700" as="sourcePoint" />
            <mxPoint x="-290" y="650" as="targetPoint" />
          </mxGeometry>
        </mxCell>
        <mxCell id="RByCtK4DOyFTz49GX1wE-76" value="" style="endArrow=classic;html=1;rounded=0;entryX=1;entryY=0;entryDx=0;entryDy=0;exitX=1;exitY=0;exitDx=0;exitDy=0;labelBackgroundColor=none;strokeColor=#FFFFFF;fontColor=default;" parent="1" source="RByCtK4DOyFTz49GX1wE-66" target="RByCtK4DOyFTz49GX1wE-62" edge="1">
          <mxGeometry width="50" height="50" relative="1" as="geometry">
            <mxPoint x="-340" y="700" as="sourcePoint" />
            <mxPoint x="-290" y="650" as="targetPoint" />
          </mxGeometry>
        </mxCell>
        <mxCell id="RByCtK4DOyFTz49GX1wE-77" value="" style="endArrow=classic;html=1;rounded=0;entryX=1;entryY=1;entryDx=0;entryDy=0;exitX=1;exitY=1;exitDx=0;exitDy=0;labelBackgroundColor=none;strokeColor=#FFFFFF;fontColor=default;" parent="1" source="RByCtK4DOyFTz49GX1wE-62" target="RByCtK4DOyFTz49GX1wE-64" edge="1">
          <mxGeometry width="50" height="50" relative="1" as="geometry">
            <mxPoint x="-340" y="700" as="sourcePoint" />
            <mxPoint x="-290" y="650" as="targetPoint" />
            <Array as="points">
              <mxPoint x="370" y="830" />
            </Array>
          </mxGeometry>
        </mxCell>
        <mxCell id="RByCtK4DOyFTz49GX1wE-78" value="" style="endArrow=classic;html=1;rounded=0;entryX=1;entryY=1;entryDx=0;entryDy=0;exitX=0;exitY=1;exitDx=0;exitDy=0;labelBackgroundColor=none;strokeColor=#FFFFFF;fontColor=default;" parent="1" source="RByCtK4DOyFTz49GX1wE-64" target="RByCtK4DOyFTz49GX1wE-63" edge="1">
          <mxGeometry width="50" height="50" relative="1" as="geometry">
            <mxPoint x="-340" y="700" as="sourcePoint" />
            <mxPoint x="-290" y="650" as="targetPoint" />
          </mxGeometry>
        </mxCell>
        <mxCell id="RByCtK4DOyFTz49GX1wE-79" value="" style="endArrow=classic;html=1;rounded=0;entryX=0;entryY=1;entryDx=0;entryDy=0;exitX=0;exitY=1;exitDx=0;exitDy=0;labelBackgroundColor=none;strokeColor=#FFFFFF;fontColor=default;" parent="1" source="RByCtK4DOyFTz49GX1wE-63" target="RByCtK4DOyFTz49GX1wE-61" edge="1">
          <mxGeometry width="50" height="50" relative="1" as="geometry">
            <mxPoint x="-340" y="700" as="sourcePoint" />
            <mxPoint x="-290" y="650" as="targetPoint" />
          </mxGeometry>
        </mxCell>
        <mxCell id="RByCtK4DOyFTz49GX1wE-81" value="" style="endArrow=classic;startArrow=classic;html=1;rounded=0;entryX=0.75;entryY=1;entryDx=0;entryDy=0;exitX=1;exitY=0.25;exitDx=0;exitDy=0;labelBackgroundColor=none;strokeColor=#FFFFFF;fontColor=default;" parent="1" source="RByCtK4DOyFTz49GX1wE-53" target="RByCtK4DOyFTz49GX1wE-66" edge="1">
          <mxGeometry width="50" height="50" relative="1" as="geometry">
            <mxPoint x="100" y="600" as="sourcePoint" />
            <mxPoint x="-40" y="490" as="targetPoint" />
          </mxGeometry>
        </mxCell>
        <mxCell id="RByCtK4DOyFTz49GX1wE-82" value="" style="endArrow=classic;startArrow=classic;html=1;rounded=0;labelBackgroundColor=none;strokeColor=#FFFFFF;fontColor=default;" parent="1" edge="1">
          <mxGeometry width="50" height="50" relative="1" as="geometry">
            <mxPoint x="-78" y="619" as="sourcePoint" />
            <mxPoint x="42" y="619" as="targetPoint" />
          </mxGeometry>
        </mxCell>
        <mxCell id="RByCtK4DOyFTz49GX1wE-83" value="" style="endArrow=classic;startArrow=classic;html=1;rounded=0;exitX=0.75;exitY=0;exitDx=0;exitDy=0;labelBackgroundColor=none;strokeColor=#FFFFFF;fontColor=default;" parent="1" source="RByCtK4DOyFTz49GX1wE-49" edge="1">
          <mxGeometry width="50" height="50" relative="1" as="geometry">
            <mxPoint x="160" y="700" as="sourcePoint" />
            <mxPoint x="220" y="750" as="targetPoint" />
          </mxGeometry>
        </mxCell>
        <mxCell id="RByCtK4DOyFTz49GX1wE-84" value="" style="endArrow=classic;startArrow=classic;html=1;rounded=0;entryX=0.25;entryY=0;entryDx=0;entryDy=0;labelBackgroundColor=none;strokeColor=#FFFFFF;fontColor=default;" parent="1" edge="1">
          <mxGeometry width="50" height="50" relative="1" as="geometry">
            <mxPoint x="-31" y="750" as="sourcePoint" />
            <mxPoint x="44.8508799171841" y="675.5555555555557" as="targetPoint" />
          </mxGeometry>
        </mxCell>
        <mxCell id="RByCtK4DOyFTz49GX1wE-85" value="&lt;font style=&quot;font-size: 20px;&quot;&gt;&lt;b&gt;Use Case 3&lt;/b&gt;&lt;/font&gt;" style="text;html=1;strokeColor=none;fillColor=none;align=center;verticalAlign=middle;whiteSpace=wrap;rounded=0;labelBackgroundColor=none;fontColor=#FFFFFF;" parent="1" vertex="1">
          <mxGeometry x="-560" y="280" width="160" height="50" as="geometry" />
        </mxCell>
        <mxCell id="RByCtK4DOyFTz49GX1wE-86" value="" style="endArrow=classic;html=1;rounded=0;labelBackgroundColor=none;strokeColor=#FFFFFF;fontColor=default;" parent="1" edge="1">
          <mxGeometry width="50" height="50" relative="1" as="geometry">
            <mxPoint y="380" as="sourcePoint" />
            <mxPoint y="320" as="targetPoint" />
          </mxGeometry>
        </mxCell>
        <mxCell id="RByCtK4DOyFTz49GX1wE-87" value="" style="endArrow=classic;html=1;rounded=0;exitX=0.5;exitY=0;exitDx=0;exitDy=0;labelBackgroundColor=none;strokeColor=#FFFFFF;fontColor=default;" parent="1" source="RByCtK4DOyFTz49GX1wE-62" edge="1">
          <mxGeometry width="50" height="50" relative="1" as="geometry">
            <mxPoint x="-90" y="710" as="sourcePoint" />
            <mxPoint x="40" y="320" as="targetPoint" />
            <Array as="points">
              <mxPoint x="379" y="370" />
              <mxPoint x="40" y="370" />
            </Array>
          </mxGeometry>
        </mxCell>
        <mxCell id="RByCtK4DOyFTz49GX1wE-101" value="" style="endArrow=classic;startArrow=classic;html=1;rounded=0;entryX=0;entryY=0.5;entryDx=0;entryDy=0;exitX=0.5;exitY=1;exitDx=0;exitDy=0;labelBackgroundColor=none;strokeColor=#FFFFFF;fontColor=default;" parent="1" source="RByCtK4DOyFTz49GX1wE-64" target="RByCtK4DOyFTz49GX1wE-100" edge="1">
          <mxGeometry width="50" height="50" relative="1" as="geometry">
            <mxPoint x="-100" y="700" as="sourcePoint" />
            <mxPoint x="-50" y="650" as="targetPoint" />
            <Array as="points">
              <mxPoint x="193" y="1045" />
            </Array>
          </mxGeometry>
        </mxCell>
      </root>
    </mxGraphModel>
  </diagram>
</mxfile>
